<?xml version="1.0" encoding="UTF-8" standalone="no"?>
<!DOCTYPE svg PUBLIC "-//W3C//DTD SVG 1.1//EN"
 "http://www.w3.org/Graphics/SVG/1.1/DTD/svg11.dtd">
<!-- Generated by graphviz version 2.42.4 (0)
 -->
<!-- Title: G Pages: 1 -->
<svg width="1549pt" height="6987pt"
 viewBox="0.00 0.00 1549.10 6986.60" xmlns="http://www.w3.org/2000/svg" xmlns:xlink="http://www.w3.org/1999/xlink">
<g id="graph0" class="graph" transform="scale(1 1) rotate(0) translate(28.8 6957.8)">
<title>G</title>
<polygon fill="white" stroke="transparent" points="-28.8,28.8 -28.8,-6957.8 1520.3,-6957.8 1520.3,28.8 -28.8,28.8"/>
<text text-anchor="middle" x="745.75" y="-6907.4" font-family="Noto Sans CJK KR" font-size="22.00">제휴사 이벤트 관리자 사용자 플로우 차트</text>
<g id="clust1" class="cluster">
<title>cluster_admin_home</title>
<path fill="#f8fbff" stroke="#bfdbfe" d="M815,-6134C815,-6134 1450,-6134 1450,-6134 1456,-6134 1462,-6140 1462,-6146 1462,-6146 1462,-6269 1462,-6269 1462,-6275 1456,-6281 1450,-6281 1450,-6281 815,-6281 815,-6281 809,-6281 803,-6275 803,-6269 803,-6269 803,-6146 803,-6146 803,-6140 809,-6134 815,-6134"/>
<text text-anchor="middle" x="1132.5" y="-6262.6" font-family="Noto Sans CJK KR" font-size="18.00">관리자 홈</text>
</g>
<g id="clust2" class="cluster">
<title>cluster_event_base</title>
<path fill="#fafbff" stroke="#c7d2fe" d="M1098,-4920C1098,-4920 1440,-4920 1440,-4920 1446,-4920 1452,-4926 1452,-4932 1452,-4932 1452,-5924 1452,-5924 1452,-5930 1446,-5936 1440,-5936 1440,-5936 1098,-5936 1098,-5936 1092,-5936 1086,-5930 1086,-5924 1086,-5924 1086,-4932 1086,-4932 1086,-4926 1092,-4920 1098,-4920"/>
<text text-anchor="middle" x="1269" y="-5917.6" font-family="Noto Sans CJK KR" font-size="18.00">1. 이벤트 기본 정보 입력</text>
</g>
<g id="clust3" class="cluster">
<title>cluster_step_design</title>
<path fill="#f7fffb" stroke="#a7f3d0" d="M730,-3872C730,-3872 1030,-3872 1030,-3872 1036,-3872 1042,-3878 1042,-3884 1042,-3884 1042,-4876 1042,-4876 1042,-4882 1036,-4888 1030,-4888 1030,-4888 730,-4888 730,-4888 724,-4888 718,-4882 718,-4876 718,-4876 718,-3884 718,-3884 718,-3878 724,-3872 730,-3872"/>
<text text-anchor="middle" x="880" y="-4869.6" font-family="Noto Sans CJK KR" font-size="18.00">2. 방문 스텝 설계</text>
</g>
<g id="clust4" class="cluster">
<title>cluster_nfc_nft</title>
<path fill="#fff8fc" stroke="#fbcfe8" d="M1024,-2907C1024,-2907 1294,-2907 1294,-2907 1300,-2907 1306,-2913 1306,-2919 1306,-2919 1306,-3828 1306,-3828 1306,-3834 1300,-3840 1294,-3840 1294,-3840 1024,-3840 1024,-3840 1018,-3840 1012,-3834 1012,-3828 1012,-3828 1012,-2919 1012,-2919 1012,-2913 1018,-2907 1024,-2907"/>
<text text-anchor="middle" x="1159" y="-3821.6" font-family="Noto Sans CJK KR" font-size="18.00">3. NFC 및 NFT 템플릿 설정</text>
</g>
<g id="clust5" class="cluster">
<title>cluster_reward_setup</title>
<path fill="#fbfaff" stroke="#ddd6fe" d="M523,-2041C523,-2041 807,-2041 807,-2041 813,-2041 819,-2047 819,-2053 819,-2053 819,-2863 819,-2863 819,-2869 813,-2875 807,-2875 807,-2875 523,-2875 523,-2875 517,-2875 511,-2869 511,-2863 511,-2863 511,-2053 511,-2053 511,-2047 517,-2041 523,-2041"/>
<text text-anchor="middle" x="665" y="-2856.6" font-family="Noto Sans CJK KR" font-size="18.00">4. 완주 리워드 설정</text>
</g>
<g id="clust6" class="cluster">
<title>cluster_preview_publish</title>
<path fill="#f5faff" stroke="#93c5fd" d="M860,-762C860,-762 1294,-762 1294,-762 1300,-762 1306,-768 1306,-774 1306,-774 1306,-1997 1306,-1997 1306,-2003 1300,-2009 1294,-2009 1294,-2009 860,-2009 860,-2009 854,-2009 848,-2003 848,-1997 848,-1997 848,-774 848,-774 848,-768 854,-762 860,-762"/>
<text text-anchor="middle" x="1077" y="-1990.6" font-family="Noto Sans CJK KR" font-size="18.00">5. 미리보기 및 등록</text>
</g>
<g id="clust7" class="cluster">
<title>cluster_post_manage</title>
<path fill="#fffcf2" stroke="#fde68a" d="M410,-8C410,-8 760,-8 760,-8 766,-8 772,-14 772,-20 772,-20 772,-830 772,-830 772,-836 766,-842 760,-842 760,-842 410,-842 410,-842 404,-842 398,-836 398,-830 398,-830 398,-20 398,-20 398,-14 404,-8 410,-8"/>
<text text-anchor="middle" x="585" y="-823.6" font-family="Noto Sans CJK KR" font-size="18.00">6. 등록 후 운영</text>
</g>
<!-- login_decision -->
<g id="node1" class="node">
<title>login_decision</title>
<path fill="#fff7ed" stroke="#f59e0b" stroke-width="1.4" d="M1262.18,-6795.91C1262.18,-6795.91 1093.82,-6766.09 1093.82,-6766.09 1087.91,-6765.05 1087.91,-6762.95 1093.82,-6761.91 1093.82,-6761.91 1262.18,-6732.09 1262.18,-6732.09 1268.09,-6731.05 1279.91,-6731.05 1285.82,-6732.09 1285.82,-6732.09 1454.18,-6761.91 1454.18,-6761.91 1460.09,-6762.95 1460.09,-6765.05 1454.18,-6766.09 1454.18,-6766.09 1285.82,-6795.91 1285.82,-6795.91 1279.91,-6796.95 1268.09,-6796.95 1262.18,-6795.91"/>
<text text-anchor="middle" x="1274" y="-6760.2" font-family="Noto Sans CJK KR" font-size="16.00">관리자 로그인 상태인가?</text>
</g>
<!-- login_page -->
<g id="node11" class="node">
<title>login_page</title>
<path fill="#f3f4f6" stroke="#6b7280" stroke-width="1.4" d="M1479.5,-6654C1479.5,-6654 1314.5,-6654 1314.5,-6654 1308.5,-6654 1302.5,-6648 1302.5,-6642 1302.5,-6642 1302.5,-6630 1302.5,-6630 1302.5,-6624 1308.5,-6618 1314.5,-6618 1314.5,-6618 1479.5,-6618 1479.5,-6618 1485.5,-6618 1491.5,-6624 1491.5,-6630 1491.5,-6630 1491.5,-6642 1491.5,-6642 1491.5,-6648 1485.5,-6654 1479.5,-6654"/>
<text text-anchor="middle" x="1397" y="-6632.2" font-family="Noto Sans CJK KR" font-size="16.00">/partner&#45;admin login/</text>
</g>
<!-- login_decision&#45;&gt;login_page -->
<g id="edge2" class="edge">
<title>login_decision&#45;&gt;login_page</title>
<path fill="none" stroke="#6b7280" stroke-width="1.2" d="M1384.25,-6749.32C1384.25,-6749.32 1384.25,-6662.21 1384.25,-6662.21"/>
<polygon fill="#6b7280" stroke="#6b7280" stroke-width="1.2" points="1387.05,-6662.21 1384.25,-6654.21 1381.45,-6662.21 1387.05,-6662.21"/>
<text text-anchor="middle" x="1370.5" y="-6688.6" font-family="Noto Sans CJK KR" font-size="13.00">아니오</text>
</g>
<!-- dashboard -->
<g id="node14" class="node">
<title>dashboard</title>
<path fill="#eff6ff" stroke="#3b82f6" stroke-width="1.4" d="M1367.5,-6357C1367.5,-6357 1160.5,-6357 1160.5,-6357 1154.5,-6357 1148.5,-6351 1148.5,-6345 1148.5,-6345 1148.5,-6333 1148.5,-6333 1148.5,-6327 1154.5,-6321 1160.5,-6321 1160.5,-6321 1367.5,-6321 1367.5,-6321 1373.5,-6321 1379.5,-6327 1379.5,-6333 1379.5,-6333 1379.5,-6345 1379.5,-6345 1379.5,-6351 1373.5,-6357 1367.5,-6357"/>
<text text-anchor="middle" x="1264" y="-6335.2" font-family="Noto Sans CJK KR" font-size="16.00">/partner&#45;admin dashboard/</text>
</g>
<!-- login_decision&#45;&gt;dashboard -->
<g id="edge6" class="edge">
<title>login_decision&#45;&gt;dashboard</title>
<path fill="none" stroke="#6b7280" stroke-width="1.2" d="M1222.75,-6739C1222.75,-6739 1222.75,-6365.23 1222.75,-6365.23"/>
<polygon fill="#6b7280" stroke="#6b7280" stroke-width="1.2" points="1225.55,-6365.23 1222.75,-6357.23 1219.95,-6365.23 1225.55,-6365.23"/>
<text text-anchor="middle" x="1247.5" y="-6533.6" font-family="Noto Sans CJK KR" font-size="13.00">예</text>
</g>
<!-- base_valid -->
<g id="node2" class="node">
<title>base_valid</title>
<path fill="#fff7ed" stroke="#f59e0b" stroke-width="1.4" d="M901.25,-5105.58C901.25,-5105.58 759.75,-5076.42 759.75,-5076.42 753.88,-5075.21 753.88,-5072.79 759.75,-5071.58 759.75,-5071.58 901.25,-5042.42 901.25,-5042.42 907.12,-5041.21 918.88,-5041.21 924.75,-5042.42 924.75,-5042.42 1066.25,-5071.58 1066.25,-5071.58 1072.12,-5072.79 1072.12,-5075.21 1066.25,-5076.42 1066.25,-5076.42 924.75,-5105.58 924.75,-5105.58 918.88,-5106.79 907.12,-5106.79 901.25,-5105.58"/>
<text text-anchor="middle" x="913" y="-5070.2" font-family="Noto Sans CJK KR" font-size="16.00">기본 정보 검증 통과?</text>
</g>
<!-- base_fix -->
<g id="node29" class="node">
<title>base_fix</title>
<path fill="#fee2e2" stroke="#ef4444" stroke-width="1.4" d="M1387.5,-4964C1387.5,-4964 1150.5,-4964 1150.5,-4964 1144.5,-4964 1138.5,-4958 1138.5,-4952 1138.5,-4952 1138.5,-4940 1138.5,-4940 1138.5,-4934 1144.5,-4928 1150.5,-4928 1150.5,-4928 1387.5,-4928 1387.5,-4928 1393.5,-4928 1399.5,-4934 1399.5,-4940 1399.5,-4940 1399.5,-4952 1399.5,-4952 1399.5,-4958 1393.5,-4964 1387.5,-4964"/>
<text text-anchor="middle" x="1269" y="-4942.2" font-family="Noto Sans CJK KR" font-size="16.00">필수값 / slug 중복 / 날짜 오류 수정</text>
</g>
<!-- base_valid&#45;&gt;base_fix -->
<g id="edge23" class="edge">
<title>base_valid&#45;&gt;base_fix</title>
<path fill="none" stroke="#6b7280" stroke-width="1.2" d="M1059.33,-5070.03C1059.33,-5048.42 1059.33,-4946 1059.33,-4946 1059.33,-4946 1130.3,-4946 1130.3,-4946"/>
<polygon fill="#6b7280" stroke="#6b7280" stroke-width="1.2" points="1130.3,-4948.8 1138.3,-4946 1130.3,-4943.2 1130.3,-4948.8"/>
<text text-anchor="middle" x="1113.5" y="-4998.6" font-family="Noto Sans CJK KR" font-size="13.00">아니오</text>
</g>
<!-- next_steps -->
<g id="node30" class="node">
<title>next_steps</title>
<path fill="#dcfce7" stroke="#22c55e" stroke-width="1.4" d="M966.5,-4964C966.5,-4964 851.5,-4964 851.5,-4964 845.5,-4964 839.5,-4958 839.5,-4952 839.5,-4952 839.5,-4940 839.5,-4940 839.5,-4934 845.5,-4928 851.5,-4928 851.5,-4928 966.5,-4928 966.5,-4928 972.5,-4928 978.5,-4934 978.5,-4940 978.5,-4940 978.5,-4952 978.5,-4952 978.5,-4958 972.5,-4964 966.5,-4964"/>
<text text-anchor="middle" x="909" y="-4942.2" font-family="Noto Sans CJK KR" font-size="16.00">다음 단계로 이동</text>
</g>
<!-- base_valid&#45;&gt;next_steps -->
<g id="edge25" class="edge">
<title>base_valid&#45;&gt;next_steps</title>
<path fill="none" stroke="#6b7280" stroke-width="1.2" d="M909,-5040.7C909,-5040.7 909,-4972.13 909,-4972.13"/>
<polygon fill="#6b7280" stroke="#6b7280" stroke-width="1.2" points="911.8,-4972.13 909,-4964.13 906.2,-4972.13 911.8,-4972.13"/>
<text text-anchor="middle" x="915.5" y="-4998.6" font-family="Noto Sans CJK KR" font-size="13.00">예</text>
</g>
<!-- step_valid -->
<g id="node3" class="node">
<title>step_valid</title>
<path fill="#fff7ed" stroke="#f59e0b" stroke-width="1.4" d="M1203.25,-4057.58C1203.25,-4057.58 1061.75,-4028.42 1061.75,-4028.42 1055.88,-4027.21 1055.88,-4024.79 1061.75,-4023.58 1061.75,-4023.58 1203.25,-3994.42 1203.25,-3994.42 1209.12,-3993.21 1220.88,-3993.21 1226.75,-3994.42 1226.75,-3994.42 1368.25,-4023.58 1368.25,-4023.58 1374.12,-4024.79 1374.12,-4027.21 1368.25,-4028.42 1368.25,-4028.42 1226.75,-4057.58 1226.75,-4057.58 1220.88,-4058.79 1209.12,-4058.79 1203.25,-4057.58"/>
<text text-anchor="middle" x="1215" y="-4022.2" font-family="Noto Sans CJK KR" font-size="16.00">스텝 구조 검증 통과?</text>
</g>
<!-- step_fix -->
<g id="node39" class="node">
<title>step_fix</title>
<path fill="#fee2e2" stroke="#ef4444" stroke-width="1.4" d="M1022.5,-3916C1022.5,-3916 737.5,-3916 737.5,-3916 731.5,-3916 725.5,-3910 725.5,-3904 725.5,-3904 725.5,-3892 725.5,-3892 725.5,-3886 731.5,-3880 737.5,-3880 737.5,-3880 1022.5,-3880 1022.5,-3880 1028.5,-3880 1034.5,-3886 1034.5,-3892 1034.5,-3892 1034.5,-3904 1034.5,-3904 1034.5,-3910 1028.5,-3916 1022.5,-3916"/>
<text text-anchor="middle" x="880" y="-3894.2" font-family="Noto Sans CJK KR" font-size="16.00">순서 중복 / 마지막 스텝 누락 / 필수값 수정</text>
</g>
<!-- step_valid&#45;&gt;step_fix -->
<g id="edge35" class="edge">
<title>step_valid&#45;&gt;step_fix</title>
<path fill="none" stroke="#6b7280" stroke-width="1.2" d="M1073,-4021.14C1073,-3997.76 1073,-3898 1073,-3898 1073,-3898 1042.87,-3898 1042.87,-3898"/>
<polygon fill="#6b7280" stroke="#6b7280" stroke-width="1.2" points="1042.87,-3895.2 1034.87,-3898 1042.87,-3900.8 1042.87,-3895.2"/>
<text text-anchor="middle" x="1020.5" y="-3950.6" font-family="Noto Sans CJK KR" font-size="13.00">아니오</text>
</g>
<!-- next_nfc -->
<g id="node40" class="node">
<title>next_nfc</title>
<path fill="#dcfce7" stroke="#22c55e" stroke-width="1.4" d="M1259.5,-3916C1259.5,-3916 1144.5,-3916 1144.5,-3916 1138.5,-3916 1132.5,-3910 1132.5,-3904 1132.5,-3904 1132.5,-3892 1132.5,-3892 1132.5,-3886 1138.5,-3880 1144.5,-3880 1144.5,-3880 1259.5,-3880 1259.5,-3880 1265.5,-3880 1271.5,-3886 1271.5,-3892 1271.5,-3892 1271.5,-3904 1271.5,-3904 1271.5,-3910 1265.5,-3916 1259.5,-3916"/>
<text text-anchor="middle" x="1202" y="-3894.2" font-family="Noto Sans CJK KR" font-size="16.00">다음 단계로 이동</text>
</g>
<!-- step_valid&#45;&gt;next_nfc -->
<g id="edge37" class="edge">
<title>step_valid&#45;&gt;next_nfc</title>
<path fill="none" stroke="#6b7280" stroke-width="1.2" d="M1202,-3994.36C1202,-3994.36 1202,-3924.24 1202,-3924.24"/>
<polygon fill="#6b7280" stroke="#6b7280" stroke-width="1.2" points="1204.8,-3924.24 1202,-3916.24 1199.2,-3924.24 1204.8,-3924.24"/>
<text text-anchor="middle" x="1212.5" y="-3950.6" font-family="Noto Sans CJK KR" font-size="13.00">예</text>
</g>
<!-- nfc_valid -->
<g id="node4" class="node">
<title>nfc_valid</title>
<path fill="#fff7ed" stroke="#f59e0b" stroke-width="1.4" d="M782.15,-3093.08C782.15,-3093.08 595.85,-3062.92 595.85,-3062.92 589.92,-3061.96 589.92,-3060.04 595.85,-3059.08 595.85,-3059.08 782.15,-3028.92 782.15,-3028.92 788.08,-3027.96 799.92,-3027.96 805.85,-3028.92 805.85,-3028.92 992.15,-3059.08 992.15,-3059.08 998.08,-3060.04 998.08,-3061.96 992.15,-3062.92 992.15,-3062.92 805.85,-3093.08 805.85,-3093.08 799.92,-3094.04 788.08,-3094.04 782.15,-3093.08"/>
<text text-anchor="middle" x="794" y="-3057.2" font-family="Noto Sans CJK KR" font-size="16.00">NFC / NFT 설정 검증 통과?</text>
</g>
<!-- nfc_fix -->
<g id="node48" class="node">
<title>nfc_fix</title>
<path fill="#fee2e2" stroke="#ef4444" stroke-width="1.4" d="M1286,-2951C1286,-2951 1032,-2951 1032,-2951 1026,-2951 1020,-2945 1020,-2939 1020,-2939 1020,-2927 1020,-2927 1020,-2921 1026,-2915 1032,-2915 1032,-2915 1286,-2915 1286,-2915 1292,-2915 1298,-2921 1298,-2927 1298,-2927 1298,-2939 1298,-2939 1298,-2945 1292,-2951 1286,-2951"/>
<text text-anchor="middle" x="1159" y="-2929.2" font-family="Noto Sans CJK KR" font-size="16.00">tagUid 중복 / 누락, NFT 값 누락 수정</text>
</g>
<!-- nfc_valid&#45;&gt;nfc_fix -->
<g id="edge46" class="edge">
<title>nfc_valid&#45;&gt;nfc_fix</title>
<path fill="none" stroke="#6b7280" stroke-width="1.2" d="M930.07,-3049C981,-3049 1026.75,-3049 1026.75,-3049 1026.75,-3049 1026.75,-2959.12 1026.75,-2959.12"/>
<polygon fill="#6b7280" stroke="#6b7280" stroke-width="1.2" points="1029.55,-2959.12 1026.75,-2951.12 1023.95,-2959.13 1029.55,-2959.12"/>
<text text-anchor="middle" x="969.5" y="-2985.6" font-family="Noto Sans CJK KR" font-size="13.00">아니오</text>
</g>
<!-- next_reward -->
<g id="node49" class="node">
<title>next_reward</title>
<path fill="#dcfce7" stroke="#22c55e" stroke-width="1.4" d="M775.5,-2951C775.5,-2951 660.5,-2951 660.5,-2951 654.5,-2951 648.5,-2945 648.5,-2939 648.5,-2939 648.5,-2927 648.5,-2927 648.5,-2921 654.5,-2915 660.5,-2915 660.5,-2915 775.5,-2915 775.5,-2915 781.5,-2915 787.5,-2921 787.5,-2927 787.5,-2927 787.5,-2939 787.5,-2939 787.5,-2945 781.5,-2951 775.5,-2951"/>
<text text-anchor="middle" x="718" y="-2929.2" font-family="Noto Sans CJK KR" font-size="16.00">다음 단계로 이동</text>
</g>
<!-- nfc_valid&#45;&gt;next_reward -->
<g id="edge48" class="edge">
<title>nfc_valid&#45;&gt;next_reward</title>
<path fill="none" stroke="#6b7280" stroke-width="1.2" d="M718,-3039.29C718,-3039.29 718,-2959.09 718,-2959.09"/>
<polygon fill="#6b7280" stroke="#6b7280" stroke-width="1.2" points="720.8,-2959.09 718,-2951.09 715.2,-2959.09 720.8,-2959.09"/>
<text text-anchor="middle" x="762.5" y="-2985.6" font-family="Noto Sans CJK KR" font-size="13.00">예</text>
</g>
<!-- reward_valid -->
<g id="node5" class="node">
<title>reward_valid</title>
<path fill="#fff7ed" stroke="#f59e0b" stroke-width="1.4" d="M962.31,-2226.3C962.31,-2226.3 838.69,-2197.7 838.69,-2197.7 832.85,-2196.35 832.85,-2193.65 838.69,-2192.3 838.69,-2192.3 962.31,-2163.7 962.31,-2163.7 968.15,-2162.35 979.85,-2162.35 985.69,-2163.7 985.69,-2163.7 1109.31,-2192.3 1109.31,-2192.3 1115.15,-2193.65 1115.15,-2196.35 1109.31,-2197.7 1109.31,-2197.7 985.69,-2226.3 985.69,-2226.3 979.85,-2227.65 968.15,-2227.65 962.31,-2226.3"/>
<text text-anchor="middle" x="974" y="-2191.2" font-family="Noto Sans CJK KR" font-size="16.00">리워드 검증 통과?</text>
</g>
<!-- reward_fix -->
<g id="node56" class="node">
<title>reward_fix</title>
<path fill="#fee2e2" stroke="#ef4444" stroke-width="1.4" d="M759.5,-2085C759.5,-2085 570.5,-2085 570.5,-2085 564.5,-2085 558.5,-2079 558.5,-2073 558.5,-2073 558.5,-2061 558.5,-2061 558.5,-2055 564.5,-2049 570.5,-2049 570.5,-2049 759.5,-2049 759.5,-2049 765.5,-2049 771.5,-2055 771.5,-2061 771.5,-2061 771.5,-2073 771.5,-2073 771.5,-2079 765.5,-2085 759.5,-2085"/>
<text text-anchor="middle" x="665" y="-2063.2" font-family="Noto Sans CJK KR" font-size="16.00">필수값 / 유효기간 오류 수정</text>
</g>
<!-- reward_valid&#45;&gt;reward_fix -->
<g id="edge56" class="edge">
<title>reward_valid&#45;&gt;reward_fix</title>
<path fill="none" stroke="#6b7280" stroke-width="1.2" d="M831.33,-2193.56C831.33,-2179.5 831.33,-2067 831.33,-2067 831.33,-2067 779.75,-2067 779.75,-2067"/>
<polygon fill="#6b7280" stroke="#6b7280" stroke-width="1.2" points="779.75,-2064.2 771.75,-2067 779.75,-2069.8 779.75,-2064.2"/>
<text text-anchor="middle" x="796.5" y="-2119.6" font-family="Noto Sans CJK KR" font-size="13.00">아니오</text>
</g>
<!-- preview -->
<g id="node57" class="node">
<title>preview</title>
<path fill="#dcfce7" stroke="#22c55e" stroke-width="1.4" d="M1029.5,-2085C1029.5,-2085 918.5,-2085 918.5,-2085 912.5,-2085 906.5,-2079 906.5,-2073 906.5,-2073 906.5,-2061 906.5,-2061 906.5,-2055 912.5,-2049 918.5,-2049 918.5,-2049 1029.5,-2049 1029.5,-2049 1035.5,-2049 1041.5,-2055 1041.5,-2061 1041.5,-2061 1041.5,-2073 1041.5,-2073 1041.5,-2079 1035.5,-2085 1029.5,-2085"/>
<text text-anchor="middle" x="974" y="-2063.2" font-family="Noto Sans CJK KR" font-size="16.00">미리보기로 이동</text>
</g>
<!-- reward_valid&#45;&gt;preview -->
<g id="edge58" class="edge">
<title>reward_valid&#45;&gt;preview</title>
<path fill="none" stroke="#6b7280" stroke-width="1.2" d="M974,-2160.7C974,-2160.7 974,-2093.19 974,-2093.19"/>
<polygon fill="#6b7280" stroke="#6b7280" stroke-width="1.2" points="976.8,-2093.19 974,-2085.19 971.2,-2093.19 976.8,-2093.19"/>
<text text-anchor="middle" x="980.5" y="-2119.6" font-family="Noto Sans CJK KR" font-size="13.00">예</text>
</g>
<!-- need_fix -->
<g id="node6" class="node">
<title>need_fix</title>
<path fill="#fff7ed" stroke="#f59e0b" stroke-width="1.4" d="M685.33,-1475.22C685.33,-1475.22 565.67,-1446.78 565.67,-1446.78 559.84,-1445.39 559.84,-1442.61 565.67,-1441.22 565.67,-1441.22 685.33,-1412.78 685.33,-1412.78 691.16,-1411.39 702.84,-1411.39 708.67,-1412.78 708.67,-1412.78 828.33,-1441.22 828.33,-1441.22 834.16,-1442.61 834.16,-1445.39 828.33,-1446.78 828.33,-1446.78 708.67,-1475.22 708.67,-1475.22 702.84,-1476.61 691.16,-1476.61 685.33,-1475.22"/>
<text text-anchor="middle" x="697" y="-1440.2" font-family="Noto Sans CJK KR" font-size="16.00">수정이 필요한가?</text>
</g>
<!-- save_mode -->
<g id="node7" class="node">
<title>save_mode</title>
<path fill="#fff7ed" stroke="#f59e0b" stroke-width="1.4" d="M704.43,-1330.83C704.43,-1330.83 603.57,-1303.17 603.57,-1303.17 597.79,-1301.59 597.79,-1298.41 603.57,-1296.83 603.57,-1296.83 704.43,-1269.17 704.43,-1269.17 710.21,-1267.59 721.79,-1267.59 727.57,-1269.17 727.57,-1269.17 828.43,-1296.83 828.43,-1296.83 834.21,-1298.41 834.21,-1301.59 828.43,-1303.17 828.43,-1303.17 727.57,-1330.83 727.57,-1330.83 721.79,-1332.41 710.21,-1332.41 704.43,-1330.83"/>
<text text-anchor="middle" x="716" y="-1296.2" font-family="Noto Sans CJK KR" font-size="16.00">저장 방식 선택</text>
</g>
<!-- need_fix&#45;&gt;save_mode -->
<g id="edge70" class="edge">
<title>need_fix&#45;&gt;save_mode</title>
<path fill="none" stroke="#6b7280" stroke-width="1.2" d="M716,-1414.51C716,-1414.51 716,-1342.26 716,-1342.26"/>
<polygon fill="#6b7280" stroke="#6b7280" stroke-width="1.2" points="718.8,-1342.26 716,-1334.26 713.2,-1342.26 718.8,-1342.26"/>
<text text-anchor="middle" x="724.5" y="-1368.6" font-family="Noto Sans CJK KR" font-size="13.00">아니오</text>
</g>
<!-- back_edit -->
<g id="node63" class="node">
<title>back_edit</title>
<path fill="#fee2e2" stroke="#ef4444" stroke-width="1.4" d="M1284.5,-806C1284.5,-806 1105.5,-806 1105.5,-806 1099.5,-806 1093.5,-800 1093.5,-794 1093.5,-794 1093.5,-782 1093.5,-782 1093.5,-776 1099.5,-770 1105.5,-770 1105.5,-770 1284.5,-770 1284.5,-770 1290.5,-770 1296.5,-776 1296.5,-782 1296.5,-782 1296.5,-794 1296.5,-794 1296.5,-800 1290.5,-806 1284.5,-806"/>
<text text-anchor="middle" x="1195" y="-784.2" font-family="Noto Sans CJK KR" font-size="16.00">원하는 단계로 돌아가 수정</text>
</g>
<!-- need_fix&#45;&gt;back_edit -->
<g id="edge65" class="edge">
<title>need_fix&#45;&gt;back_edit</title>
<path fill="none" stroke="#6b7280" stroke-width="1.2" d="M840.3,-1444C845.18,-1444 848,-1444 848,-1444 848,-1444 848,-788 848,-788 848,-788 1085.23,-788 1085.23,-788"/>
<polygon fill="#6b7280" stroke="#6b7280" stroke-width="1.2" points="1085.23,-790.8 1093.23,-788 1085.23,-785.2 1085.23,-790.8"/>
<text text-anchor="middle" x="538.5" y="-1096.6" font-family="Noto Sans CJK KR" font-size="13.00">예</text>
</g>
<!-- draft_save -->
<g id="node64" class="node">
<title>draft_save</title>
<path fill="#ffffff" stroke="#6b7280" stroke-width="1.4" d="M934,-1182C934,-1182 868,-1182 868,-1182 862,-1182 856,-1176 856,-1170 856,-1170 856,-1158 856,-1158 856,-1152 862,-1146 868,-1146 868,-1146 934,-1146 934,-1146 940,-1146 946,-1152 946,-1158 946,-1158 946,-1170 946,-1170 946,-1176 940,-1182 934,-1182"/>
<text text-anchor="middle" x="901" y="-1160.2" font-family="Noto Sans CJK KR" font-size="16.00">초안 저장</text>
</g>
<!-- save_mode&#45;&gt;draft_save -->
<g id="edge71" class="edge">
<title>save_mode&#45;&gt;draft_save</title>
<path fill="none" stroke="#6b7280" stroke-width="1.2" d="M796.28,-1288C846.42,-1288 901.5,-1288 901.5,-1288 901.5,-1288 901.5,-1190.03 901.5,-1190.03"/>
<polygon fill="#6b7280" stroke="#6b7280" stroke-width="1.2" points="904.3,-1190.03 901.5,-1182.03 898.7,-1190.03 904.3,-1190.03"/>
<text text-anchor="middle" x="804.5" y="-1224.6" font-family="Noto Sans CJK KR" font-size="13.00">임시저장</text>
</g>
<!-- publish_save -->
<g id="node65" class="node">
<title>publish_save</title>
<path fill="#ffffff" stroke="#6b7280" stroke-width="1.4" d="M1286,-1190C1286,-1190 998,-1190 998,-1190 992,-1190 986,-1184 986,-1178 986,-1178 986,-1150 986,-1150 986,-1144 992,-1138 998,-1138 998,-1138 1286,-1138 1286,-1138 1292,-1138 1298,-1144 1298,-1150 1298,-1150 1298,-1178 1298,-1178 1298,-1184 1292,-1190 1286,-1190"/>
<text text-anchor="middle" x="1142" y="-1169.2" font-family="Noto Sans CJK KR" font-size="16.00">이벤트 + steps + nfc_tags +</text>
<text text-anchor="middle" x="1142" y="-1151.2" font-family="Noto Sans CJK KR" font-size="16.00">nft_templates + reward_template 저장</text>
</g>
<!-- save_mode&#45;&gt;publish_save -->
<g id="edge73" class="edge">
<title>save_mode&#45;&gt;publish_save</title>
<path fill="none" stroke="#6b7280" stroke-width="1.2" d="M800.01,-1311C892.87,-1311 1029.5,-1311 1029.5,-1311 1029.5,-1311 1029.5,-1198.28 1029.5,-1198.28"/>
<polygon fill="#6b7280" stroke="#6b7280" stroke-width="1.2" points="1032.3,-1198.28 1029.5,-1190.28 1026.7,-1198.28 1032.3,-1198.28"/>
<text text-anchor="middle" x="1070" y="-1224.6" font-family="Noto Sans CJK KR" font-size="13.00">등록 / 게시</text>
</g>
<!-- publish_ok -->
<g id="node8" class="node">
<title>publish_ok</title>
<path fill="#fff7ed" stroke="#f59e0b" stroke-width="1.4" d="M730.66,-1058.07C730.66,-1058.07 655.34,-1031.93 655.34,-1031.93 649.67,-1029.97 649.67,-1026.03 655.34,-1024.07 655.34,-1024.07 730.66,-997.93 730.66,-997.93 736.33,-995.97 747.67,-995.97 753.34,-997.93 753.34,-997.93 828.66,-1024.07 828.66,-1024.07 834.33,-1026.03 834.33,-1029.97 828.66,-1031.93 828.66,-1031.93 753.34,-1058.07 753.34,-1058.07 747.67,-1060.03 736.33,-1060.03 730.66,-1058.07"/>
<text text-anchor="middle" x="742" y="-1024.2" font-family="Noto Sans CJK KR" font-size="16.00">게시 성공?</text>
</g>
<!-- publish_fail -->
<g id="node66" class="node">
<title>publish_fail</title>
<path fill="#fee2e2" stroke="#ef4444" stroke-width="1.4" d="M1260,-918C1260,-918 1074,-918 1074,-918 1068,-918 1062,-912 1062,-906 1062,-906 1062,-894 1062,-894 1062,-888 1068,-882 1074,-882 1074,-882 1260,-882 1260,-882 1266,-882 1272,-888 1272,-894 1272,-894 1272,-906 1272,-906 1272,-912 1266,-918 1260,-918"/>
<text text-anchor="middle" x="1167" y="-896.2" font-family="Noto Sans CJK KR" font-size="16.00">저장 실패 원인 확인 후 수정</text>
</g>
<!-- publish_ok&#45;&gt;publish_fail -->
<g id="edge75" class="edge">
<title>publish_ok&#45;&gt;publish_fail</title>
<path fill="none" stroke="#6b7280" stroke-width="1.2" d="M805.63,-1016C924.19,-1016 1167,-1016 1167,-1016 1167,-1016 1167,-926.12 1167,-926.12"/>
<polygon fill="#6b7280" stroke="#6b7280" stroke-width="1.2" points="1169.8,-926.12 1167,-918.12 1164.2,-926.13 1169.8,-926.12"/>
<text text-anchor="middle" x="1069.5" y="-952.6" font-family="Noto Sans CJK KR" font-size="13.00">아니오</text>
</g>
<!-- publish_done -->
<g id="node67" class="node">
<title>publish_done</title>
<path fill="#dcfce7" stroke="#22c55e" stroke-width="1.4" d="M983.5,-918C983.5,-918 868.5,-918 868.5,-918 862.5,-918 856.5,-912 856.5,-906 856.5,-906 856.5,-894 856.5,-894 856.5,-888 862.5,-882 868.5,-882 868.5,-882 983.5,-882 983.5,-882 989.5,-882 995.5,-888 995.5,-894 995.5,-894 995.5,-906 995.5,-906 995.5,-912 989.5,-918 983.5,-918"/>
<text text-anchor="middle" x="926" y="-896.2" font-family="Noto Sans CJK KR" font-size="16.00">이벤트 등록 완료</text>
</g>
<!-- publish_ok&#45;&gt;publish_done -->
<g id="edge77" class="edge">
<title>publish_ok&#45;&gt;publish_done</title>
<path fill="none" stroke="#6b7280" stroke-width="1.2" d="M798.75,-1013.53C798.75,-981.21 798.75,-906 798.75,-906 798.75,-906 848.42,-906 848.42,-906"/>
<polygon fill="#6b7280" stroke="#6b7280" stroke-width="1.2" points="848.42,-908.8 856.42,-906 848.42,-903.2 848.42,-908.8"/>
<text text-anchor="middle" x="816.5" y="-952.6" font-family="Noto Sans CJK KR" font-size="13.00">예</text>
</g>
<!-- more_ops -->
<g id="node9" class="node">
<title>more_ops</title>
<path fill="#fff7ed" stroke="#f59e0b" stroke-width="1.4" d="M183.18,-193.94C183.18,-193.94 11.82,-164.06 11.82,-164.06 5.91,-163.03 5.91,-160.97 11.82,-159.94 11.82,-159.94 183.18,-130.06 183.18,-130.06 189.09,-129.03 200.91,-129.03 206.82,-130.06 206.82,-130.06 378.18,-159.94 378.18,-159.94 384.09,-160.97 384.09,-163.03 378.18,-164.06 378.18,-164.06 206.82,-193.94 206.82,-193.94 200.91,-194.97 189.09,-194.97 183.18,-193.94"/>
<text text-anchor="middle" x="195" y="-158.2" font-family="Noto Sans CJK KR" font-size="16.00">추가 운영 작업이 있는가?</text>
</g>
<!-- ops_save -->
<g id="node74" class="node">
<title>ops_save</title>
<path fill="#ffffff" stroke="#6b7280" stroke-width="1.4" d="M530,-52C530,-52 430,-52 430,-52 424,-52 418,-46 418,-40 418,-40 418,-28 418,-28 418,-22 424,-16 430,-16 430,-16 530,-16 530,-16 536,-16 542,-22 542,-28 542,-28 542,-40 542,-40 542,-46 536,-52 530,-52"/>
<text text-anchor="middle" x="480" y="-30.2" font-family="Noto Sans CJK KR" font-size="16.00">재수정 후 저장</text>
</g>
<!-- more_ops&#45;&gt;ops_save -->
<g id="edge85" class="edge">
<title>more_ops&#45;&gt;ops_save</title>
<path fill="none" stroke="#6b7280" stroke-width="1.2" d="M292.68,-145C375.18,-145 480,-145 480,-145 480,-145 480,-60.33 480,-60.33"/>
<polygon fill="#6b7280" stroke="#6b7280" stroke-width="1.2" points="482.8,-60.33 480,-52.33 477.2,-60.33 482.8,-60.33"/>
<text text-anchor="middle" x="343.5" y="-86.6" font-family="Noto Sans CJK KR" font-size="13.00">있음</text>
</g>
<!-- back_list -->
<g id="node75" class="node">
<title>back_list</title>
<path fill="#ffffff" stroke="#6b7280" stroke-width="1.4" d="M745.5,-52C745.5,-52 600.5,-52 600.5,-52 594.5,-52 588.5,-46 588.5,-40 588.5,-40 588.5,-28 588.5,-28 588.5,-22 594.5,-16 600.5,-16 600.5,-16 745.5,-16 745.5,-16 751.5,-16 757.5,-22 757.5,-28 757.5,-28 757.5,-40 757.5,-40 757.5,-46 751.5,-52 745.5,-52"/>
<text text-anchor="middle" x="673" y="-30.2" font-family="Noto Sans CJK KR" font-size="16.00">이벤트 목록으로 복귀</text>
</g>
<!-- more_ops&#45;&gt;back_list -->
<g id="edge87" class="edge">
<title>more_ops&#45;&gt;back_list</title>
<path fill="none" stroke="#6b7280" stroke-width="1.2" d="M390.19,-162C491.67,-162 594.75,-162 594.75,-162 594.75,-162 594.75,-60.07 594.75,-60.07"/>
<polygon fill="#6b7280" stroke="#6b7280" stroke-width="1.2" points="597.55,-60.07 594.75,-52.07 591.95,-60.07 597.55,-60.07"/>
<text text-anchor="middle" x="540.5" y="-86.6" font-family="Noto Sans CJK KR" font-size="13.00">없음</text>
</g>
<!-- entry -->
<g id="node10" class="node">
<title>entry</title>
<path fill="#eff6ff" stroke="#3b82f6" stroke-width="1.4" d="M1387,-6897C1387,-6897 1161,-6897 1161,-6897 1155,-6897 1149,-6891 1149,-6885 1149,-6885 1149,-6873 1149,-6873 1149,-6867 1155,-6861 1161,-6861 1161,-6861 1387,-6861 1387,-6861 1393,-6861 1399,-6867 1399,-6873 1399,-6873 1399,-6885 1399,-6885 1399,-6891 1393,-6897 1387,-6897"/>
<text text-anchor="middle" x="1274" y="-6875.2" font-family="Noto Sans CJK KR" font-size="16.00">제휴사 관리자 앱 / 관리 콘솔 진입</text>
</g>
<!-- entry&#45;&gt;login_decision -->
<g id="edge1" class="edge">
<title>entry&#45;&gt;login_decision</title>
<path fill="none" stroke="#6b7280" stroke-width="1.2" d="M1274,-6860.78C1274,-6860.78 1274,-6806.35 1274,-6806.35"/>
<polygon fill="#6b7280" stroke="#6b7280" stroke-width="1.2" points="1276.8,-6806.35 1274,-6798.35 1271.2,-6806.35 1276.8,-6806.35"/>
</g>
<!-- login_action -->
<g id="node12" class="node">
<title>login_action</title>
<path fill="#f3f4f6" stroke="#6b7280" stroke-width="1.4" d="M1479,-6555C1479,-6555 1309,-6555 1309,-6555 1303,-6555 1297,-6549 1297,-6543 1297,-6543 1297,-6531 1297,-6531 1297,-6525 1303,-6519 1309,-6519 1309,-6519 1479,-6519 1479,-6519 1485,-6519 1491,-6525 1491,-6531 1491,-6531 1491,-6543 1491,-6543 1491,-6549 1485,-6555 1479,-6555"/>
<text text-anchor="middle" x="1394" y="-6533.2" font-family="Noto Sans CJK KR" font-size="16.00">이메일 / 비밀번호 로그인</text>
</g>
<!-- login_page&#45;&gt;login_action -->
<g id="edge3" class="edge">
<title>login_page&#45;&gt;login_action</title>
<path fill="none" stroke="#6b7280" stroke-width="1.2" d="M1396.75,-6617.84C1396.75,-6617.84 1396.75,-6563.04 1396.75,-6563.04"/>
<polygon fill="#6b7280" stroke="#6b7280" stroke-width="1.2" points="1399.55,-6563.04 1396.75,-6555.04 1393.95,-6563.04 1399.55,-6563.04"/>
</g>
<!-- auth_success -->
<g id="node13" class="node">
<title>auth_success</title>
<path fill="#dcfce7" stroke="#22c55e" stroke-width="1.4" d="M1403,-6456C1403,-6456 1337,-6456 1337,-6456 1331,-6456 1325,-6450 1325,-6444 1325,-6444 1325,-6432 1325,-6432 1325,-6426 1331,-6420 1337,-6420 1337,-6420 1403,-6420 1403,-6420 1409,-6420 1415,-6426 1415,-6432 1415,-6432 1415,-6444 1415,-6444 1415,-6450 1409,-6456 1403,-6456"/>
<text text-anchor="middle" x="1370" y="-6434.2" font-family="Noto Sans CJK KR" font-size="16.00">인증 성공</text>
</g>
<!-- login_action&#45;&gt;auth_success -->
<g id="edge4" class="edge">
<title>login_action&#45;&gt;auth_success</title>
<path fill="none" stroke="#6b7280" stroke-width="1.2" d="M1370,-6518.84C1370,-6518.84 1370,-6464.04 1370,-6464.04"/>
<polygon fill="#6b7280" stroke="#6b7280" stroke-width="1.2" points="1372.8,-6464.04 1370,-6456.04 1367.2,-6464.04 1372.8,-6464.04"/>
</g>
<!-- auth_success&#45;&gt;dashboard -->
<g id="edge5" class="edge">
<title>auth_success&#45;&gt;dashboard</title>
<path fill="none" stroke="#6b7280" stroke-width="1.2" d="M1352.25,-6419.84C1352.25,-6419.84 1352.25,-6365.04 1352.25,-6365.04"/>
<polygon fill="#6b7280" stroke="#6b7280" stroke-width="1.2" points="1355.05,-6365.04 1352.25,-6357.04 1349.45,-6365.04 1355.05,-6365.04"/>
</g>
<!-- event_list -->
<g id="node15" class="node">
<title>event_list</title>
<path fill="#ffffff" stroke="#6b7280" stroke-width="1.4" d="M1006.5,-6245C1006.5,-6245 823.5,-6245 823.5,-6245 817.5,-6245 811.5,-6239 811.5,-6233 811.5,-6233 811.5,-6221 811.5,-6221 811.5,-6215 817.5,-6209 823.5,-6209 823.5,-6209 1006.5,-6209 1006.5,-6209 1012.5,-6209 1018.5,-6215 1018.5,-6221 1018.5,-6221 1018.5,-6233 1018.5,-6233 1018.5,-6239 1012.5,-6245 1006.5,-6245"/>
<text text-anchor="middle" x="915" y="-6223.2" font-family="Noto Sans CJK KR" font-size="16.00">내 제휴사 이벤트 목록 조회</text>
</g>
<!-- dashboard&#45;&gt;event_list -->
<g id="edge7" class="edge">
<title>dashboard&#45;&gt;event_list</title>
<path fill="none" stroke="#6b7280" stroke-width="1.2" d="M1148.27,-6333C1046.68,-6333 915,-6333 915,-6333 915,-6333 915,-6253.46 915,-6253.46"/>
<polygon fill="#6b7280" stroke="#6b7280" stroke-width="1.2" points="917.8,-6253.46 915,-6245.46 912.2,-6253.46 917.8,-6253.46"/>
</g>
<!-- new_event -->
<g id="node16" class="node">
<title>new_event</title>
<path fill="#ffffff" stroke="#6b7280" stroke-width="1.4" d="M1439.5,-6178C1439.5,-6178 1324.5,-6178 1324.5,-6178 1318.5,-6178 1312.5,-6172 1312.5,-6166 1312.5,-6166 1312.5,-6154 1312.5,-6154 1312.5,-6148 1318.5,-6142 1324.5,-6142 1324.5,-6142 1439.5,-6142 1439.5,-6142 1445.5,-6142 1451.5,-6148 1451.5,-6154 1451.5,-6154 1451.5,-6166 1451.5,-6166 1451.5,-6172 1445.5,-6178 1439.5,-6178"/>
<text text-anchor="middle" x="1382" y="-6156.2" font-family="Noto Sans CJK KR" font-size="16.00">신규 이벤트 등록</text>
</g>
<!-- dashboard&#45;&gt;new_event -->
<g id="edge8" class="edge">
<title>dashboard&#45;&gt;new_event</title>
<path fill="none" stroke="#6b7280" stroke-width="1.2" d="M1217.75,-6320.85C1217.75,-6275.34 1217.75,-6160 1217.75,-6160 1217.75,-6160 1304.34,-6160 1304.34,-6160"/>
<polygon fill="#6b7280" stroke="#6b7280" stroke-width="1.2" points="1304.34,-6162.8 1312.34,-6160 1304.34,-6157.2 1304.34,-6162.8"/>
</g>
<!-- edit_event -->
<g id="node17" class="node">
<title>edit_event</title>
<path fill="#ffffff" stroke="#6b7280" stroke-width="1.4" d="M1185.5,-6245C1185.5,-6245 1070.5,-6245 1070.5,-6245 1064.5,-6245 1058.5,-6239 1058.5,-6233 1058.5,-6233 1058.5,-6221 1058.5,-6221 1058.5,-6215 1064.5,-6209 1070.5,-6209 1070.5,-6209 1185.5,-6209 1185.5,-6209 1191.5,-6209 1197.5,-6215 1197.5,-6221 1197.5,-6221 1197.5,-6233 1197.5,-6233 1197.5,-6239 1191.5,-6245 1185.5,-6245"/>
<text text-anchor="middle" x="1128" y="-6223.2" font-family="Noto Sans CJK KR" font-size="16.00">기존 이벤트 수정</text>
</g>
<!-- dashboard&#45;&gt;edit_event -->
<g id="edge9" class="edge">
<title>dashboard&#45;&gt;edit_event</title>
<path fill="none" stroke="#6b7280" stroke-width="1.2" d="M1173,-6320.51C1173,-6320.51 1173,-6253.15 1173,-6253.15"/>
<polygon fill="#6b7280" stroke="#6b7280" stroke-width="1.2" points="1175.8,-6253.15 1173,-6245.15 1170.2,-6253.15 1175.8,-6253.15"/>
</g>
<!-- status_check -->
<g id="node18" class="node">
<title>status_check</title>
<path fill="#ffffff" stroke="#6b7280" stroke-width="1.4" d="M1442,-6245C1442,-6245 1250,-6245 1250,-6245 1244,-6245 1238,-6239 1238,-6233 1238,-6233 1238,-6221 1238,-6221 1238,-6215 1244,-6209 1250,-6209 1250,-6209 1442,-6209 1442,-6209 1448,-6209 1454,-6215 1454,-6221 1454,-6221 1454,-6233 1454,-6233 1454,-6239 1448,-6245 1442,-6245"/>
<text text-anchor="middle" x="1346" y="-6223.2" font-family="Noto Sans CJK KR" font-size="16.00">이벤트 상태 / 노출 현황 확인</text>
</g>
<!-- dashboard&#45;&gt;status_check -->
<g id="edge10" class="edge">
<title>dashboard&#45;&gt;status_check</title>
<path fill="none" stroke="#6b7280" stroke-width="1.2" d="M1308.75,-6320.51C1308.75,-6320.51 1308.75,-6253.15 1308.75,-6253.15"/>
<polygon fill="#6b7280" stroke="#6b7280" stroke-width="1.2" points="1311.55,-6253.15 1308.75,-6245.15 1305.95,-6253.15 1311.55,-6253.15"/>
</g>
<!-- create_form -->
<g id="node19" class="node">
<title>create_form</title>
<path fill="#f3f4f6" stroke="#6b7280" stroke-width="1.4" d="M1449,-6012C1449,-6012 1315,-6012 1315,-6012 1309,-6012 1303,-6006 1303,-6000 1303,-6000 1303,-5988 1303,-5988 1303,-5982 1309,-5976 1315,-5976 1315,-5976 1449,-5976 1449,-5976 1455,-5976 1461,-5982 1461,-5988 1461,-5988 1461,-6000 1461,-6000 1461,-6006 1455,-6012 1449,-6012"/>
<text text-anchor="middle" x="1382" y="-5990.2" font-family="Noto Sans CJK KR" font-size="16.00">이벤트 생성 폼 시작</text>
</g>
<!-- new_event&#45;&gt;create_form -->
<g id="edge11" class="edge">
<title>new_event&#45;&gt;create_form</title>
<path fill="none" stroke="#6b7280" stroke-width="1.2" d="M1382,-6141.92C1382,-6141.92 1382,-6020.06 1382,-6020.06"/>
<polygon fill="#6b7280" stroke="#6b7280" stroke-width="1.2" points="1384.8,-6020.06 1382,-6012.06 1379.2,-6020.06 1384.8,-6020.06"/>
</g>
<!-- load_existing -->
<g id="node20" class="node">
<title>load_existing</title>
<path fill="#f3f4f6" stroke="#6b7280" stroke-width="1.4" d="M1254.5,-6111C1254.5,-6111 1109.5,-6111 1109.5,-6111 1103.5,-6111 1097.5,-6105 1097.5,-6099 1097.5,-6099 1097.5,-6087 1097.5,-6087 1097.5,-6081 1103.5,-6075 1109.5,-6075 1109.5,-6075 1254.5,-6075 1254.5,-6075 1260.5,-6075 1266.5,-6081 1266.5,-6087 1266.5,-6087 1266.5,-6099 1266.5,-6099 1266.5,-6105 1260.5,-6111 1254.5,-6111"/>
<text text-anchor="middle" x="1182" y="-6089.2" font-family="Noto Sans CJK KR" font-size="16.00">기존 이벤트 불러오기</text>
</g>
<!-- edit_event&#45;&gt;load_existing -->
<g id="edge12" class="edge">
<title>edit_event&#45;&gt;load_existing</title>
<path fill="none" stroke="#6b7280" stroke-width="1.2" d="M1147.5,-6208.93C1147.5,-6208.93 1147.5,-6119.21 1147.5,-6119.21"/>
<polygon fill="#6b7280" stroke="#6b7280" stroke-width="1.2" points="1150.3,-6119.21 1147.5,-6111.21 1144.7,-6119.21 1150.3,-6119.21"/>
</g>
<!-- base_form -->
<g id="node21" class="node">
<title>base_form</title>
<path fill="#ffffff" stroke="#6b7280" stroke-width="1.4" d="M1432,-5900C1432,-5900 1332,-5900 1332,-5900 1326,-5900 1320,-5894 1320,-5888 1320,-5888 1320,-5876 1320,-5876 1320,-5870 1326,-5864 1332,-5864 1332,-5864 1432,-5864 1432,-5864 1438,-5864 1444,-5870 1444,-5876 1444,-5876 1444,-5888 1444,-5888 1444,-5894 1438,-5900 1432,-5900"/>
<text text-anchor="middle" x="1382" y="-5878.2" font-family="Noto Sans CJK KR" font-size="16.00">기본 정보 입력</text>
</g>
<!-- create_form&#45;&gt;base_form -->
<g id="edge14" class="edge">
<title>create_form&#45;&gt;base_form</title>
<path fill="none" stroke="#6b7280" stroke-width="1.2" d="M1382,-5975.51C1382,-5975.51 1382,-5908.15 1382,-5908.15"/>
<polygon fill="#6b7280" stroke="#6b7280" stroke-width="1.2" points="1384.8,-5908.15 1382,-5900.15 1379.2,-5908.15 1384.8,-5908.15"/>
</g>
<!-- load_existing&#45;&gt;create_form -->
<g id="edge13" class="edge">
<title>load_existing&#45;&gt;create_form</title>
<path fill="none" stroke="#6b7280" stroke-width="1.2" d="M1266.57,-6093C1289.32,-6093 1307.75,-6093 1307.75,-6093 1307.75,-6093 1307.75,-6020.16 1307.75,-6020.16"/>
<polygon fill="#6b7280" stroke="#6b7280" stroke-width="1.2" points="1310.55,-6020.16 1307.75,-6012.16 1304.95,-6020.16 1310.55,-6020.16"/>
</g>
<!-- slug_input -->
<g id="node22" class="node">
<title>slug_input</title>
<path fill="#ffffff" stroke="#6b7280" stroke-width="1.4" d="M1375.5,-5801C1375.5,-5801 1290.5,-5801 1290.5,-5801 1284.5,-5801 1278.5,-5795 1278.5,-5789 1278.5,-5789 1278.5,-5777 1278.5,-5777 1278.5,-5771 1284.5,-5765 1290.5,-5765 1290.5,-5765 1375.5,-5765 1375.5,-5765 1381.5,-5765 1387.5,-5771 1387.5,-5777 1387.5,-5777 1387.5,-5789 1387.5,-5789 1387.5,-5795 1381.5,-5801 1375.5,-5801"/>
<text text-anchor="middle" x="1333" y="-5779.2" font-family="Noto Sans CJK KR" font-size="16.00">id slug 입력</text>
</g>
<!-- base_form&#45;&gt;slug_input -->
<g id="edge15" class="edge">
<title>base_form&#45;&gt;slug_input</title>
<path fill="none" stroke="#6b7280" stroke-width="1.2" d="M1353.75,-5863.84C1353.75,-5863.84 1353.75,-5809.04 1353.75,-5809.04"/>
<polygon fill="#6b7280" stroke="#6b7280" stroke-width="1.2" points="1356.55,-5809.04 1353.75,-5801.04 1350.95,-5809.04 1356.55,-5809.04"/>
</g>
<!-- title_input -->
<g id="node23" class="node">
<title>title_input</title>
<path fill="#ffffff" stroke="#6b7280" stroke-width="1.4" d="M1386.5,-5702C1386.5,-5702 1203.5,-5702 1203.5,-5702 1197.5,-5702 1191.5,-5696 1191.5,-5690 1191.5,-5690 1191.5,-5678 1191.5,-5678 1191.5,-5672 1197.5,-5666 1203.5,-5666 1203.5,-5666 1386.5,-5666 1386.5,-5666 1392.5,-5666 1398.5,-5672 1398.5,-5678 1398.5,-5678 1398.5,-5690 1398.5,-5690 1398.5,-5696 1392.5,-5702 1386.5,-5702"/>
<text text-anchor="middle" x="1295" y="-5680.2" font-family="Noto Sans CJK KR" font-size="16.00">이벤트명 / 도시 / 국가 입력</text>
</g>
<!-- slug_input&#45;&gt;title_input -->
<g id="edge16" class="edge">
<title>slug_input&#45;&gt;title_input</title>
<path fill="none" stroke="#6b7280" stroke-width="1.2" d="M1333,-5764.84C1333,-5764.84 1333,-5710.04 1333,-5710.04"/>
<polygon fill="#6b7280" stroke="#6b7280" stroke-width="1.2" points="1335.8,-5710.04 1333,-5702.04 1330.2,-5710.04 1335.8,-5710.04"/>
</g>
<!-- date_input -->
<g id="node24" class="node">
<title>date_input</title>
<path fill="#ffffff" stroke="#6b7280" stroke-width="1.4" d="M1358,-5603C1358,-5603 1218,-5603 1218,-5603 1212,-5603 1206,-5597 1206,-5591 1206,-5591 1206,-5579 1206,-5579 1206,-5573 1212,-5567 1218,-5567 1218,-5567 1358,-5567 1358,-5567 1364,-5567 1370,-5573 1370,-5579 1370,-5579 1370,-5591 1370,-5591 1370,-5597 1364,-5603 1358,-5603"/>
<text text-anchor="middle" x="1288" y="-5581.2" font-family="Noto Sans CJK KR" font-size="16.00">시작일 / 종료일 입력</text>
</g>
<!-- title_input&#45;&gt;date_input -->
<g id="edge17" class="edge">
<title>title_input&#45;&gt;date_input</title>
<path fill="none" stroke="#6b7280" stroke-width="1.2" d="M1288,-5665.84C1288,-5665.84 1288,-5611.04 1288,-5611.04"/>
<polygon fill="#6b7280" stroke="#6b7280" stroke-width="1.2" points="1290.8,-5611.04 1288,-5603.04 1285.2,-5611.04 1290.8,-5611.04"/>
</g>
<!-- desc_input -->
<g id="node25" class="node">
<title>desc_input</title>
<path fill="#ffffff" stroke="#6b7280" stroke-width="1.4" d="M1326,-5504C1326,-5504 1226,-5504 1226,-5504 1220,-5504 1214,-5498 1214,-5492 1214,-5492 1214,-5480 1214,-5480 1214,-5474 1220,-5468 1226,-5468 1226,-5468 1326,-5468 1326,-5468 1332,-5468 1338,-5474 1338,-5480 1338,-5480 1338,-5492 1338,-5492 1338,-5498 1332,-5504 1326,-5504"/>
<text text-anchor="middle" x="1276" y="-5482.2" font-family="Noto Sans CJK KR" font-size="16.00">설명 문구 입력</text>
</g>
<!-- date_input&#45;&gt;desc_input -->
<g id="edge18" class="edge">
<title>date_input&#45;&gt;desc_input</title>
<path fill="none" stroke="#6b7280" stroke-width="1.2" d="M1276,-5566.84C1276,-5566.84 1276,-5512.04 1276,-5512.04"/>
<polygon fill="#6b7280" stroke="#6b7280" stroke-width="1.2" points="1278.8,-5512.04 1276,-5504.04 1273.2,-5512.04 1278.8,-5512.04"/>
</g>
<!-- partner_input -->
<g id="node26" class="node">
<title>partner_input</title>
<path fill="#ffffff" stroke="#6b7280" stroke-width="1.4" d="M1369,-5405C1369,-5405 1171,-5405 1171,-5405 1165,-5405 1159,-5399 1159,-5393 1159,-5393 1159,-5381 1159,-5381 1159,-5375 1165,-5369 1171,-5369 1171,-5369 1369,-5369 1369,-5369 1375,-5369 1381,-5375 1381,-5381 1381,-5381 1381,-5393 1381,-5393 1381,-5399 1375,-5405 1369,-5405"/>
<text text-anchor="middle" x="1270" y="-5383.2" font-family="Noto Sans CJK KR" font-size="16.00">제휴사명 / 로고 / 테마색 입력</text>
</g>
<!-- desc_input&#45;&gt;partner_input -->
<g id="edge19" class="edge">
<title>desc_input&#45;&gt;partner_input</title>
<path fill="none" stroke="#6b7280" stroke-width="1.2" d="M1276,-5467.84C1276,-5467.84 1276,-5413.04 1276,-5413.04"/>
<polygon fill="#6b7280" stroke="#6b7280" stroke-width="1.2" points="1278.8,-5413.04 1276,-5405.04 1273.2,-5413.04 1278.8,-5413.04"/>
</g>
<!-- image_input -->
<g id="node27" class="node">
<title>image_input</title>
<path fill="#ffffff" stroke="#6b7280" stroke-width="1.4" d="M1390.5,-5306C1390.5,-5306 1105.5,-5306 1105.5,-5306 1099.5,-5306 1093.5,-5300 1093.5,-5294 1093.5,-5294 1093.5,-5282 1093.5,-5282 1093.5,-5276 1099.5,-5270 1105.5,-5270 1105.5,-5270 1390.5,-5270 1390.5,-5270 1396.5,-5270 1402.5,-5276 1402.5,-5282 1402.5,-5282 1402.5,-5294 1402.5,-5294 1402.5,-5300 1396.5,-5306 1390.5,-5306"/>
<text text-anchor="middle" x="1248" y="-5284.2" font-family="Noto Sans CJK KR" font-size="16.00">대표 이미지 / 대체 이미지 / 맵 이미지 입력</text>
</g>
<!-- partner_input&#45;&gt;image_input -->
<g id="edge20" class="edge">
<title>partner_input&#45;&gt;image_input</title>
<path fill="none" stroke="#6b7280" stroke-width="1.2" d="M1270,-5368.84C1270,-5368.84 1270,-5314.04 1270,-5314.04"/>
<polygon fill="#6b7280" stroke="#6b7280" stroke-width="1.2" points="1272.8,-5314.04 1270,-5306.04 1267.2,-5314.04 1272.8,-5314.04"/>
</g>
<!-- status_input -->
<g id="node28" class="node">
<title>status_input</title>
<path fill="#ffffff" stroke="#6b7280" stroke-width="1.4" d="M1310,-5207C1310,-5207 1118,-5207 1118,-5207 1112,-5207 1106,-5201 1106,-5195 1106,-5195 1106,-5183 1106,-5183 1106,-5177 1112,-5171 1118,-5171 1118,-5171 1310,-5171 1310,-5171 1316,-5171 1322,-5177 1322,-5183 1322,-5183 1322,-5195 1322,-5195 1322,-5201 1316,-5207 1310,-5207"/>
<text text-anchor="middle" x="1214" y="-5185.2" font-family="Noto Sans CJK KR" font-size="16.00">status / featured 여부 설정</text>
</g>
<!-- image_input&#45;&gt;status_input -->
<g id="edge21" class="edge">
<title>image_input&#45;&gt;status_input</title>
<path fill="none" stroke="#6b7280" stroke-width="1.2" d="M1214,-5269.84C1214,-5269.84 1214,-5215.04 1214,-5215.04"/>
<polygon fill="#6b7280" stroke="#6b7280" stroke-width="1.2" points="1216.8,-5215.04 1214,-5207.04 1211.2,-5215.04 1216.8,-5215.04"/>
</g>
<!-- status_input&#45;&gt;base_valid -->
<g id="edge22" class="edge">
<title>status_input&#45;&gt;base_valid</title>
<path fill="none" stroke="#6b7280" stroke-width="1.2" d="M1105.78,-5189C1084.32,-5189 1068.25,-5189 1068.25,-5189 1068.25,-5189 1068.25,-5084.4 1068.25,-5084.4"/>
<polygon fill="#6b7280" stroke="#6b7280" stroke-width="1.2" points="1071.05,-5084.4 1068.25,-5076.4 1065.45,-5084.4 1071.05,-5084.4"/>
</g>
<!-- base_fix&#45;&gt;base_form -->
<g id="edge24" class="edge">
<title>base_fix&#45;&gt;base_form</title>
<path fill="none" stroke="#6b7280" stroke-width="1.2" d="M1399.72,-4946C1409.9,-4946 1416.33,-4946 1416.33,-4946 1416.33,-4946 1416.33,-5855.72 1416.33,-5855.72"/>
<polygon fill="#6b7280" stroke="#6b7280" stroke-width="1.2" points="1413.53,-5855.72 1416.33,-5863.72 1419.13,-5855.72 1413.53,-5855.72"/>
</g>
<!-- step_list -->
<g id="node31" class="node">
<title>step_list</title>
<path fill="#ffffff" stroke="#6b7280" stroke-width="1.4" d="M958,-4852C958,-4852 858,-4852 858,-4852 852,-4852 846,-4846 846,-4840 846,-4840 846,-4828 846,-4828 846,-4822 852,-4816 858,-4816 858,-4816 958,-4816 958,-4816 964,-4816 970,-4822 970,-4828 970,-4828 970,-4840 970,-4840 970,-4846 964,-4852 958,-4852"/>
<text text-anchor="middle" x="908" y="-4830.2" font-family="Noto Sans CJK KR" font-size="16.00">스텝 목록 작성</text>
</g>
<!-- next_steps&#45;&gt;step_list -->
<g id="edge26" class="edge">
<title>next_steps&#45;&gt;step_list</title>
<path fill="none" stroke="#6b7280" stroke-width="1.2" d="M908,-4927.51C908,-4927.51 908,-4860.15 908,-4860.15"/>
<polygon fill="#6b7280" stroke="#6b7280" stroke-width="1.2" points="910.8,-4860.15 908,-4852.15 905.2,-4860.15 910.8,-4860.15"/>
</g>
<!-- step_count -->
<g id="node32" class="node">
<title>step_count</title>
<path fill="#ffffff" stroke="#6b7280" stroke-width="1.4" d="M959,-4753C959,-4753 857,-4753 857,-4753 851,-4753 845,-4747 845,-4741 845,-4741 845,-4729 845,-4729 845,-4723 851,-4717 857,-4717 857,-4717 959,-4717 959,-4717 965,-4717 971,-4723 971,-4729 971,-4729 971,-4741 971,-4741 971,-4747 965,-4753 959,-4753"/>
<text text-anchor="middle" x="908" y="-4731.2" font-family="Noto Sans CJK KR" font-size="16.00">step 개수 추가</text>
</g>
<!-- step_list&#45;&gt;step_count -->
<g id="edge27" class="edge">
<title>step_list&#45;&gt;step_count</title>
<path fill="none" stroke="#6b7280" stroke-width="1.2" d="M908,-4815.84C908,-4815.84 908,-4761.04 908,-4761.04"/>
<polygon fill="#6b7280" stroke="#6b7280" stroke-width="1.2" points="910.8,-4761.04 908,-4753.04 905.2,-4761.04 910.8,-4761.04"/>
</g>
<!-- step_order -->
<g id="node33" class="node">
<title>step_order</title>
<path fill="#ffffff" stroke="#6b7280" stroke-width="1.4" d="M991.5,-4654C991.5,-4654 824.5,-4654 824.5,-4654 818.5,-4654 812.5,-4648 812.5,-4642 812.5,-4642 812.5,-4630 812.5,-4630 812.5,-4624 818.5,-4618 824.5,-4618 824.5,-4618 991.5,-4618 991.5,-4618 997.5,-4618 1003.5,-4624 1003.5,-4630 1003.5,-4630 1003.5,-4642 1003.5,-4642 1003.5,-4648 997.5,-4654 991.5,-4654"/>
<text text-anchor="middle" x="908" y="-4632.2" font-family="Noto Sans CJK KR" font-size="16.00">순서별 orderIndex 지정</text>
</g>
<!-- step_count&#45;&gt;step_order -->
<g id="edge28" class="edge">
<title>step_count&#45;&gt;step_order</title>
<path fill="none" stroke="#6b7280" stroke-width="1.2" d="M908,-4716.84C908,-4716.84 908,-4662.04 908,-4662.04"/>
<polygon fill="#6b7280" stroke="#6b7280" stroke-width="1.2" points="910.8,-4662.04 908,-4654.04 905.2,-4662.04 910.8,-4662.04"/>
</g>
<!-- place_name -->
<g id="node34" class="node">
<title>place_name</title>
<path fill="#ffffff" stroke="#6b7280" stroke-width="1.4" d="M992.5,-4555C992.5,-4555 823.5,-4555 823.5,-4555 817.5,-4555 811.5,-4549 811.5,-4543 811.5,-4543 811.5,-4531 811.5,-4531 811.5,-4525 817.5,-4519 823.5,-4519 823.5,-4519 992.5,-4519 992.5,-4519 998.5,-4519 1004.5,-4525 1004.5,-4531 1004.5,-4531 1004.5,-4543 1004.5,-4543 1004.5,-4549 998.5,-4555 992.5,-4555"/>
<text text-anchor="middle" x="908" y="-4533.2" font-family="Noto Sans CJK KR" font-size="16.00">장소명 placeName 입력</text>
</g>
<!-- step_order&#45;&gt;place_name -->
<g id="edge29" class="edge">
<title>step_order&#45;&gt;place_name</title>
<path fill="none" stroke="#6b7280" stroke-width="1.2" d="M908,-4617.84C908,-4617.84 908,-4563.04 908,-4563.04"/>
<polygon fill="#6b7280" stroke="#6b7280" stroke-width="1.2" points="910.8,-4563.04 908,-4555.04 905.2,-4563.04 910.8,-4563.04"/>
</g>
<!-- place_desc -->
<g id="node35" class="node">
<title>place_desc</title>
<path fill="#ffffff" stroke="#6b7280" stroke-width="1.4" d="M1022,-4456C1022,-4456 792,-4456 792,-4456 786,-4456 780,-4450 780,-4444 780,-4444 780,-4432 780,-4432 780,-4426 786,-4420 792,-4420 792,-4420 1022,-4420 1022,-4420 1028,-4420 1034,-4426 1034,-4432 1034,-4432 1034,-4444 1034,-4444 1034,-4450 1028,-4456 1022,-4456"/>
<text text-anchor="middle" x="907" y="-4434.2" font-family="Noto Sans CJK KR" font-size="16.00">장소 설명 placeDescription 입력</text>
</g>
<!-- place_name&#45;&gt;place_desc -->
<g id="edge30" class="edge">
<title>place_name&#45;&gt;place_desc</title>
<path fill="none" stroke="#6b7280" stroke-width="1.2" d="M908,-4518.84C908,-4518.84 908,-4464.04 908,-4464.04"/>
<polygon fill="#6b7280" stroke="#6b7280" stroke-width="1.2" points="910.8,-4464.04 908,-4456.04 905.2,-4464.04 910.8,-4464.04"/>
</g>
<!-- place_img -->
<g id="node36" class="node">
<title>place_img</title>
<path fill="#ffffff" stroke="#6b7280" stroke-width="1.4" d="M1011.5,-4357C1011.5,-4357 804.5,-4357 804.5,-4357 798.5,-4357 792.5,-4351 792.5,-4345 792.5,-4345 792.5,-4333 792.5,-4333 792.5,-4327 798.5,-4321 804.5,-4321 804.5,-4321 1011.5,-4321 1011.5,-4321 1017.5,-4321 1023.5,-4327 1023.5,-4333 1023.5,-4333 1023.5,-4345 1023.5,-4345 1023.5,-4351 1017.5,-4357 1011.5,-4357"/>
<text text-anchor="middle" x="908" y="-4335.2" font-family="Noto Sans CJK KR" font-size="16.00">장소 이미지 / 대체 이미지 입력</text>
</g>
<!-- place_desc&#45;&gt;place_img -->
<g id="edge31" class="edge">
<title>place_desc&#45;&gt;place_img</title>
<path fill="none" stroke="#6b7280" stroke-width="1.2" d="M908,-4419.84C908,-4419.84 908,-4365.04 908,-4365.04"/>
<polygon fill="#6b7280" stroke="#6b7280" stroke-width="1.2" points="910.8,-4365.04 908,-4357.04 905.2,-4365.04 910.8,-4365.04"/>
</g>
<!-- place_geo -->
<g id="node37" class="node">
<title>place_geo</title>
<path fill="#ffffff" stroke="#6b7280" stroke-width="1.4" d="M1006,-4258C1006,-4258 812,-4258 812,-4258 806,-4258 800,-4252 800,-4246 800,-4246 800,-4234 800,-4234 800,-4228 806,-4222 812,-4222 812,-4222 1006,-4222 1006,-4222 1012,-4222 1018,-4228 1018,-4234 1018,-4234 1018,-4246 1018,-4246 1018,-4252 1012,-4258 1006,-4258"/>
<text text-anchor="middle" x="909" y="-4236.2" font-family="Noto Sans CJK KR" font-size="16.00">위치 좌표 lat / lng 입력 선택</text>
</g>
<!-- place_img&#45;&gt;place_geo -->
<g id="edge32" class="edge">
<title>place_img&#45;&gt;place_geo</title>
<path fill="none" stroke="#6b7280" stroke-width="1.2" d="M909,-4320.84C909,-4320.84 909,-4266.04 909,-4266.04"/>
<polygon fill="#6b7280" stroke="#6b7280" stroke-width="1.2" points="911.8,-4266.04 909,-4258.04 906.2,-4266.04 911.8,-4266.04"/>
</g>
<!-- final_step -->
<g id="node38" class="node">
<title>final_step</title>
<path fill="#ffffff" stroke="#6b7280" stroke-width="1.4" d="M1021.5,-4159C1021.5,-4159 802.5,-4159 802.5,-4159 796.5,-4159 790.5,-4153 790.5,-4147 790.5,-4147 790.5,-4135 790.5,-4135 790.5,-4129 796.5,-4123 802.5,-4123 802.5,-4123 1021.5,-4123 1021.5,-4123 1027.5,-4123 1033.5,-4129 1033.5,-4135 1033.5,-4135 1033.5,-4147 1033.5,-4147 1033.5,-4153 1027.5,-4159 1021.5,-4159"/>
<text text-anchor="middle" x="912" y="-4137.2" font-family="Noto Sans CJK KR" font-size="16.00">마지막 스텝 여부 finalStep 지정</text>
</g>
<!-- place_geo&#45;&gt;final_step -->
<g id="edge33" class="edge">
<title>place_geo&#45;&gt;final_step</title>
<path fill="none" stroke="#6b7280" stroke-width="1.2" d="M909,-4221.84C909,-4221.84 909,-4167.04 909,-4167.04"/>
<polygon fill="#6b7280" stroke="#6b7280" stroke-width="1.2" points="911.8,-4167.04 909,-4159.04 906.2,-4167.04 911.8,-4167.04"/>
</g>
<!-- final_step&#45;&gt;step_valid -->
<g id="edge34" class="edge">
<title>final_step&#45;&gt;step_valid</title>
<path fill="none" stroke="#6b7280" stroke-width="1.2" d="M1033.51,-4141C1053.94,-4141 1068.67,-4141 1068.67,-4141 1068.67,-4141 1068.67,-4038.09 1068.67,-4038.09"/>
<polygon fill="#6b7280" stroke="#6b7280" stroke-width="1.2" points="1071.47,-4038.09 1068.67,-4030.09 1065.87,-4038.09 1071.47,-4038.09"/>
</g>
<!-- step_fix&#45;&gt;step_list -->
<g id="edge36" class="edge">
<title>step_fix&#45;&gt;step_list</title>
<path fill="none" stroke="#6b7280" stroke-width="1.2" d="M764,-3916.28C764,-4046.94 764,-4834 764,-4834 764,-4834 837.68,-4834 837.68,-4834"/>
<polygon fill="#6b7280" stroke="#6b7280" stroke-width="1.2" points="837.68,-4836.8 845.68,-4834 837.68,-4831.2 837.68,-4836.8"/>
</g>
<!-- nfc_group -->
<g id="node41" class="node">
<title>nfc_group</title>
<path fill="#ffffff" stroke="#6b7280" stroke-width="1.4" d="M1286,-3804C1286,-3804 1108,-3804 1108,-3804 1102,-3804 1096,-3798 1096,-3792 1096,-3792 1096,-3780 1096,-3780 1096,-3774 1102,-3768 1108,-3768 1108,-3768 1286,-3768 1286,-3768 1292,-3768 1298,-3774 1298,-3780 1298,-3780 1298,-3792 1298,-3792 1298,-3798 1292,-3804 1286,-3804"/>
<text text-anchor="middle" x="1197" y="-3782.2" font-family="Noto Sans CJK KR" font-size="16.00">각 스텝별 NFC / NFT 설정</text>
</g>
<!-- next_nfc&#45;&gt;nfc_group -->
<g id="edge38" class="edge">
<title>next_nfc&#45;&gt;nfc_group</title>
<path fill="none" stroke="#6b7280" stroke-width="1.2" d="M1202,-3879.51C1202,-3879.51 1202,-3812.15 1202,-3812.15"/>
<polygon fill="#6b7280" stroke="#6b7280" stroke-width="1.2" points="1204.8,-3812.15 1202,-3804.15 1199.2,-3812.15 1204.8,-3812.15"/>
</g>
<!-- tag_uid -->
<g id="node42" class="node">
<title>tag_uid</title>
<path fill="#ffffff" stroke="#6b7280" stroke-width="1.4" d="M1227.5,-3705C1227.5,-3705 1052.5,-3705 1052.5,-3705 1046.5,-3705 1040.5,-3699 1040.5,-3693 1040.5,-3693 1040.5,-3681 1040.5,-3681 1040.5,-3675 1046.5,-3669 1052.5,-3669 1052.5,-3669 1227.5,-3669 1227.5,-3669 1233.5,-3669 1239.5,-3675 1239.5,-3681 1239.5,-3681 1239.5,-3693 1239.5,-3693 1239.5,-3699 1233.5,-3705 1227.5,-3705"/>
<text text-anchor="middle" x="1140" y="-3683.2" font-family="Noto Sans CJK KR" font-size="16.00">step 별 NFC tagUid 등록</text>
</g>
<!-- nfc_group&#45;&gt;tag_uid -->
<g id="edge39" class="edge">
<title>nfc_group&#45;&gt;tag_uid</title>
<path fill="none" stroke="#6b7280" stroke-width="1.2" d="M1167.75,-3767.84C1167.75,-3767.84 1167.75,-3713.04 1167.75,-3713.04"/>
<polygon fill="#6b7280" stroke="#6b7280" stroke-width="1.2" points="1170.55,-3713.04 1167.75,-3705.04 1164.95,-3713.04 1170.55,-3713.04"/>
</g>
<!-- tag_check -->
<g id="node43" class="node">
<title>tag_check</title>
<path fill="#ffffff" stroke="#6b7280" stroke-width="1.4" d="M1214.5,-3606C1214.5,-3606 1061.5,-3606 1061.5,-3606 1055.5,-3606 1049.5,-3600 1049.5,-3594 1049.5,-3594 1049.5,-3582 1049.5,-3582 1049.5,-3576 1055.5,-3570 1061.5,-3570 1061.5,-3570 1214.5,-3570 1214.5,-3570 1220.5,-3570 1226.5,-3576 1226.5,-3582 1226.5,-3582 1226.5,-3594 1226.5,-3594 1226.5,-3600 1220.5,-3606 1214.5,-3606"/>
<text text-anchor="middle" x="1138" y="-3584.2" font-family="Noto Sans CJK KR" font-size="16.00">tagUid 중복 여부 검증</text>
</g>
<!-- tag_uid&#45;&gt;tag_check -->
<g id="edge40" class="edge">
<title>tag_uid&#45;&gt;tag_check</title>
<path fill="none" stroke="#6b7280" stroke-width="1.2" d="M1138,-3668.84C1138,-3668.84 1138,-3614.04 1138,-3614.04"/>
<polygon fill="#6b7280" stroke="#6b7280" stroke-width="1.2" points="1140.8,-3614.04 1138,-3606.04 1135.2,-3614.04 1140.8,-3614.04"/>
</g>
<!-- nft_name -->
<g id="node44" class="node">
<title>nft_name</title>
<path fill="#ffffff" stroke="#6b7280" stroke-width="1.4" d="M1212.5,-3507C1212.5,-3507 1057.5,-3507 1057.5,-3507 1051.5,-3507 1045.5,-3501 1045.5,-3495 1045.5,-3495 1045.5,-3483 1045.5,-3483 1045.5,-3477 1051.5,-3471 1057.5,-3471 1057.5,-3471 1212.5,-3471 1212.5,-3471 1218.5,-3471 1224.5,-3477 1224.5,-3483 1224.5,-3483 1224.5,-3495 1224.5,-3495 1224.5,-3501 1218.5,-3507 1212.5,-3507"/>
<text text-anchor="middle" x="1135" y="-3485.2" font-family="Noto Sans CJK KR" font-size="16.00">step 별 NFT 이름 입력</text>
</g>
<!-- tag_check&#45;&gt;nft_name -->
<g id="edge41" class="edge">
<title>tag_check&#45;&gt;nft_name</title>
<path fill="none" stroke="#6b7280" stroke-width="1.2" d="M1137,-3569.84C1137,-3569.84 1137,-3515.04 1137,-3515.04"/>
<polygon fill="#6b7280" stroke="#6b7280" stroke-width="1.2" points="1139.8,-3515.04 1137,-3507.04 1134.2,-3515.04 1139.8,-3515.04"/>
</g>
<!-- nft_image -->
<g id="node45" class="node">
<title>nft_image</title>
<path fill="#ffffff" stroke="#6b7280" stroke-width="1.4" d="M1191.5,-3408C1191.5,-3408 1076.5,-3408 1076.5,-3408 1070.5,-3408 1064.5,-3402 1064.5,-3396 1064.5,-3396 1064.5,-3384 1064.5,-3384 1064.5,-3378 1070.5,-3372 1076.5,-3372 1076.5,-3372 1191.5,-3372 1191.5,-3372 1197.5,-3372 1203.5,-3378 1203.5,-3384 1203.5,-3384 1203.5,-3396 1203.5,-3396 1203.5,-3402 1197.5,-3408 1191.5,-3408"/>
<text text-anchor="middle" x="1134" y="-3386.2" font-family="Noto Sans CJK KR" font-size="16.00">NFT 이미지 입력</text>
</g>
<!-- nft_name&#45;&gt;nft_image -->
<g id="edge42" class="edge">
<title>nft_name&#45;&gt;nft_image</title>
<path fill="none" stroke="#6b7280" stroke-width="1.2" d="M1134,-3470.84C1134,-3470.84 1134,-3416.04 1134,-3416.04"/>
<polygon fill="#6b7280" stroke="#6b7280" stroke-width="1.2" points="1136.8,-3416.04 1134,-3408.04 1131.2,-3416.04 1136.8,-3416.04"/>
</g>
<!-- nft_rarity -->
<g id="node46" class="node">
<title>nft_rarity</title>
<path fill="#ffffff" stroke="#6b7280" stroke-width="1.4" d="M1233.5,-3309C1233.5,-3309 1032.5,-3309 1032.5,-3309 1026.5,-3309 1020.5,-3303 1020.5,-3297 1020.5,-3297 1020.5,-3269 1020.5,-3269 1020.5,-3263 1026.5,-3257 1032.5,-3257 1032.5,-3257 1233.5,-3257 1233.5,-3257 1239.5,-3257 1245.5,-3263 1245.5,-3269 1245.5,-3269 1245.5,-3297 1245.5,-3297 1245.5,-3303 1239.5,-3309 1233.5,-3309"/>
<text text-anchor="middle" x="1133" y="-3288.2" font-family="Noto Sans CJK KR" font-size="16.00">rarity 설정</text>
<text text-anchor="middle" x="1133" y="-3270.2" font-family="Noto Sans CJK KR" font-size="16.00">common / rare / legendary</text>
</g>
<!-- nft_image&#45;&gt;nft_rarity -->
<g id="edge43" class="edge">
<title>nft_image&#45;&gt;nft_rarity</title>
<path fill="none" stroke="#6b7280" stroke-width="1.2" d="M1134,-3371.85C1134,-3371.85 1134,-3317.28 1134,-3317.28"/>
<polygon fill="#6b7280" stroke="#6b7280" stroke-width="1.2" points="1136.8,-3317.28 1134,-3309.28 1131.2,-3317.28 1136.8,-3317.28"/>
</g>
<!-- nft_desc -->
<g id="node47" class="node">
<title>nft_desc</title>
<path fill="#ffffff" stroke="#6b7280" stroke-width="1.4" d="M1145,-3194C1145,-3194 1045,-3194 1045,-3194 1039,-3194 1033,-3188 1033,-3182 1033,-3182 1033,-3170 1033,-3170 1033,-3164 1039,-3158 1045,-3158 1045,-3158 1145,-3158 1145,-3158 1151,-3158 1157,-3164 1157,-3170 1157,-3170 1157,-3182 1157,-3182 1157,-3188 1151,-3194 1145,-3194"/>
<text text-anchor="middle" x="1095" y="-3172.2" font-family="Noto Sans CJK KR" font-size="16.00">NFT 설명 입력</text>
</g>
<!-- nft_rarity&#45;&gt;nft_desc -->
<g id="edge44" class="edge">
<title>nft_rarity&#45;&gt;nft_desc</title>
<path fill="none" stroke="#6b7280" stroke-width="1.2" d="M1095,-3256.82C1095,-3256.82 1095,-3202.2 1095,-3202.2"/>
<polygon fill="#6b7280" stroke="#6b7280" stroke-width="1.2" points="1097.8,-3202.2 1095,-3194.2 1092.2,-3202.2 1097.8,-3202.2"/>
</g>
<!-- nft_desc&#45;&gt;nfc_valid -->
<g id="edge45" class="edge">
<title>nft_desc&#45;&gt;nfc_valid</title>
<path fill="none" stroke="#6b7280" stroke-width="1.2" d="M1095,-3157.88C1095,-3128.09 1095,-3072 1095,-3072 1095,-3072 944.13,-3072 944.13,-3072"/>
<polygon fill="#6b7280" stroke="#6b7280" stroke-width="1.2" points="944.13,-3069.2 936.13,-3072 944.13,-3074.8 944.13,-3069.2"/>
</g>
<!-- nfc_fix&#45;&gt;nfc_group -->
<g id="edge47" class="edge">
<title>nfc_fix&#45;&gt;nfc_group</title>
<path fill="none" stroke="#6b7280" stroke-width="1.2" d="M1271.75,-2951.21C1271.75,-2951.21 1271.75,-3759.96 1271.75,-3759.96"/>
<polygon fill="#6b7280" stroke="#6b7280" stroke-width="1.2" points="1268.95,-3759.96 1271.75,-3767.96 1274.55,-3759.96 1268.95,-3759.96"/>
</g>
<!-- reward_form -->
<g id="node50" class="node">
<title>reward_form</title>
<path fill="#ffffff" stroke="#6b7280" stroke-width="1.4" d="M678,-2839C678,-2839 548,-2839 548,-2839 542,-2839 536,-2833 536,-2827 536,-2827 536,-2815 536,-2815 536,-2809 542,-2803 548,-2803 548,-2803 678,-2803 678,-2803 684,-2803 690,-2809 690,-2815 690,-2815 690,-2827 690,-2827 690,-2833 684,-2839 678,-2839"/>
<text text-anchor="middle" x="613" y="-2817.2" font-family="Noto Sans CJK KR" font-size="16.00">리워드 템플릿 입력</text>
</g>
<!-- next_reward&#45;&gt;reward_form -->
<g id="edge49" class="edge">
<title>next_reward&#45;&gt;reward_form</title>
<path fill="none" stroke="#6b7280" stroke-width="1.2" d="M669.25,-2914.51C669.25,-2914.51 669.25,-2847.15 669.25,-2847.15"/>
<polygon fill="#6b7280" stroke="#6b7280" stroke-width="1.2" points="672.05,-2847.15 669.25,-2839.15 666.45,-2847.15 672.05,-2847.15"/>
</g>
<!-- reward_title -->
<g id="node51" class="node">
<title>reward_title</title>
<path fill="#ffffff" stroke="#6b7280" stroke-width="1.4" d="M742.5,-2740C742.5,-2740 583.5,-2740 583.5,-2740 577.5,-2740 571.5,-2734 571.5,-2728 571.5,-2728 571.5,-2716 571.5,-2716 571.5,-2710 577.5,-2704 583.5,-2704 583.5,-2704 742.5,-2704 742.5,-2704 748.5,-2704 754.5,-2710 754.5,-2716 754.5,-2716 754.5,-2728 754.5,-2728 754.5,-2734 748.5,-2740 742.5,-2740"/>
<text text-anchor="middle" x="663" y="-2718.2" font-family="Noto Sans CJK KR" font-size="16.00">리워드 제목 / 설명 입력</text>
</g>
<!-- reward_form&#45;&gt;reward_title -->
<g id="edge50" class="edge">
<title>reward_form&#45;&gt;reward_title</title>
<path fill="none" stroke="#6b7280" stroke-width="1.2" d="M630.75,-2802.84C630.75,-2802.84 630.75,-2748.04 630.75,-2748.04"/>
<polygon fill="#6b7280" stroke="#6b7280" stroke-width="1.2" points="633.55,-2748.04 630.75,-2740.04 627.95,-2748.04 633.55,-2748.04"/>
</g>
<!-- reward_partner -->
<g id="node52" class="node">
<title>reward_partner</title>
<path fill="#ffffff" stroke="#6b7280" stroke-width="1.4" d="M771,-2641C771,-2641 577,-2641 577,-2641 571,-2641 565,-2635 565,-2629 565,-2629 565,-2601 565,-2601 565,-2595 571,-2589 577,-2589 577,-2589 771,-2589 771,-2589 777,-2589 783,-2595 783,-2601 783,-2601 783,-2629 783,-2629 783,-2635 777,-2641 771,-2641"/>
<text text-anchor="middle" x="674" y="-2620.2" font-family="Noto Sans CJK KR" font-size="16.00">제휴사명 입력</text>
<text text-anchor="middle" x="674" y="-2602.2" font-family="Noto Sans CJK KR" font-size="16.00">또는 이벤트 제휴사명 재사용</text>
</g>
<!-- reward_title&#45;&gt;reward_partner -->
<g id="edge51" class="edge">
<title>reward_title&#45;&gt;reward_partner</title>
<path fill="none" stroke="#6b7280" stroke-width="1.2" d="M663,-2703.85C663,-2703.85 663,-2649.28 663,-2649.28"/>
<polygon fill="#6b7280" stroke="#6b7280" stroke-width="1.2" points="665.8,-2649.28 663,-2641.28 660.2,-2649.28 665.8,-2649.28"/>
</g>
<!-- reward_how -->
<g id="node53" class="node">
<title>reward_how</title>
<path fill="#ffffff" stroke="#6b7280" stroke-width="1.4" d="M774,-2526C774,-2526 592,-2526 592,-2526 586,-2526 580,-2520 580,-2514 580,-2514 580,-2502 580,-2502 580,-2496 586,-2490 592,-2490 592,-2490 774,-2490 774,-2490 780,-2490 786,-2496 786,-2502 786,-2502 786,-2514 786,-2514 786,-2520 780,-2526 774,-2526"/>
<text text-anchor="middle" x="683" y="-2504.2" font-family="Noto Sans CJK KR" font-size="16.00">사용 방법 howToUse 입력</text>
</g>
<!-- reward_partner&#45;&gt;reward_how -->
<g id="edge52" class="edge">
<title>reward_partner&#45;&gt;reward_how</title>
<path fill="none" stroke="#6b7280" stroke-width="1.2" d="M681.5,-2588.82C681.5,-2588.82 681.5,-2534.2 681.5,-2534.2"/>
<polygon fill="#6b7280" stroke="#6b7280" stroke-width="1.2" points="684.3,-2534.2 681.5,-2526.2 678.7,-2534.2 684.3,-2534.2"/>
</g>
<!-- reward_days -->
<g id="node54" class="node">
<title>reward_days</title>
<path fill="#ffffff" stroke="#6b7280" stroke-width="1.4" d="M798.5,-2427C798.5,-2427 573.5,-2427 573.5,-2427 567.5,-2427 561.5,-2421 561.5,-2415 561.5,-2415 561.5,-2403 561.5,-2403 561.5,-2397 567.5,-2391 573.5,-2391 573.5,-2391 798.5,-2391 798.5,-2391 804.5,-2391 810.5,-2397 810.5,-2403 810.5,-2403 810.5,-2415 810.5,-2415 810.5,-2421 804.5,-2427 798.5,-2427"/>
<text text-anchor="middle" x="686" y="-2405.2" font-family="Noto Sans CJK KR" font-size="16.00">유효기간 일수 validityDays 입력</text>
</g>
<!-- reward_how&#45;&gt;reward_days -->
<g id="edge53" class="edge">
<title>reward_how&#45;&gt;reward_days</title>
<path fill="none" stroke="#6b7280" stroke-width="1.2" d="M683,-2489.84C683,-2489.84 683,-2435.04 683,-2435.04"/>
<polygon fill="#6b7280" stroke="#6b7280" stroke-width="1.2" points="685.8,-2435.04 683,-2427.04 680.2,-2435.04 685.8,-2435.04"/>
</g>
<!-- reward_style -->
<g id="node55" class="node">
<title>reward_style</title>
<path fill="#ffffff" stroke="#6b7280" stroke-width="1.4" d="M786,-2328C786,-2328 602,-2328 602,-2328 596,-2328 590,-2322 590,-2316 590,-2316 590,-2304 590,-2304 590,-2298 596,-2292 602,-2292 602,-2292 786,-2292 786,-2292 792,-2292 798,-2298 798,-2304 798,-2304 798,-2316 798,-2316 798,-2322 792,-2328 786,-2328"/>
<text text-anchor="middle" x="694" y="-2306.2" font-family="Noto Sans CJK KR" font-size="16.00">이모지 / accentColor 설정</text>
</g>
<!-- reward_days&#45;&gt;reward_style -->
<g id="edge54" class="edge">
<title>reward_days&#45;&gt;reward_style</title>
<path fill="none" stroke="#6b7280" stroke-width="1.2" d="M694,-2390.84C694,-2390.84 694,-2336.04 694,-2336.04"/>
<polygon fill="#6b7280" stroke="#6b7280" stroke-width="1.2" points="696.8,-2336.04 694,-2328.04 691.2,-2336.04 696.8,-2336.04"/>
</g>
<!-- reward_style&#45;&gt;reward_valid -->
<g id="edge55" class="edge">
<title>reward_style&#45;&gt;reward_valid</title>
<path fill="none" stroke="#6b7280" stroke-width="1.2" d="M784.75,-2291.78C784.75,-2259.35 784.75,-2195 784.75,-2195 784.75,-2195 818.75,-2195 818.75,-2195"/>
<polygon fill="#6b7280" stroke="#6b7280" stroke-width="1.2" points="818.75,-2197.8 826.75,-2195 818.75,-2192.2 818.75,-2197.8"/>
</g>
<!-- reward_fix&#45;&gt;reward_form -->
<g id="edge57" class="edge">
<title>reward_fix&#45;&gt;reward_form</title>
<path fill="none" stroke="#6b7280" stroke-width="1.2" d="M558.38,-2067C551.94,-2067 548,-2067 548,-2067 548,-2067 548,-2794.74 548,-2794.74"/>
<polygon fill="#6b7280" stroke="#6b7280" stroke-width="1.2" points="545.2,-2794.74 548,-2802.74 550.8,-2794.74 545.2,-2794.74"/>
</g>
<!-- user_preview -->
<g id="node58" class="node">
<title>user_preview</title>
<path fill="#ffffff" stroke="#6b7280" stroke-width="1.4" d="M1063.5,-1973C1063.5,-1973 884.5,-1973 884.5,-1973 878.5,-1973 872.5,-1967 872.5,-1961 872.5,-1961 872.5,-1949 872.5,-1949 872.5,-1943 878.5,-1937 884.5,-1937 884.5,-1937 1063.5,-1937 1063.5,-1937 1069.5,-1937 1075.5,-1943 1075.5,-1949 1075.5,-1949 1075.5,-1961 1075.5,-1961 1075.5,-1967 1069.5,-1973 1063.5,-1973"/>
<text text-anchor="middle" x="974" y="-1951.2" font-family="Noto Sans CJK KR" font-size="16.00">사용자 화면 기준 미리보기</text>
</g>
<!-- preview&#45;&gt;user_preview -->
<g id="edge59" class="edge">
<title>preview&#45;&gt;user_preview</title>
<path fill="none" stroke="#6b7280" stroke-width="1.2" d="M974,-2048.51C974,-2048.51 974,-1981.15 974,-1981.15"/>
<polygon fill="#6b7280" stroke="#6b7280" stroke-width="1.2" points="976.8,-1981.15 974,-1973.15 971.2,-1981.15 976.8,-1981.15"/>
</g>
<!-- preview_home -->
<g id="node59" class="node">
<title>preview_home</title>
<path fill="#ffffff" stroke="#6b7280" stroke-width="1.4" d="M1079.5,-1874C1079.5,-1874 868.5,-1874 868.5,-1874 862.5,-1874 856.5,-1868 856.5,-1862 856.5,-1862 856.5,-1850 856.5,-1850 856.5,-1844 862.5,-1838 868.5,-1838 868.5,-1838 1079.5,-1838 1079.5,-1838 1085.5,-1838 1091.5,-1844 1091.5,-1850 1091.5,-1850 1091.5,-1862 1091.5,-1862 1091.5,-1868 1085.5,-1874 1079.5,-1874"/>
<text text-anchor="middle" x="974" y="-1852.2" font-family="Noto Sans CJK KR" font-size="16.00">홈 카드 / 상세 페이지 문구 확인</text>
</g>
<!-- user_preview&#45;&gt;preview_home -->
<g id="edge60" class="edge">
<title>user_preview&#45;&gt;preview_home</title>
<path fill="none" stroke="#6b7280" stroke-width="1.2" d="M974,-1936.84C974,-1936.84 974,-1882.04 974,-1882.04"/>
<polygon fill="#6b7280" stroke="#6b7280" stroke-width="1.2" points="976.8,-1882.04 974,-1874.04 971.2,-1882.04 976.8,-1882.04"/>
</g>
<!-- preview_route -->
<g id="node60" class="node">
<title>preview_route</title>
<path fill="#ffffff" stroke="#6b7280" stroke-width="1.4" d="M1038,-1775C1038,-1775 908,-1775 908,-1775 902,-1775 896,-1769 896,-1763 896,-1763 896,-1751 896,-1751 896,-1745 902,-1739 908,-1739 908,-1739 1038,-1739 1038,-1739 1044,-1739 1050,-1745 1050,-1751 1050,-1751 1050,-1763 1050,-1763 1050,-1769 1044,-1775 1038,-1775"/>
<text text-anchor="middle" x="973" y="-1753.2" font-family="Noto Sans CJK KR" font-size="16.00">루트 타임라인 확인</text>
</g>
<!-- preview_home&#45;&gt;preview_route -->
<g id="edge61" class="edge">
<title>preview_home&#45;&gt;preview_route</title>
<path fill="none" stroke="#6b7280" stroke-width="1.2" d="M973,-1837.84C973,-1837.84 973,-1783.04 973,-1783.04"/>
<polygon fill="#6b7280" stroke="#6b7280" stroke-width="1.2" points="975.8,-1783.04 973,-1775.04 970.2,-1783.04 975.8,-1783.04"/>
</g>
<!-- preview_nft -->
<g id="node61" class="node">
<title>preview_nft</title>
<path fill="#ffffff" stroke="#6b7280" stroke-width="1.4" d="M1059.5,-1676C1059.5,-1676 876.5,-1676 876.5,-1676 870.5,-1676 864.5,-1670 864.5,-1664 864.5,-1664 864.5,-1652 864.5,-1652 864.5,-1646 870.5,-1640 876.5,-1640 876.5,-1640 1059.5,-1640 1059.5,-1640 1065.5,-1640 1071.5,-1646 1071.5,-1652 1071.5,-1652 1071.5,-1664 1071.5,-1664 1071.5,-1670 1065.5,-1676 1059.5,-1676"/>
<text text-anchor="middle" x="968" y="-1654.2" font-family="Noto Sans CJK KR" font-size="16.00">NFT 갤러리 노출 형태 확인</text>
</g>
<!-- preview_route&#45;&gt;preview_nft -->
<g id="edge62" class="edge">
<title>preview_route&#45;&gt;preview_nft</title>
<path fill="none" stroke="#6b7280" stroke-width="1.2" d="M973,-1738.84C973,-1738.84 973,-1684.04 973,-1684.04"/>
<polygon fill="#6b7280" stroke="#6b7280" stroke-width="1.2" points="975.8,-1684.04 973,-1676.04 970.2,-1684.04 975.8,-1684.04"/>
</g>
<!-- preview_reward -->
<g id="node62" class="node">
<title>preview_reward</title>
<path fill="#ffffff" stroke="#6b7280" stroke-width="1.4" d="M1061,-1577C1061,-1577 869,-1577 869,-1577 863,-1577 857,-1571 857,-1565 857,-1565 857,-1553 857,-1553 857,-1547 863,-1541 869,-1541 869,-1541 1061,-1541 1061,-1541 1067,-1541 1073,-1547 1073,-1553 1073,-1553 1073,-1565 1073,-1565 1073,-1571 1067,-1577 1061,-1577"/>
<text text-anchor="middle" x="965" y="-1555.2" font-family="Noto Sans CJK KR" font-size="16.00">리워드 문구 / 쿠폰 안내 확인</text>
</g>
<!-- preview_nft&#45;&gt;preview_reward -->
<g id="edge63" class="edge">
<title>preview_nft&#45;&gt;preview_reward</title>
<path fill="none" stroke="#6b7280" stroke-width="1.2" d="M968,-1639.84C968,-1639.84 968,-1585.04 968,-1585.04"/>
<polygon fill="#6b7280" stroke="#6b7280" stroke-width="1.2" points="970.8,-1585.04 968,-1577.04 965.2,-1585.04 970.8,-1585.04"/>
</g>
<!-- preview_reward&#45;&gt;need_fix -->
<g id="edge64" class="edge">
<title>preview_reward&#45;&gt;need_fix</title>
<path fill="none" stroke="#6b7280" stroke-width="1.2" d="M856.73,-1559C844.13,-1559 835.67,-1559 835.67,-1559 835.67,-1559 835.67,-1453.29 835.67,-1453.29"/>
<polygon fill="#6b7280" stroke="#6b7280" stroke-width="1.2" points="838.47,-1453.29 835.67,-1445.29 832.87,-1453.29 838.47,-1453.29"/>
</g>
<!-- back_edit&#45;&gt;base_form -->
<g id="edge66" class="edge">
<title>back_edit&#45;&gt;base_form</title>
<path fill="none" stroke="#6b7280" stroke-width="1.2" d="M1296.78,-779C1360.34,-779 1430.17,-779 1430.17,-779 1430.17,-779 1430.17,-5855.52 1430.17,-5855.52"/>
<polygon fill="#6b7280" stroke="#6b7280" stroke-width="1.2" points="1427.37,-5855.52 1430.17,-5863.52 1432.97,-5855.52 1427.37,-5855.52"/>
</g>
<!-- back_edit&#45;&gt;step_list -->
<g id="edge67" class="edge">
<title>back_edit&#45;&gt;step_list</title>
<path fill="none" stroke="#6b7280" stroke-width="1.2" d="M1296.65,-788C1343.87,-788 1389.75,-788 1389.75,-788 1389.75,-788 1389.75,-4834 1389.75,-4834 1389.75,-4834 978.49,-4834 978.49,-4834"/>
<polygon fill="#6b7280" stroke="#6b7280" stroke-width="1.2" points="978.49,-4831.2 970.49,-4834 978.49,-4836.8 978.49,-4831.2"/>
</g>
<!-- back_edit&#45;&gt;nfc_group -->
<g id="edge68" class="edge">
<title>back_edit&#45;&gt;nfc_group</title>
<path fill="none" stroke="#6b7280" stroke-width="1.2" d="M1296.57,-797C1320.4,-797 1339,-797 1339,-797 1339,-797 1339,-3786 1339,-3786 1339,-3786 1306.31,-3786 1306.31,-3786"/>
<polygon fill="#6b7280" stroke="#6b7280" stroke-width="1.2" points="1306.31,-3783.2 1298.31,-3786 1306.31,-3788.8 1306.31,-3783.2"/>
</g>
<!-- back_edit&#45;&gt;reward_form -->
<g id="edge69" class="edge">
<title>back_edit&#45;&gt;reward_form</title>
<path fill="none" stroke="#6b7280" stroke-width="1.2" d="M1153,-806.03C1153,-822.4 1153,-844 1153,-844 1153,-844 542,-844 542,-844 542,-844 542,-2795 542,-2795"/>
<polygon fill="#6b7280" stroke="#6b7280" stroke-width="1.2" points="539.2,-2795 542,-2803 544.8,-2795 539.2,-2795"/>
</g>
<!-- draft_save&#45;&gt;dashboard -->
<g id="edge72" class="edge">
<title>draft_save&#45;&gt;dashboard</title>
<path fill="none" stroke="#6b7280" stroke-width="1.2" d="M855.77,-1164C752.22,-1164 506.75,-1164 506.75,-1164 506.75,-1164 506.75,-6345 506.75,-6345 506.75,-6345 1140.17,-6345 1140.17,-6345"/>
<polygon fill="#6b7280" stroke="#6b7280" stroke-width="1.2" points="1140.17,-6347.8 1148.17,-6345 1140.17,-6342.2 1140.17,-6347.8"/>
</g>
<!-- publish_save&#45;&gt;publish_ok -->
<g id="edge74" class="edge">
<title>publish_save&#45;&gt;publish_ok</title>
<path fill="none" stroke="#6b7280" stroke-width="1.2" d="M990.75,-1137.8C990.75,-1101.14 990.75,-1039 990.75,-1039 990.75,-1039 816.33,-1039 816.33,-1039"/>
<polygon fill="#6b7280" stroke="#6b7280" stroke-width="1.2" points="816.33,-1036.2 808.33,-1039 816.33,-1041.8 816.33,-1036.2"/>
</g>
<!-- publish_fail&#45;&gt;back_edit -->
<g id="edge76" class="edge">
<title>publish_fail&#45;&gt;back_edit</title>
<path fill="none" stroke="#6b7280" stroke-width="1.2" d="M1212.5,-881.51C1212.5,-881.51 1212.5,-814.15 1212.5,-814.15"/>
<polygon fill="#6b7280" stroke="#6b7280" stroke-width="1.2" points="1215.3,-814.15 1212.5,-806.15 1209.7,-814.15 1215.3,-814.15"/>
</g>
<!-- ops_detail -->
<g id="node68" class="node">
<title>ops_detail</title>
<path fill="#ffffff" stroke="#6b7280" stroke-width="1.4" d="M638.5,-806C638.5,-806 489.5,-806 489.5,-806 483.5,-806 477.5,-800 477.5,-794 477.5,-794 477.5,-782 477.5,-782 477.5,-776 483.5,-770 489.5,-770 489.5,-770 638.5,-770 638.5,-770 644.5,-770 650.5,-776 650.5,-782 650.5,-782 650.5,-794 650.5,-794 650.5,-800 644.5,-806 638.5,-806"/>
<text text-anchor="middle" x="564" y="-784.2" font-family="Noto Sans CJK KR" font-size="16.00">이벤트 상세 운영 화면</text>
</g>
<!-- publish_done&#45;&gt;ops_detail -->
<g id="edge78" class="edge">
<title>publish_done&#45;&gt;ops_detail</title>
<path fill="none" stroke="#6b7280" stroke-width="1.2" d="M856.49,-894C765.65,-894 618,-894 618,-894 618,-894 618,-814.46 618,-814.46"/>
<polygon fill="#6b7280" stroke="#6b7280" stroke-width="1.2" points="620.8,-814.46 618,-806.46 615.2,-814.46 620.8,-814.46"/>
</g>
<!-- ops_status -->
<g id="node69" class="node">
<title>ops_status</title>
<path fill="#ffffff" stroke="#6b7280" stroke-width="1.4" d="M709.5,-707C709.5,-707 418.5,-707 418.5,-707 412.5,-707 406.5,-701 406.5,-695 406.5,-695 406.5,-667 406.5,-667 406.5,-661 412.5,-655 418.5,-655 418.5,-655 709.5,-655 709.5,-655 715.5,-655 721.5,-661 721.5,-667 721.5,-667 721.5,-695 721.5,-695 721.5,-701 715.5,-707 709.5,-707"/>
<text text-anchor="middle" x="564" y="-686.2" font-family="Noto Sans CJK KR" font-size="16.00">현재 status 확인</text>
<text text-anchor="middle" x="564" y="-668.2" font-family="Noto Sans CJK KR" font-size="16.00">upcoming / active / completed / ended</text>
</g>
<!-- ops_detail&#45;&gt;ops_status -->
<g id="edge79" class="edge">
<title>ops_detail&#45;&gt;ops_status</title>
<path fill="none" stroke="#6b7280" stroke-width="1.2" d="M564,-769.85C564,-769.85 564,-715.28 564,-715.28"/>
<polygon fill="#6b7280" stroke="#6b7280" stroke-width="1.2" points="566.8,-715.28 564,-707.28 561.2,-715.28 566.8,-715.28"/>
</g>
<!-- ops_featured -->
<g id="node70" class="node">
<title>ops_featured</title>
<path fill="#ffffff" stroke="#6b7280" stroke-width="1.4" d="M644.5,-592C644.5,-592 477.5,-592 477.5,-592 471.5,-592 465.5,-586 465.5,-580 465.5,-580 465.5,-568 465.5,-568 465.5,-562 471.5,-556 477.5,-556 477.5,-556 644.5,-556 644.5,-556 650.5,-556 656.5,-562 656.5,-568 656.5,-568 656.5,-580 656.5,-580 656.5,-586 650.5,-592 644.5,-592"/>
<text text-anchor="middle" x="561" y="-570.2" font-family="Noto Sans CJK KR" font-size="16.00">featured 노출 여부 수정</text>
</g>
<!-- ops_status&#45;&gt;ops_featured -->
<g id="edge80" class="edge">
<title>ops_status&#45;&gt;ops_featured</title>
<path fill="none" stroke="#6b7280" stroke-width="1.2" d="M561,-654.82C561,-654.82 561,-600.2 561,-600.2"/>
<polygon fill="#6b7280" stroke="#6b7280" stroke-width="1.2" points="563.8,-600.2 561,-592.2 558.2,-600.2 563.8,-600.2"/>
</g>
<!-- ops_content -->
<g id="node71" class="node">
<title>ops_content</title>
<path fill="#ffffff" stroke="#6b7280" stroke-width="1.4" d="M634,-493C634,-493 466,-493 466,-493 460,-493 454,-487 454,-481 454,-481 454,-469 454,-469 454,-463 460,-457 466,-457 466,-457 634,-457 634,-457 640,-457 646,-463 646,-469 646,-469 646,-481 646,-481 646,-487 640,-493 634,-493"/>
<text text-anchor="middle" x="550" y="-471.2" font-family="Noto Sans CJK KR" font-size="16.00">기간 / 설명 / 이미지 수정</text>
</g>
<!-- ops_featured&#45;&gt;ops_content -->
<g id="edge81" class="edge">
<title>ops_featured&#45;&gt;ops_content</title>
<path fill="none" stroke="#6b7280" stroke-width="1.2" d="M555.75,-555.84C555.75,-555.84 555.75,-501.04 555.75,-501.04"/>
<polygon fill="#6b7280" stroke="#6b7280" stroke-width="1.2" points="558.55,-501.04 555.75,-493.04 552.95,-501.04 558.55,-501.04"/>
</g>
<!-- ops_config -->
<g id="node72" class="node">
<title>ops_config</title>
<path fill="#ffffff" stroke="#6b7280" stroke-width="1.4" d="M632.5,-394C632.5,-394 419.5,-394 419.5,-394 413.5,-394 407.5,-388 407.5,-382 407.5,-382 407.5,-370 407.5,-370 407.5,-364 413.5,-358 419.5,-358 419.5,-358 632.5,-358 632.5,-358 638.5,-358 644.5,-364 644.5,-370 644.5,-370 644.5,-382 644.5,-382 644.5,-388 638.5,-394 632.5,-394"/>
<text text-anchor="middle" x="526" y="-372.2" font-family="Noto Sans CJK KR" font-size="16.00">스텝 / NFC / NFT / 리워드 수정</text>
</g>
<!-- ops_content&#45;&gt;ops_config -->
<g id="edge82" class="edge">
<title>ops_content&#45;&gt;ops_config</title>
<path fill="none" stroke="#6b7280" stroke-width="1.2" d="M549.25,-456.84C549.25,-456.84 549.25,-402.04 549.25,-402.04"/>
<polygon fill="#6b7280" stroke="#6b7280" stroke-width="1.2" points="552.05,-402.04 549.25,-394.04 546.45,-402.04 552.05,-402.04"/>
</g>
<!-- ops_review -->
<g id="node73" class="node">
<title>ops_review</title>
<path fill="#ffffff" stroke="#6b7280" stroke-width="1.4" d="M589,-295C589,-295 421,-295 421,-295 415,-295 409,-289 409,-283 409,-283 409,-271 409,-271 409,-265 415,-259 421,-259 421,-259 589,-259 589,-259 595,-259 601,-265 601,-271 601,-271 601,-283 601,-283 601,-289 595,-295 589,-295"/>
<text text-anchor="middle" x="505" y="-273.2" font-family="Noto Sans CJK KR" font-size="16.00">사용자 노출 전 최종 점검</text>
</g>
<!-- ops_config&#45;&gt;ops_review -->
<g id="edge83" class="edge">
<title>ops_config&#45;&gt;ops_review</title>
<path fill="none" stroke="#6b7280" stroke-width="1.2" d="M505,-357.84C505,-357.84 505,-303.04 505,-303.04"/>
<polygon fill="#6b7280" stroke="#6b7280" stroke-width="1.2" points="507.8,-303.04 505,-295.04 502.2,-303.04 507.8,-303.04"/>
</g>
<!-- ops_review&#45;&gt;more_ops -->
<g id="edge84" class="edge">
<title>ops_review&#45;&gt;more_ops</title>
<path fill="none" stroke="#6b7280" stroke-width="1.2" d="M413.5,-258.57C413.5,-230.18 413.5,-179 413.5,-179 413.5,-179 300.75,-179 300.75,-179"/>
<polygon fill="#6b7280" stroke="#6b7280" stroke-width="1.2" points="300.75,-176.2 292.75,-179 300.75,-181.8 300.75,-176.2"/>
</g>
<!-- ops_save&#45;&gt;ops_detail -->
<g id="edge86" class="edge">
<title>ops_save&#45;&gt;ops_detail</title>
<path fill="none" stroke="#6b7280" stroke-width="1.2" d="M417.62,-34C406.43,-34 398.25,-34 398.25,-34 398.25,-34 398.25,-788 398.25,-788 398.25,-788 469.24,-788 469.24,-788"/>
<polygon fill="#6b7280" stroke="#6b7280" stroke-width="1.2" points="469.24,-790.8 477.24,-788 469.24,-785.2 469.24,-790.8"/>
</g>
<!-- back_list&#45;&gt;dashboard -->
<g id="edge88" class="edge">
<title>back_list&#45;&gt;dashboard</title>
<path fill="none" stroke="#6b7280" stroke-width="1.2" d="M757.8,-34C964.21,-34 1476,-34 1476,-34 1476,-34 1476,-6339 1476,-6339 1476,-6339 1387.62,-6339 1387.62,-6339"/>
<polygon fill="#6b7280" stroke="#6b7280" stroke-width="1.2" points="1387.62,-6336.2 1379.62,-6339 1387.62,-6341.8 1387.62,-6336.2"/>
</g>
</g>
</svg>
