<?xml version="1.0" encoding="UTF-8" standalone="no"?>
<!DOCTYPE svg PUBLIC "-//W3C//DTD SVG 1.1//EN"
 "http://www.w3.org/Graphics/SVG/1.1/DTD/svg11.dtd">
<!-- Generated by graphviz version 2.42.4 (0)
 -->
<!-- Title: G Pages: 1 -->
<svg width="4207pt" height="4301pt"
 viewBox="0.00 0.00 4206.80 4300.80" xmlns="http://www.w3.org/2000/svg" xmlns:xlink="http://www.w3.org/1999/xlink">
<g id="graph0" class="graph" transform="scale(1 1) rotate(0) translate(32.4 4268.4)">
<title>G</title>
<polygon fill="white" stroke="transparent" points="-32.4,32.4 -32.4,-4268.4 4174.4,-4268.4 4174.4,32.4 -32.4,32.4"/>
<text text-anchor="middle" x="2071" y="-4214.4" font-family="Noto Sans CJK KR" font-size="22.00">서비스 전체 관리자 사용자 플로우 차트</text>
<g id="clust1" class="cluster">
<title>cluster_admin_home</title>
<path fill="#f8fbff" stroke="#bfdbfe" d="M1154,-1967C1154,-1967 2018,-1967 2018,-1967 2024,-1967 2030,-1973 2030,-1979 2030,-1979 2030,-3576 2030,-3576 2030,-3582 2024,-3588 2018,-3588 2018,-3588 1154,-3588 1154,-3588 1148,-3588 1142,-3582 1142,-3576 1142,-3576 1142,-1979 1142,-1979 1142,-1973 1148,-1967 1154,-1967"/>
<text text-anchor="middle" x="1586" y="-3569.6" font-family="Noto Sans CJK KR" font-size="18.00">서비스 관리자 홈</text>
</g>
<g id="clust2" class="cluster">
<title>cluster_partner_ops</title>
<path fill="#fafbff" stroke="#c7d2fe" d="M1134,-548C1134,-548 1772,-548 1772,-548 1778,-548 1784,-554 1784,-560 1784,-560 1784,-859 1784,-859 1784,-865 1778,-871 1772,-871 1772,-871 1134,-871 1134,-871 1128,-871 1122,-865 1122,-859 1122,-859 1122,-560 1122,-560 1122,-554 1128,-548 1134,-548"/>
<text text-anchor="middle" x="1453" y="-852.6" font-family="Noto Sans CJK KR" font-size="18.00">1. 제휴사 및 권한 운영</text>
</g>
<g id="clust3" class="cluster">
<title>cluster_event_review</title>
<path fill="#f5faff" stroke="#93c5fd" d="M3334,-548C3334,-548 3732,-548 3732,-548 3738,-548 3744,-554 3744,-560 3744,-560 3744,-1923 3744,-1923 3744,-1929 3738,-1935 3732,-1935 3732,-1935 3334,-1935 3334,-1935 3328,-1935 3322,-1929 3322,-1923 3322,-1923 3322,-560 3322,-560 3322,-554 3328,-548 3334,-548"/>
<text text-anchor="middle" x="3533" y="-1916.6" font-family="Noto Sans CJK KR" font-size="18.00">2. 이벤트 심사 및 게시</text>
</g>
<g id="clust4" class="cluster">
<title>cluster_user_bridge</title>
<path fill="#f7fffb" stroke="#a7f3d0" d="M2862,-8C2862,-8 3302,-8 3302,-8 3308,-8 3314,-14 3314,-20 3314,-20 3314,-744 3314,-744 3314,-750 3308,-756 3302,-756 3302,-756 2862,-756 2862,-756 2856,-756 2850,-750 2850,-744 2850,-744 2850,-20 2850,-20 2850,-14 2856,-8 2862,-8"/>
<text text-anchor="middle" x="3082" y="-737.6" font-family="Noto Sans CJK KR" font-size="18.00">3. 사용자 서비스 반영</text>
</g>
<g id="clust5" class="cluster">
<title>cluster_monitor_ops</title>
<path fill="#fffcf2" stroke="#fde68a" d="M2828,-2798C2828,-2798 3086,-2798 3086,-2798 3092,-2798 3098,-2804 3098,-2810 3098,-2810 3098,-3464 3098,-3464 3098,-3470 3092,-3476 3086,-3476 3086,-3476 2828,-3476 2828,-3476 2822,-3476 2816,-3470 2816,-3464 2816,-3464 2816,-2810 2816,-2810 2816,-2804 2822,-2798 2828,-2798"/>
<text text-anchor="middle" x="2957" y="-3457.6" font-family="Noto Sans CJK KR" font-size="18.00">4. 운영 모니터링</text>
</g>
<g id="clust6" class="cluster">
<title>cluster_incident</title>
<path fill="#fff8fc" stroke="#fbcfe8" d="M2050,-2066C2050,-2066 3337,-2066 3337,-2066 3343,-2066 3349,-2072 3349,-2078 3349,-2078 3349,-2575 3349,-2575 3349,-2581 3343,-2587 3337,-2587 3337,-2587 2050,-2587 2050,-2587 2044,-2587 2038,-2581 2038,-2575 2038,-2575 2038,-2078 2038,-2078 2038,-2072 2044,-2066 2050,-2066"/>
<text text-anchor="middle" x="2693.5" y="-2568.6" font-family="Noto Sans CJK KR" font-size="18.00">5. 예외 및 장애 대응</text>
</g>
<g id="clust7" class="cluster">
<title>cluster_reward_ops</title>
<path fill="#fbfaff" stroke="#ddd6fe" d="M2050,-2731C2050,-2731 2350,-2731 2350,-2731 2356,-2731 2362,-2737 2362,-2743 2362,-2743 2362,-3464 2362,-3464 2362,-3470 2356,-3476 2350,-3476 2350,-3476 2050,-3476 2050,-3476 2044,-3476 2038,-3470 2038,-3464 2038,-3464 2038,-2743 2038,-2743 2038,-2737 2044,-2731 2050,-2731"/>
<text text-anchor="middle" x="2200" y="-3457.6" font-family="Noto Sans CJK KR" font-size="18.00">6. 리워드 운영</text>
</g>
<g id="clust8" class="cluster">
<title>cluster_user_support</title>
<path fill="#f6fffc" stroke="#c7e9e1" d="M430,-2648C430,-2648 762,-2648 762,-2648 768,-2648 774,-2654 774,-2660 774,-2660 774,-3464 774,-3464 774,-3470 768,-3476 762,-3476 762,-3476 430,-3476 430,-3476 424,-3476 418,-3470 418,-3464 418,-3464 418,-2660 418,-2660 418,-2654 424,-2648 430,-2648"/>
<text text-anchor="middle" x="596" y="-3457.6" font-family="Noto Sans CJK KR" font-size="18.00">7. 사용자 운영 지원</text>
</g>
<g id="clust9" class="cluster">
<title>cluster_policy_cycle</title>
<path fill="#fafafa" stroke="#d1d5db" d="M892,-2926C892,-2926 1122,-2926 1122,-2926 1128,-2926 1134,-2932 1134,-2938 1134,-2938 1134,-3464 1134,-3464 1134,-3470 1128,-3476 1122,-3476 1122,-3476 892,-3476 892,-3476 886,-3476 880,-3470 880,-3464 880,-3464 880,-2938 880,-2938 880,-2932 886,-2926 892,-2926"/>
<text text-anchor="middle" x="1007" y="-3457.6" font-family="Noto Sans CJK KR" font-size="18.00">8. 서비스 정책 개선</text>
</g>
<!-- login_decision -->
<g id="node1" class="node">
<title>login_decision</title>
<path fill="#fff7ed" stroke="#f59e0b" stroke-width="1.4" d="M2081.18,-4102.91C2081.18,-4102.91 1912.82,-4073.09 1912.82,-4073.09 1906.91,-4072.05 1906.91,-4069.95 1912.82,-4068.91 1912.82,-4068.91 2081.18,-4039.09 2081.18,-4039.09 2087.09,-4038.05 2098.91,-4038.05 2104.82,-4039.09 2104.82,-4039.09 2273.18,-4068.91 2273.18,-4068.91 2279.09,-4069.95 2279.09,-4072.05 2273.18,-4073.09 2273.18,-4073.09 2104.82,-4102.91 2104.82,-4102.91 2098.91,-4103.95 2087.09,-4103.95 2081.18,-4102.91"/>
<text text-anchor="middle" x="2093" y="-4067.2" font-family="Noto Sans CJK KR" font-size="16.00">관리자 로그인 상태인가?</text>
</g>
<!-- login_page -->
<g id="node10" class="node">
<title>login_page</title>
<path fill="#f3f4f6" stroke="#6b7280" stroke-width="1.4" d="M2295,-3961C2295,-3961 2133,-3961 2133,-3961 2127,-3961 2121,-3955 2121,-3949 2121,-3949 2121,-3937 2121,-3937 2121,-3931 2127,-3925 2133,-3925 2133,-3925 2295,-3925 2295,-3925 2301,-3925 2307,-3931 2307,-3937 2307,-3937 2307,-3949 2307,-3949 2307,-3955 2301,-3961 2295,-3961"/>
<text text-anchor="middle" x="2214" y="-3939.2" font-family="Noto Sans CJK KR" font-size="16.00">/service&#45;admin login/</text>
</g>
<!-- login_decision&#45;&gt;login_page -->
<g id="edge2" class="edge">
<title>login_decision&#45;&gt;login_page</title>
<path fill="none" stroke="#6b7280" stroke-width="1.2" d="M2203,-4056.32C2203,-4056.32 2203,-3969.21 2203,-3969.21"/>
<polygon fill="#6b7280" stroke="#6b7280" stroke-width="1.2" points="2205.8,-3969.21 2203,-3961.21 2200.2,-3969.21 2205.8,-3969.21"/>
<text text-anchor="middle" x="2188.5" y="-3995.6" font-family="Noto Sans CJK KR" font-size="13.00">아니오</text>
</g>
<!-- dashboard -->
<g id="node13" class="node">
<title>dashboard</title>
<path fill="#eff6ff" stroke="#3b82f6" stroke-width="1.4" d="M2185,-3664C2185,-3664 1981,-3664 1981,-3664 1975,-3664 1969,-3658 1969,-3652 1969,-3652 1969,-3640 1969,-3640 1969,-3634 1975,-3628 1981,-3628 1981,-3628 2185,-3628 2185,-3628 2191,-3628 2197,-3634 2197,-3640 2197,-3640 2197,-3652 2197,-3652 2197,-3658 2191,-3664 2185,-3664"/>
<text text-anchor="middle" x="2083" y="-3642.2" font-family="Noto Sans CJK KR" font-size="16.00">/service&#45;admin dashboard/</text>
</g>
<!-- login_decision&#45;&gt;dashboard -->
<g id="edge6" class="edge">
<title>login_decision&#45;&gt;dashboard</title>
<path fill="none" stroke="#6b7280" stroke-width="1.2" d="M2045,-4045.37C2045,-4045.37 2045,-3672.15 2045,-3672.15"/>
<polygon fill="#6b7280" stroke="#6b7280" stroke-width="1.2" points="2047.8,-3672.15 2045,-3664.15 2042.2,-3672.15 2047.8,-3672.15"/>
<text text-anchor="middle" x="2066.5" y="-3840.6" font-family="Noto Sans CJK KR" font-size="13.00">예</text>
</g>
<!-- review_ok -->
<g id="node2" class="node">
<title>review_ok</title>
<path fill="#fff7ed" stroke="#f59e0b" stroke-width="1.4" d="M3170.38,-1088.01C3170.38,-1088.01 3061.62,-1059.99 3061.62,-1059.99 3055.81,-1058.5 3055.81,-1055.5 3061.62,-1054.01 3061.62,-1054.01 3170.38,-1025.99 3170.38,-1025.99 3176.19,-1024.5 3187.81,-1024.5 3193.62,-1025.99 3193.62,-1025.99 3302.38,-1054.01 3302.38,-1054.01 3308.19,-1055.5 3308.19,-1058.5 3302.38,-1059.99 3302.38,-1059.99 3193.62,-1088.01 3193.62,-1088.01 3187.81,-1089.5 3176.19,-1089.5 3170.38,-1088.01"/>
<text text-anchor="middle" x="3182" y="-1053.2" font-family="Noto Sans CJK KR" font-size="16.00">운영 기준 충족?</text>
</g>
<!-- reject_req -->
<g id="node33" class="node">
<title>reject_req</title>
<path fill="#fee2e2" stroke="#ef4444" stroke-width="1.4" d="M3486,-947C3486,-947 3342,-947 3342,-947 3336,-947 3330,-941 3330,-935 3330,-935 3330,-923 3330,-923 3330,-917 3336,-911 3342,-911 3342,-911 3486,-911 3486,-911 3492,-911 3498,-917 3498,-923 3498,-923 3498,-935 3498,-935 3498,-941 3492,-947 3486,-947"/>
<text text-anchor="middle" x="3414" y="-925.2" font-family="Noto Sans CJK KR" font-size="16.00">반려 / 수정 요청 전달</text>
</g>
<!-- review_ok&#45;&gt;reject_req -->
<g id="edge28" class="edge">
<title>review_ok&#45;&gt;reject_req</title>
<path fill="none" stroke="#6b7280" stroke-width="1.2" d="M3310,-1055.63C3310,-1042.23 3310,-935 3310,-935 3310,-935 3321.56,-935 3321.56,-935"/>
<polygon fill="#6b7280" stroke="#6b7280" stroke-width="1.2" points="3321.56,-937.8 3329.56,-935 3321.56,-932.2 3321.56,-937.8"/>
<text text-anchor="middle" x="3262.5" y="-981.6" font-family="Noto Sans CJK KR" font-size="13.00">아니오</text>
</g>
<!-- approve_publish -->
<g id="node34" class="node">
<title>approve_publish</title>
<path fill="#dcfce7" stroke="#22c55e" stroke-width="1.4" d="M3635.5,-947C3635.5,-947 3550.5,-947 3550.5,-947 3544.5,-947 3538.5,-941 3538.5,-935 3538.5,-935 3538.5,-923 3538.5,-923 3538.5,-917 3544.5,-911 3550.5,-911 3550.5,-911 3635.5,-911 3635.5,-911 3641.5,-911 3647.5,-917 3647.5,-923 3647.5,-923 3647.5,-935 3647.5,-935 3647.5,-941 3641.5,-947 3635.5,-947"/>
<text text-anchor="middle" x="3593" y="-925.2" font-family="Noto Sans CJK KR" font-size="16.00">승인 및 게시</text>
</g>
<!-- review_ok&#45;&gt;approve_publish -->
<g id="edge30" class="edge">
<title>review_ok&#45;&gt;approve_publish</title>
<path fill="none" stroke="#6b7280" stroke-width="1.2" d="M3314.21,-1057C3417.36,-1057 3543.25,-1057 3543.25,-1057 3543.25,-1057 3543.25,-955.07 3543.25,-955.07"/>
<polygon fill="#6b7280" stroke="#6b7280" stroke-width="1.2" points="3546.05,-955.07 3543.25,-947.07 3540.45,-955.07 3546.05,-955.07"/>
<text text-anchor="middle" x="3455.5" y="-981.6" font-family="Noto Sans CJK KR" font-size="13.00">예</text>
</g>
<!-- extra_setting -->
<g id="node3" class="node">
<title>extra_setting</title>
<path fill="#fff7ed" stroke="#f59e0b" stroke-width="1.4" d="M3935.18,-733.94C3935.18,-733.94 3763.82,-704.06 3763.82,-704.06 3757.91,-703.03 3757.91,-700.97 3763.82,-699.94 3763.82,-699.94 3935.18,-670.06 3935.18,-670.06 3941.09,-669.03 3952.91,-669.03 3958.82,-670.06 3958.82,-670.06 4130.18,-699.94 4130.18,-699.94 4136.09,-700.97 4136.09,-703.03 4130.18,-704.06 4130.18,-704.06 3958.82,-733.94 3958.82,-733.94 3952.91,-734.97 3941.09,-734.97 3935.18,-733.94"/>
<text text-anchor="middle" x="3947" y="-698.2" font-family="Noto Sans CJK KR" font-size="16.00">추가 운영 설정 필요한가?</text>
</g>
<!-- extra_setting&#45;&gt;dashboard -->
<g id="edge35" class="edge">
<title>extra_setting&#45;&gt;dashboard</title>
<path fill="none" stroke="#6b7280" stroke-width="1.2" d="M3900.8,-728C3609.51,-728 2039.62,-728 2039.62,-728 2039.62,-728 2039.62,-3619.75 2039.62,-3619.75"/>
<polygon fill="#6b7280" stroke="#6b7280" stroke-width="1.2" points="2036.83,-3619.75 2039.62,-3627.75 2042.43,-3619.75 2036.83,-3619.75"/>
<text text-anchor="middle" x="3959.5" y="-2088.6" font-family="Noto Sans CJK KR" font-size="13.00">없음</text>
</g>
<!-- set_featured -->
<g id="node36" class="node">
<title>set_featured</title>
<path fill="#ffffff" stroke="#6b7280" stroke-width="1.4" d="M3724.5,-592C3724.5,-592 3571.5,-592 3571.5,-592 3565.5,-592 3559.5,-586 3559.5,-580 3559.5,-580 3559.5,-568 3559.5,-568 3559.5,-562 3565.5,-556 3571.5,-556 3571.5,-556 3724.5,-556 3724.5,-556 3730.5,-556 3736.5,-562 3736.5,-568 3736.5,-568 3736.5,-580 3736.5,-580 3736.5,-586 3730.5,-592 3724.5,-592"/>
<text text-anchor="middle" x="3648" y="-570.2" font-family="Noto Sans CJK KR" font-size="16.00">홈 추천 배너 노출 설정</text>
</g>
<!-- extra_setting&#45;&gt;set_featured -->
<g id="edge33" class="edge">
<title>extra_setting&#45;&gt;set_featured</title>
<path fill="none" stroke="#6b7280" stroke-width="1.2" d="M3918.11,-673C3857.48,-673 3722.5,-673 3722.5,-673 3722.5,-673 3722.5,-600.16 3722.5,-600.16"/>
<polygon fill="#6b7280" stroke="#6b7280" stroke-width="1.2" points="3725.3,-600.16 3722.5,-592.16 3719.7,-600.16 3725.3,-600.16"/>
<text text-anchor="middle" x="3972.5" y="-626.6" font-family="Noto Sans CJK KR" font-size="13.00">featured 지정</text>
</g>
<!-- adjust_schedule -->
<g id="node37" class="node">
<title>adjust_schedule</title>
<path fill="#ffffff" stroke="#6b7280" stroke-width="1.4" d="M3507.5,-592C3507.5,-592 3342.5,-592 3342.5,-592 3336.5,-592 3330.5,-586 3330.5,-580 3330.5,-580 3330.5,-568 3330.5,-568 3330.5,-562 3336.5,-556 3342.5,-556 3342.5,-556 3507.5,-556 3507.5,-556 3513.5,-556 3519.5,-562 3519.5,-568 3519.5,-568 3519.5,-580 3519.5,-580 3519.5,-586 3513.5,-592 3507.5,-592"/>
<text text-anchor="middle" x="3425" y="-570.2" font-family="Noto Sans CJK KR" font-size="16.00">status 또는 기간 재조정</text>
</g>
<!-- extra_setting&#45;&gt;adjust_schedule -->
<g id="edge34" class="edge">
<title>extra_setting&#45;&gt;adjust_schedule</title>
<path fill="none" stroke="#6b7280" stroke-width="1.2" d="M3889.58,-678C3769.08,-678 3500.83,-678 3500.83,-678 3500.83,-678 3500.83,-600.12 3500.83,-600.12"/>
<polygon fill="#6b7280" stroke="#6b7280" stroke-width="1.2" points="3503.63,-600.12 3500.83,-592.12 3498.03,-600.12 3503.63,-600.12"/>
<text text-anchor="middle" x="3829.5" y="-626.6" font-family="Noto Sans CJK KR" font-size="13.00">활성화 일정 조정</text>
</g>
<!-- anomaly -->
<g id="node4" class="node">
<title>anomaly</title>
<path fill="#fff7ed" stroke="#f59e0b" stroke-width="1.4" d="M2948.26,-2705.54C2948.26,-2705.54 2809.74,-2676.46 2809.74,-2676.46 2803.87,-2675.23 2803.87,-2672.77 2809.74,-2671.54 2809.74,-2671.54 2948.26,-2642.46 2948.26,-2642.46 2954.13,-2641.23 2965.87,-2641.23 2971.74,-2642.46 2971.74,-2642.46 3110.26,-2671.54 3110.26,-2671.54 3116.13,-2672.77 3116.13,-2675.23 3110.26,-2676.46 3110.26,-2676.46 2971.74,-2705.54 2971.74,-2705.54 2965.87,-2706.77 2954.13,-2706.77 2948.26,-2705.54"/>
<text text-anchor="middle" x="2960" y="-2670.2" font-family="Noto Sans CJK KR" font-size="16.00">이상 징후가 있는가?</text>
</g>
<!-- anomaly&#45;&gt;dashboard -->
<g id="edge53" class="edge">
<title>anomaly&#45;&gt;dashboard</title>
<path fill="none" stroke="#6b7280" stroke-width="1.2" d="M2811.25,-2677.11C2811.25,-2736.89 2811.25,-3637 2811.25,-3637 2811.25,-3637 2205.19,-3637 2205.19,-3637"/>
<polygon fill="#6b7280" stroke="#6b7280" stroke-width="1.2" points="2205.19,-3634.2 2197.19,-3637 2205.19,-3639.8 2205.19,-3634.2"/>
<text text-anchor="middle" x="3177.5" y="-3207.6" font-family="Noto Sans CJK KR" font-size="13.00">없음</text>
</g>
<!-- incident_detail -->
<g id="node51" class="node">
<title>incident_detail</title>
<path fill="#ffffff" stroke="#6b7280" stroke-width="1.4" d="M2834,-2551C2834,-2551 2700,-2551 2700,-2551 2694,-2551 2688,-2545 2688,-2539 2688,-2539 2688,-2527 2688,-2527 2688,-2521 2694,-2515 2700,-2515 2700,-2515 2834,-2515 2834,-2515 2840,-2515 2846,-2521 2846,-2527 2846,-2527 2846,-2539 2846,-2539 2846,-2545 2840,-2551 2834,-2551"/>
<text text-anchor="middle" x="2767" y="-2529.2" font-family="Noto Sans CJK KR" font-size="16.00">운영 이슈 상세 분석</text>
</g>
<!-- anomaly&#45;&gt;incident_detail -->
<g id="edge54" class="edge">
<title>anomaly&#45;&gt;incident_detail</title>
<path fill="none" stroke="#6b7280" stroke-width="1.2" d="M2822,-2668.64C2822,-2668.64 2822,-2559.08 2822,-2559.08"/>
<polygon fill="#6b7280" stroke="#6b7280" stroke-width="1.2" points="2824.8,-2559.08 2822,-2551.08 2819.2,-2559.08 2824.8,-2559.08"/>
<text text-anchor="middle" x="2910.5" y="-2598.6" font-family="Noto Sans CJK KR" font-size="13.00">있음</text>
</g>
<!-- urgent_fix -->
<g id="node5" class="node">
<title>urgent_fix</title>
<path fill="#fff7ed" stroke="#f59e0b" stroke-width="1.4" d="M3477.38,-2251.01C3477.38,-2251.01 3368.62,-2222.99 3368.62,-2222.99 3362.81,-2221.5 3362.81,-2218.5 3368.62,-2217.01 3368.62,-2217.01 3477.38,-2188.99 3477.38,-2188.99 3483.19,-2187.5 3494.81,-2187.5 3500.62,-2188.99 3500.62,-2188.99 3609.38,-2217.01 3609.38,-2217.01 3615.19,-2218.5 3615.19,-2221.5 3609.38,-2222.99 3609.38,-2222.99 3500.62,-2251.01 3500.62,-2251.01 3494.81,-2252.5 3483.19,-2252.5 3477.38,-2251.01"/>
<text text-anchor="middle" x="3489" y="-2216.2" font-family="Noto Sans CJK KR" font-size="16.00">즉시 조치 필요?</text>
</g>
<!-- hide_event -->
<g id="node61" class="node">
<title>hide_event</title>
<path fill="#fee2e2" stroke="#ef4444" stroke-width="1.4" d="M2847,-2110C2847,-2110 2619,-2110 2619,-2110 2613,-2110 2607,-2104 2607,-2098 2607,-2098 2607,-2086 2607,-2086 2607,-2080 2613,-2074 2619,-2074 2619,-2074 2847,-2074 2847,-2074 2853,-2074 2859,-2080 2859,-2086 2859,-2086 2859,-2098 2859,-2098 2859,-2104 2853,-2110 2847,-2110"/>
<text text-anchor="middle" x="2733" y="-2088.2" font-family="Noto Sans CJK KR" font-size="16.00">이벤트 비노출 또는 태그 비활성화</text>
</g>
<!-- urgent_fix&#45;&gt;hide_event -->
<g id="edge69" class="edge">
<title>urgent_fix&#45;&gt;hide_event</title>
<path fill="none" stroke="#6b7280" stroke-width="1.2" d="M3415.1,-2205C3229.17,-2205 2756.75,-2205 2756.75,-2205 2756.75,-2205 2756.75,-2118.16 2756.75,-2118.16"/>
<polygon fill="#6b7280" stroke="#6b7280" stroke-width="1.2" points="2759.55,-2118.16 2756.75,-2110.16 2753.95,-2118.16 2759.55,-2118.16"/>
<text text-anchor="middle" x="3404.5" y="-2144.6" font-family="Noto Sans CJK KR" font-size="13.00">예</text>
</g>
<!-- keep_watch -->
<g id="node62" class="node">
<title>keep_watch</title>
<path fill="#ffffff" stroke="#6b7280" stroke-width="1.4" d="M3328.5,-2110C3328.5,-2110 3145.5,-2110 3145.5,-2110 3139.5,-2110 3133.5,-2104 3133.5,-2098 3133.5,-2098 3133.5,-2086 3133.5,-2086 3133.5,-2080 3139.5,-2074 3145.5,-2074 3145.5,-2074 3328.5,-2074 3328.5,-2074 3334.5,-2074 3340.5,-2080 3340.5,-2086 3340.5,-2086 3340.5,-2098 3340.5,-2098 3340.5,-2104 3334.5,-2110 3328.5,-2110"/>
<text text-anchor="middle" x="3237" y="-2088.2" font-family="Noto Sans CJK KR" font-size="16.00">운영 메모 후 모니터링 지속</text>
</g>
<!-- urgent_fix&#45;&gt;keep_watch -->
<g id="edge70" class="edge">
<title>urgent_fix&#45;&gt;keep_watch</title>
<path fill="none" stroke="#6b7280" stroke-width="1.2" d="M3454.05,-2195C3392.57,-2195 3271.5,-2195 3271.5,-2195 3271.5,-2195 3271.5,-2118.41 3271.5,-2118.41"/>
<polygon fill="#6b7280" stroke="#6b7280" stroke-width="1.2" points="3274.3,-2118.41 3271.5,-2110.41 3268.7,-2118.41 3274.3,-2118.41"/>
<text text-anchor="middle" x="3485.5" y="-2144.6" font-family="Noto Sans CJK KR" font-size="13.00">아니오</text>
</g>
<!-- reward_fix_needed -->
<g id="node6" class="node">
<title>reward_fix_needed</title>
<path fill="#fff7ed" stroke="#f59e0b" stroke-width="1.4" d="M2568.15,-2984.08C2568.15,-2984.08 2381.85,-2953.92 2381.85,-2953.92 2375.92,-2952.96 2375.92,-2951.04 2381.85,-2950.08 2381.85,-2950.08 2568.15,-2919.92 2568.15,-2919.92 2574.08,-2918.96 2585.92,-2918.96 2591.85,-2919.92 2591.85,-2919.92 2778.15,-2950.08 2778.15,-2950.08 2784.08,-2951.04 2784.08,-2952.96 2778.15,-2953.92 2778.15,-2953.92 2591.85,-2984.08 2591.85,-2984.08 2585.92,-2985.04 2574.08,-2985.04 2568.15,-2984.08"/>
<text text-anchor="middle" x="2580" y="-2948.2" font-family="Noto Sans CJK KR" font-size="16.00">리워드 정책 수정 필요한가?</text>
</g>
<!-- reward_fix_needed&#45;&gt;dashboard -->
<g id="edge80" class="edge">
<title>reward_fix_needed&#45;&gt;dashboard</title>
<path fill="none" stroke="#6b7280" stroke-width="1.2" d="M2511.93,-2975C2367.32,-2975 2042.56,-2975 2042.56,-2975 2042.56,-2975 2042.56,-3619.7 2042.56,-3619.7"/>
<polygon fill="#6b7280" stroke="#6b7280" stroke-width="1.2" points="2039.76,-3619.7 2042.56,-3627.7 2045.36,-3619.7 2039.76,-3619.7"/>
<text text-anchor="middle" x="2515.5" y="-3306.6" font-family="Noto Sans CJK KR" font-size="13.00">아니오</text>
</g>
<!-- reward_change -->
<g id="node67" class="node">
<title>reward_change</title>
<path fill="#fee2e2" stroke="#ef4444" stroke-width="1.4" d="M2316,-2775C2316,-2775 2084,-2775 2084,-2775 2078,-2775 2072,-2769 2072,-2763 2072,-2763 2072,-2751 2072,-2751 2072,-2745 2078,-2739 2084,-2739 2084,-2739 2316,-2739 2316,-2739 2322,-2739 2328,-2745 2328,-2751 2328,-2751 2328,-2763 2328,-2763 2328,-2769 2322,-2775 2316,-2775"/>
<text text-anchor="middle" x="2200" y="-2753.2" font-family="Noto Sans CJK KR" font-size="16.00">유효기간 / 문구 / 파트너 안내 수정</text>
</g>
<!-- reward_fix_needed&#45;&gt;reward_change -->
<g id="edge78" class="edge">
<title>reward_fix_needed&#45;&gt;reward_change</title>
<path fill="none" stroke="#6b7280" stroke-width="1.2" d="M2530.5,-2926C2433.84,-2926 2229.33,-2926 2229.33,-2926 2229.33,-2926 2229.33,-2783.09 2229.33,-2783.09"/>
<polygon fill="#6b7280" stroke="#6b7280" stroke-width="1.2" points="2232.13,-2783.09 2229.33,-2775.09 2226.53,-2783.09 2232.13,-2783.09"/>
<text text-anchor="middle" x="2325.5" y="-2876.6" font-family="Noto Sans CJK KR" font-size="13.00">예</text>
</g>
<!-- support_needed -->
<g id="node7" class="node">
<title>support_needed</title>
<path fill="#fff7ed" stroke="#f59e0b" stroke-width="1.4" d="M193.16,-3128.04C193.16,-3128.04 11.84,-3097.96 11.84,-3097.96 5.92,-3096.98 5.92,-3095.02 11.84,-3094.04 11.84,-3094.04 193.16,-3063.96 193.16,-3063.96 199.08,-3062.98 210.92,-3062.98 216.84,-3063.96 216.84,-3063.96 398.16,-3094.04 398.16,-3094.04 404.08,-3095.02 404.08,-3096.98 398.16,-3097.96 398.16,-3097.96 216.84,-3128.04 216.84,-3128.04 210.92,-3129.02 199.08,-3129.02 193.16,-3128.04"/>
<text text-anchor="middle" x="205" y="-3092.2" font-family="Noto Sans CJK KR" font-size="16.00">문의 / 분쟁 처리 필요한가?</text>
</g>
<!-- support_needed&#45;&gt;dashboard -->
<g id="edge85" class="edge">
<title>support_needed&#45;&gt;dashboard</title>
<path fill="none" stroke="#6b7280" stroke-width="1.2" d="M271.39,-3119C598.7,-3119 2024.94,-3119 2024.94,-3119 2024.94,-3119 2024.94,-3619.86 2024.94,-3619.86"/>
<polygon fill="#6b7280" stroke="#6b7280" stroke-width="1.2" points="2022.14,-3619.86 2024.94,-3627.86 2027.74,-3619.86 2022.14,-3619.86"/>
<text text-anchor="middle" x="295.5" y="-3362.6" font-family="Noto Sans CJK KR" font-size="13.00">아니오</text>
</g>
<!-- ops_judgment -->
<g id="node71" class="node">
<title>ops_judgment</title>
<path fill="#ffffff" stroke="#6b7280" stroke-width="1.4" d="M753.5,-2970C753.5,-2970 438.5,-2970 438.5,-2970 432.5,-2970 426.5,-2964 426.5,-2958 426.5,-2958 426.5,-2946 426.5,-2946 426.5,-2940 432.5,-2934 438.5,-2934 438.5,-2934 753.5,-2934 753.5,-2934 759.5,-2934 765.5,-2940 765.5,-2946 765.5,-2946 765.5,-2958 765.5,-2958 765.5,-2964 759.5,-2970 753.5,-2970"/>
<text text-anchor="middle" x="596" y="-2948.2" font-family="Noto Sans CJK KR" font-size="16.00">이벤트 / 스텝 / 리워드 이력 기반으로 운영 판단</text>
</g>
<!-- support_needed&#45;&gt;ops_judgment -->
<g id="edge86" class="edge">
<title>support_needed&#45;&gt;ops_judgment</title>
<path fill="none" stroke="#6b7280" stroke-width="1.2" d="M253.5,-3070C325.05,-3070 450.5,-3070 450.5,-3070 450.5,-3070 450.5,-2978.18 450.5,-2978.18"/>
<polygon fill="#6b7280" stroke="#6b7280" stroke-width="1.2" points="453.3,-2978.18 450.5,-2970.18 447.7,-2978.18 453.3,-2978.18"/>
<text text-anchor="middle" x="360.5" y="-3020.6" font-family="Noto Sans CJK KR" font-size="13.00">예</text>
</g>
<!-- all_steps_done -->
<g id="node8" class="node">
<title>all_steps_done</title>
<path fill="#fff7ed" stroke="#f59e0b" stroke-width="1.4" d="M3474.25,-193.56C3474.25,-193.56 3333.75,-164.44 3333.75,-164.44 3327.88,-163.22 3327.88,-160.78 3333.75,-159.56 3333.75,-159.56 3474.25,-130.44 3474.25,-130.44 3480.12,-129.22 3491.88,-129.22 3497.75,-130.44 3497.75,-130.44 3638.25,-159.56 3638.25,-159.56 3644.12,-160.78 3644.12,-163.22 3638.25,-164.44 3638.25,-164.44 3497.75,-193.56 3497.75,-193.56 3491.88,-194.78 3480.12,-194.78 3474.25,-193.56"/>
<text text-anchor="middle" x="3486" y="-158.2" font-family="Noto Sans CJK KR" font-size="16.00">모든 step 완료인가?</text>
</g>
<!-- next_step -->
<g id="node43" class="node">
<title>next_step</title>
<path fill="#ffffff" stroke="#6b7280" stroke-width="1.4" d="M3294,-52C3294,-52 3192,-52 3192,-52 3186,-52 3180,-46 3180,-40 3180,-40 3180,-28 3180,-28 3180,-22 3186,-16 3192,-16 3192,-16 3294,-16 3294,-16 3300,-16 3306,-22 3306,-28 3306,-28 3306,-40 3306,-40 3306,-46 3300,-52 3294,-52"/>
<text text-anchor="middle" x="3243" y="-30.2" font-family="Noto Sans CJK KR" font-size="16.00">다음 step 진행</text>
</g>
<!-- all_steps_done&#45;&gt;next_step -->
<g id="edge45" class="edge">
<title>all_steps_done&#45;&gt;next_step</title>
<path fill="none" stroke="#6b7280" stroke-width="1.2" d="M3379.59,-150C3315.03,-150 3245,-150 3245,-150 3245,-150 3245,-60.12 3245,-60.12"/>
<polygon fill="#6b7280" stroke="#6b7280" stroke-width="1.2" points="3247.8,-60.12 3245,-52.12 3242.2,-60.13 3247.8,-60.12"/>
<text text-anchor="middle" x="3382.5" y="-86.6" font-family="Noto Sans CJK KR" font-size="13.00">아니오</text>
</g>
<!-- user_reward -->
<g id="node44" class="node">
<title>user_reward</title>
<path fill="#dcfce7" stroke="#22c55e" stroke-width="1.4" d="M3128,-52C3128,-52 3002,-52 3002,-52 2996,-52 2990,-46 2990,-40 2990,-40 2990,-28 2990,-28 2990,-22 2996,-16 3002,-16 3002,-16 3128,-16 3128,-16 3134,-16 3140,-22 3140,-28 3140,-28 3140,-40 3140,-40 3140,-46 3134,-52 3128,-52"/>
<text text-anchor="middle" x="3065" y="-30.2" font-family="Noto Sans CJK KR" font-size="16.00">UserReward 발급</text>
</g>
<!-- all_steps_done&#45;&gt;user_reward -->
<g id="edge44" class="edge">
<title>all_steps_done&#45;&gt;user_reward</title>
<path fill="none" stroke="#6b7280" stroke-width="1.2" d="M3374.77,-173C3269.75,-173 3128.25,-173 3128.25,-173 3128.25,-173 3128.25,-60.17 3128.25,-60.17"/>
<polygon fill="#6b7280" stroke="#6b7280" stroke-width="1.2" points="3131.05,-60.17 3128.25,-52.17 3125.45,-60.17 3131.05,-60.17"/>
<text text-anchor="middle" x="3252.5" y="-86.6" font-family="Noto Sans CJK KR" font-size="13.00">예</text>
</g>
<!-- entry -->
<g id="node9" class="node">
<title>entry</title>
<path fill="#eff6ff" stroke="#3b82f6" stroke-width="1.4" d="M2175,-4204C2175,-4204 2011,-4204 2011,-4204 2005,-4204 1999,-4198 1999,-4192 1999,-4192 1999,-4180 1999,-4180 1999,-4174 2005,-4168 2011,-4168 2011,-4168 2175,-4168 2175,-4168 2181,-4168 2187,-4174 2187,-4180 2187,-4180 2187,-4192 2187,-4192 2187,-4198 2181,-4204 2175,-4204"/>
<text text-anchor="middle" x="2093" y="-4182.2" font-family="Noto Sans CJK KR" font-size="16.00">서비스 관리자 콘솔 진입</text>
</g>
<!-- entry&#45;&gt;login_decision -->
<g id="edge1" class="edge">
<title>entry&#45;&gt;login_decision</title>
<path fill="none" stroke="#6b7280" stroke-width="1.2" d="M2093,-4167.78C2093,-4167.78 2093,-4113.35 2093,-4113.35"/>
<polygon fill="#6b7280" stroke="#6b7280" stroke-width="1.2" points="2095.8,-4113.35 2093,-4105.35 2090.2,-4113.35 2095.8,-4113.35"/>
</g>
<!-- login_action -->
<g id="node11" class="node">
<title>login_action</title>
<path fill="#f3f4f6" stroke="#6b7280" stroke-width="1.4" d="M2267,-3862C2267,-3862 2137,-3862 2137,-3862 2131,-3862 2125,-3856 2125,-3850 2125,-3850 2125,-3838 2125,-3838 2125,-3832 2131,-3826 2137,-3826 2137,-3826 2267,-3826 2267,-3826 2273,-3826 2279,-3832 2279,-3838 2279,-3838 2279,-3850 2279,-3850 2279,-3856 2273,-3862 2267,-3862"/>
<text text-anchor="middle" x="2202" y="-3840.2" font-family="Noto Sans CJK KR" font-size="16.00">운영 관리자 로그인</text>
</g>
<!-- login_page&#45;&gt;login_action -->
<g id="edge3" class="edge">
<title>login_page&#45;&gt;login_action</title>
<path fill="none" stroke="#6b7280" stroke-width="1.2" d="M2202,-3924.84C2202,-3924.84 2202,-3870.04 2202,-3870.04"/>
<polygon fill="#6b7280" stroke="#6b7280" stroke-width="1.2" points="2204.8,-3870.04 2202,-3862.04 2199.2,-3870.04 2204.8,-3870.04"/>
</g>
<!-- auth_success -->
<g id="node12" class="node">
<title>auth_success</title>
<path fill="#dcfce7" stroke="#22c55e" stroke-width="1.4" d="M2217,-3763C2217,-3763 2151,-3763 2151,-3763 2145,-3763 2139,-3757 2139,-3751 2139,-3751 2139,-3739 2139,-3739 2139,-3733 2145,-3727 2151,-3727 2151,-3727 2217,-3727 2217,-3727 2223,-3727 2229,-3733 2229,-3739 2229,-3739 2229,-3751 2229,-3751 2229,-3757 2223,-3763 2217,-3763"/>
<text text-anchor="middle" x="2184" y="-3741.2" font-family="Noto Sans CJK KR" font-size="16.00">인증 성공</text>
</g>
<!-- login_action&#45;&gt;auth_success -->
<g id="edge4" class="edge">
<title>login_action&#45;&gt;auth_success</title>
<path fill="none" stroke="#6b7280" stroke-width="1.2" d="M2184,-3825.84C2184,-3825.84 2184,-3771.04 2184,-3771.04"/>
<polygon fill="#6b7280" stroke="#6b7280" stroke-width="1.2" points="2186.8,-3771.04 2184,-3763.04 2181.2,-3771.04 2186.8,-3771.04"/>
</g>
<!-- auth_success&#45;&gt;dashboard -->
<g id="edge5" class="edge">
<title>auth_success&#45;&gt;dashboard</title>
<path fill="none" stroke="#6b7280" stroke-width="1.2" d="M2168,-3726.84C2168,-3726.84 2168,-3672.04 2168,-3672.04"/>
<polygon fill="#6b7280" stroke="#6b7280" stroke-width="1.2" points="2170.8,-3672.04 2168,-3664.04 2165.2,-3672.04 2170.8,-3672.04"/>
</g>
<!-- home_summary -->
<g id="node14" class="node">
<title>home_summary</title>
<path fill="#ffffff" stroke="#6b7280" stroke-width="1.4" d="M2009.5,-3552C2009.5,-3552 1860.5,-3552 1860.5,-3552 1854.5,-3552 1848.5,-3546 1848.5,-3540 1848.5,-3540 1848.5,-3528 1848.5,-3528 1848.5,-3522 1854.5,-3516 1860.5,-3516 1860.5,-3516 2009.5,-3516 2009.5,-3516 2015.5,-3516 2021.5,-3522 2021.5,-3528 2021.5,-3528 2021.5,-3540 2021.5,-3540 2021.5,-3546 2015.5,-3552 2009.5,-3552"/>
<text text-anchor="middle" x="1935" y="-3530.2" font-family="Noto Sans CJK KR" font-size="16.00">전체 서비스 현황 요약</text>
</g>
<!-- dashboard&#45;&gt;home_summary -->
<g id="edge7" class="edge">
<title>dashboard&#45;&gt;home_summary</title>
<path fill="none" stroke="#6b7280" stroke-width="1.2" d="M1995.25,-3627.51C1995.25,-3627.51 1995.25,-3560.15 1995.25,-3560.15"/>
<polygon fill="#6b7280" stroke="#6b7280" stroke-width="1.2" points="1998.05,-3560.15 1995.25,-3552.15 1992.45,-3560.15 1998.05,-3560.15"/>
</g>
<!-- partner_mgmt -->
<g id="node15" class="node">
<title>partner_mgmt</title>
<path fill="#ffffff" stroke="#6b7280" stroke-width="1.4" d="M1624.5,-2842C1624.5,-2842 1435.5,-2842 1435.5,-2842 1429.5,-2842 1423.5,-2836 1423.5,-2830 1423.5,-2830 1423.5,-2818 1423.5,-2818 1423.5,-2812 1429.5,-2806 1435.5,-2806 1435.5,-2806 1624.5,-2806 1624.5,-2806 1630.5,-2806 1636.5,-2812 1636.5,-2818 1636.5,-2818 1636.5,-2830 1636.5,-2830 1636.5,-2836 1630.5,-2842 1624.5,-2842"/>
<text text-anchor="middle" x="1530" y="-2820.2" font-family="Noto Sans CJK KR" font-size="16.00">제휴사 / 제휴사 관리자 관리</text>
</g>
<!-- dashboard&#45;&gt;partner_mgmt -->
<g id="edge8" class="edge">
<title>dashboard&#45;&gt;partner_mgmt</title>
<path fill="none" stroke="#6b7280" stroke-width="1.2" d="M1968.7,-3642C1824.61,-3642 1595.5,-3642 1595.5,-3642 1595.5,-3642 1595.5,-2850.23 1595.5,-2850.23"/>
<polygon fill="#6b7280" stroke="#6b7280" stroke-width="1.2" points="1598.3,-2850.23 1595.5,-2842.23 1592.7,-2850.23 1598.3,-2850.23"/>
</g>
<!-- event_ops -->
<g id="node16" class="node">
<title>event_ops</title>
<path fill="#ffffff" stroke="#6b7280" stroke-width="1.4" d="M2010,-2011C2010,-2011 1876,-2011 1876,-2011 1870,-2011 1864,-2005 1864,-1999 1864,-1999 1864,-1987 1864,-1987 1864,-1981 1870,-1975 1876,-1975 1876,-1975 2010,-1975 2010,-1975 2016,-1975 2022,-1981 2022,-1987 2022,-1987 2022,-1999 2022,-1999 2022,-2005 2016,-2011 2010,-2011"/>
<text text-anchor="middle" x="1943" y="-1989.2" font-family="Noto Sans CJK KR" font-size="16.00">이벤트 심사 및 운영</text>
</g>
<!-- dashboard&#45;&gt;event_ops -->
<g id="edge9" class="edge">
<title>dashboard&#45;&gt;event_ops</title>
<path fill="none" stroke="#6b7280" stroke-width="1.2" d="M2030.81,-3627.79C2030.81,-3448.07 2030.81,-1999 2030.81,-1999 2030.81,-1999 2029.94,-1999 2029.94,-1999"/>
<polygon fill="#6b7280" stroke="#6b7280" stroke-width="1.2" points="2030.07,-1996.2 2022.07,-1999 2030.07,-2001.8 2030.07,-1996.2"/>
</g>
<!-- user_monitor -->
<g id="node17" class="node">
<title>user_monitor</title>
<path fill="#ffffff" stroke="#6b7280" stroke-width="1.4" d="M1563.5,-3552C1563.5,-3552 1418.5,-3552 1418.5,-3552 1412.5,-3552 1406.5,-3546 1406.5,-3540 1406.5,-3540 1406.5,-3528 1406.5,-3528 1406.5,-3522 1412.5,-3516 1418.5,-3516 1418.5,-3516 1563.5,-3516 1563.5,-3516 1569.5,-3516 1575.5,-3522 1575.5,-3528 1575.5,-3528 1575.5,-3540 1575.5,-3540 1575.5,-3546 1569.5,-3552 1563.5,-3552"/>
<text text-anchor="middle" x="1491" y="-3530.2" font-family="Noto Sans CJK KR" font-size="16.00">사용자 활동 모니터링</text>
</g>
<!-- dashboard&#45;&gt;user_monitor -->
<g id="edge10" class="edge">
<title>dashboard&#45;&gt;user_monitor</title>
<path fill="none" stroke="#6b7280" stroke-width="1.2" d="M1968.86,-3649C1796.83,-3649 1491,-3649 1491,-3649 1491,-3649 1491,-3560.22 1491,-3560.22"/>
<polygon fill="#6b7280" stroke="#6b7280" stroke-width="1.2" points="1493.8,-3560.22 1491,-3552.22 1488.2,-3560.22 1493.8,-3560.22"/>
</g>
<!-- asset_ops -->
<g id="node18" class="node">
<title>asset_ops</title>
<path fill="#ffffff" stroke="#6b7280" stroke-width="1.4" d="M1796.5,-3552C1796.5,-3552 1627.5,-3552 1627.5,-3552 1621.5,-3552 1615.5,-3546 1615.5,-3540 1615.5,-3540 1615.5,-3528 1615.5,-3528 1615.5,-3522 1621.5,-3516 1627.5,-3516 1627.5,-3516 1796.5,-3516 1796.5,-3516 1802.5,-3516 1808.5,-3522 1808.5,-3528 1808.5,-3528 1808.5,-3540 1808.5,-3540 1808.5,-3546 1802.5,-3552 1796.5,-3552"/>
<text text-anchor="middle" x="1712" y="-3530.2" font-family="Noto Sans CJK KR" font-size="16.00">NFC / NFT / 리워드 운영</text>
</g>
<!-- dashboard&#45;&gt;asset_ops -->
<g id="edge11" class="edge">
<title>dashboard&#45;&gt;asset_ops</title>
<path fill="none" stroke="#6b7280" stroke-width="1.2" d="M1968.91,-3635C1859.88,-3635 1712,-3635 1712,-3635 1712,-3635 1712,-3560.06 1712,-3560.06"/>
<polygon fill="#6b7280" stroke="#6b7280" stroke-width="1.2" points="1714.8,-3560.06 1712,-3552.06 1709.2,-3560.06 1714.8,-3560.06"/>
</g>
<!-- policy_mgmt -->
<g id="node19" class="node">
<title>policy_mgmt</title>
<path fill="#ffffff" stroke="#6b7280" stroke-width="1.4" d="M1354,-3552C1354,-3552 1162,-3552 1162,-3552 1156,-3552 1150,-3546 1150,-3540 1150,-3540 1150,-3528 1150,-3528 1150,-3522 1156,-3516 1162,-3516 1162,-3516 1354,-3516 1354,-3516 1360,-3516 1366,-3522 1366,-3528 1366,-3528 1366,-3540 1366,-3540 1366,-3546 1360,-3552 1354,-3552"/>
<text text-anchor="middle" x="1258" y="-3530.2" font-family="Noto Sans CJK KR" font-size="16.00">서비스 공지 / 운영 정책 관리</text>
</g>
<!-- dashboard&#45;&gt;policy_mgmt -->
<g id="edge12" class="edge">
<title>dashboard&#45;&gt;policy_mgmt</title>
<path fill="none" stroke="#6b7280" stroke-width="1.2" d="M1968.72,-3656C1742.22,-3656 1258,-3656 1258,-3656 1258,-3656 1258,-3560 1258,-3560"/>
<polygon fill="#6b7280" stroke="#6b7280" stroke-width="1.2" points="1260.8,-3560 1258,-3552 1255.2,-3560 1260.8,-3560"/>
</g>
<!-- partner_list -->
<g id="node20" class="node">
<title>partner_list</title>
<path fill="#ffffff" stroke="#6b7280" stroke-width="1.4" d="M1587.5,-835C1587.5,-835 1472.5,-835 1472.5,-835 1466.5,-835 1460.5,-829 1460.5,-823 1460.5,-823 1460.5,-811 1460.5,-811 1460.5,-805 1466.5,-799 1472.5,-799 1472.5,-799 1587.5,-799 1587.5,-799 1593.5,-799 1599.5,-805 1599.5,-811 1599.5,-811 1599.5,-823 1599.5,-823 1599.5,-829 1593.5,-835 1587.5,-835"/>
<text text-anchor="middle" x="1530" y="-813.2" font-family="Noto Sans CJK KR" font-size="16.00">제휴사 목록 조회</text>
</g>
<!-- partner_mgmt&#45;&gt;partner_list -->
<g id="edge13" class="edge">
<title>partner_mgmt&#45;&gt;partner_list</title>
<path fill="none" stroke="#6b7280" stroke-width="1.2" d="M1506.83,-2805.73C1506.83,-2805.73 1506.83,-843.03 1506.83,-843.03"/>
<polygon fill="#6b7280" stroke="#6b7280" stroke-width="1.2" points="1509.63,-843.03 1506.83,-835.03 1504.03,-843.03 1509.63,-843.03"/>
</g>
<!-- req_list -->
<g id="node25" class="node">
<title>req_list</title>
<path fill="#ffffff" stroke="#6b7280" stroke-width="1.4" d="M3618.5,-1899C3618.5,-1899 3343.5,-1899 3343.5,-1899 3337.5,-1899 3331.5,-1893 3331.5,-1887 3331.5,-1887 3331.5,-1875 3331.5,-1875 3331.5,-1869 3337.5,-1863 3343.5,-1863 3343.5,-1863 3618.5,-1863 3618.5,-1863 3624.5,-1863 3630.5,-1869 3630.5,-1875 3630.5,-1875 3630.5,-1887 3630.5,-1887 3630.5,-1893 3624.5,-1899 3618.5,-1899"/>
<text text-anchor="middle" x="3481" y="-1877.2" font-family="Noto Sans CJK KR" font-size="16.00">제휴사 등록 이벤트 / 수정 요청 목록 조회</text>
</g>
<!-- event_ops&#45;&gt;req_list -->
<g id="edge19" class="edge">
<title>event_ops&#45;&gt;req_list</title>
<path fill="none" stroke="#6b7280" stroke-width="1.2" d="M2022.14,-1987C2317.15,-1987 3336,-1987 3336,-1987 3336,-1987 3336,-1907.46 3336,-1907.46"/>
<polygon fill="#6b7280" stroke="#6b7280" stroke-width="1.2" points="3338.8,-1907.46 3336,-1899.46 3333.2,-1907.46 3338.8,-1907.46"/>
</g>
<!-- users_trend -->
<g id="node45" class="node">
<title>users_trend</title>
<path fill="#ffffff" stroke="#6b7280" stroke-width="1.4" d="M3077.5,-3440C3077.5,-3440 2836.5,-3440 2836.5,-3440 2830.5,-3440 2824.5,-3434 2824.5,-3428 2824.5,-3428 2824.5,-3416 2824.5,-3416 2824.5,-3410 2830.5,-3404 2836.5,-3404 2836.5,-3404 3077.5,-3404 3077.5,-3404 3083.5,-3404 3089.5,-3410 3089.5,-3416 3089.5,-3416 3089.5,-3428 3089.5,-3428 3089.5,-3434 3083.5,-3440 3077.5,-3440"/>
<text text-anchor="middle" x="2957" y="-3418.2" font-family="Noto Sans CJK KR" font-size="16.00">가입 사용자 / 참여 사용자 추이 확인</text>
</g>
<!-- user_monitor&#45;&gt;users_trend -->
<g id="edge46" class="edge">
<title>user_monitor&#45;&gt;users_trend</title>
<path fill="none" stroke="#6b7280" stroke-width="1.2" d="M1474.17,-3515.85C1474.17,-3503.73 1474.17,-3490 1474.17,-3490 1474.17,-3490 2957,-3490 2957,-3490 2957,-3490 2957,-3448.22 2957,-3448.22"/>
<polygon fill="#6b7280" stroke="#6b7280" stroke-width="1.2" points="2959.8,-3448.22 2957,-3440.22 2954.2,-3448.22 2959.8,-3448.22"/>
</g>
<!-- user_profile -->
<g id="node68" class="node">
<title>user_profile</title>
<path fill="#ffffff" stroke="#6b7280" stroke-width="1.4" d="M743,-3440C743,-3440 569,-3440 569,-3440 563,-3440 557,-3434 557,-3428 557,-3428 557,-3416 557,-3416 557,-3410 563,-3404 569,-3404 569,-3404 743,-3404 743,-3404 749,-3404 755,-3410 755,-3416 755,-3416 755,-3428 755,-3428 755,-3434 749,-3440 743,-3440"/>
<text text-anchor="middle" x="656" y="-3418.2" font-family="Noto Sans CJK KR" font-size="16.00">사용자 계정 / 프로필 확인</text>
</g>
<!-- user_monitor&#45;&gt;user_profile -->
<g id="edge81" class="edge">
<title>user_monitor&#45;&gt;user_profile</title>
<path fill="none" stroke="#6b7280" stroke-width="1.2" d="M1415,-3515.87C1415,-3495.43 1415,-3465 1415,-3465 1415,-3465 656,-3465 656,-3465 656,-3465 656,-3448.49 656,-3448.49"/>
<polygon fill="#6b7280" stroke="#6b7280" stroke-width="1.2" points="658.8,-3448.49 656,-3440.49 653.2,-3448.49 658.8,-3448.49"/>
</g>
<!-- reward_policy -->
<g id="node63" class="node">
<title>reward_policy</title>
<path fill="#ffffff" stroke="#6b7280" stroke-width="1.4" d="M2278.5,-3440C2278.5,-3440 2081.5,-3440 2081.5,-3440 2075.5,-3440 2069.5,-3434 2069.5,-3428 2069.5,-3428 2069.5,-3416 2069.5,-3416 2069.5,-3410 2075.5,-3404 2081.5,-3404 2081.5,-3404 2278.5,-3404 2278.5,-3404 2284.5,-3404 2290.5,-3410 2290.5,-3416 2290.5,-3416 2290.5,-3428 2290.5,-3428 2290.5,-3434 2284.5,-3440 2278.5,-3440"/>
<text text-anchor="middle" x="2180" y="-3418.2" font-family="Noto Sans CJK KR" font-size="16.00">RewardTemplate 정책 점검</text>
</g>
<!-- asset_ops&#45;&gt;reward_policy -->
<g id="edge73" class="edge">
<title>asset_ops&#45;&gt;reward_policy</title>
<path fill="none" stroke="#6b7280" stroke-width="1.2" d="M1792,-3515.54C1792,-3485.17 1792,-3428 1792,-3428 1792,-3428 2061.33,-3428 2061.33,-3428"/>
<polygon fill="#6b7280" stroke="#6b7280" stroke-width="1.2" points="2061.33,-3430.8 2069.33,-3428 2061.33,-3425.2 2061.33,-3430.8"/>
</g>
<!-- policy_review -->
<g id="node74" class="node">
<title>policy_review</title>
<path fill="#ffffff" stroke="#6b7280" stroke-width="1.4" d="M1112,-3440C1112,-3440 1012,-3440 1012,-3440 1006,-3440 1000,-3434 1000,-3428 1000,-3428 1000,-3416 1000,-3416 1000,-3410 1006,-3404 1012,-3404 1012,-3404 1112,-3404 1112,-3404 1118,-3404 1124,-3410 1124,-3416 1124,-3416 1124,-3428 1124,-3428 1124,-3434 1118,-3440 1112,-3440"/>
<text text-anchor="middle" x="1062" y="-3418.2" font-family="Noto Sans CJK KR" font-size="16.00">운영 정책 검토</text>
</g>
<!-- policy_mgmt&#45;&gt;policy_review -->
<g id="edge90" class="edge">
<title>policy_mgmt&#45;&gt;policy_review</title>
<path fill="none" stroke="#6b7280" stroke-width="1.2" d="M1229.67,-3515.82C1229.67,-3482.72 1229.67,-3416 1229.67,-3416 1229.67,-3416 1132.43,-3416 1132.43,-3416"/>
<polygon fill="#6b7280" stroke="#6b7280" stroke-width="1.2" points="1132.43,-3413.2 1124.43,-3416 1132.43,-3418.8 1132.43,-3413.2"/>
</g>
<!-- partner_new -->
<g id="node21" class="node">
<title>partner_new</title>
<path fill="#ffffff" stroke="#6b7280" stroke-width="1.4" d="M1257.5,-720C1257.5,-720 1142.5,-720 1142.5,-720 1136.5,-720 1130.5,-714 1130.5,-708 1130.5,-708 1130.5,-696 1130.5,-696 1130.5,-690 1136.5,-684 1142.5,-684 1142.5,-684 1257.5,-684 1257.5,-684 1263.5,-684 1269.5,-690 1269.5,-696 1269.5,-696 1269.5,-708 1269.5,-708 1269.5,-714 1263.5,-720 1257.5,-720"/>
<text text-anchor="middle" x="1200" y="-698.2" font-family="Noto Sans CJK KR" font-size="16.00">신규 제휴사 등록</text>
</g>
<!-- partner_list&#45;&gt;partner_new -->
<g id="edge14" class="edge">
<title>partner_list&#45;&gt;partner_new</title>
<path fill="none" stroke="#6b7280" stroke-width="1.2" d="M1460.34,-817C1360.82,-817 1189.83,-817 1189.83,-817 1189.83,-817 1189.83,-728.22 1189.83,-728.22"/>
<polygon fill="#6b7280" stroke="#6b7280" stroke-width="1.2" points="1192.63,-728.22 1189.83,-720.22 1187.03,-728.22 1192.63,-728.22"/>
</g>
<!-- partner_admin_acc -->
<g id="node22" class="node">
<title>partner_admin_acc</title>
<path fill="#ffffff" stroke="#6b7280" stroke-width="1.4" d="M1486,-720C1486,-720 1322,-720 1322,-720 1316,-720 1310,-714 1310,-708 1310,-708 1310,-696 1310,-696 1310,-690 1316,-684 1322,-684 1322,-684 1486,-684 1486,-684 1492,-684 1498,-690 1498,-696 1498,-696 1498,-708 1498,-708 1498,-714 1492,-720 1486,-720"/>
<text text-anchor="middle" x="1404" y="-698.2" font-family="Noto Sans CJK KR" font-size="16.00">제휴사 관리자 계정 발급</text>
</g>
<!-- partner_list&#45;&gt;partner_admin_acc -->
<g id="edge15" class="edge">
<title>partner_list&#45;&gt;partner_admin_acc</title>
<path fill="none" stroke="#6b7280" stroke-width="1.2" d="M1479.25,-798.78C1479.25,-798.78 1479.25,-728.14 1479.25,-728.14"/>
<polygon fill="#6b7280" stroke="#6b7280" stroke-width="1.2" points="1482.05,-728.14 1479.25,-720.14 1476.45,-728.14 1482.05,-728.14"/>
</g>
<!-- partner_scope -->
<g id="node23" class="node">
<title>partner_scope</title>
<path fill="#ffffff" stroke="#6b7280" stroke-width="1.4" d="M1763.5,-720C1763.5,-720 1550.5,-720 1550.5,-720 1544.5,-720 1538.5,-714 1538.5,-708 1538.5,-708 1538.5,-696 1538.5,-696 1538.5,-690 1544.5,-684 1550.5,-684 1550.5,-684 1763.5,-684 1763.5,-684 1769.5,-684 1775.5,-690 1775.5,-696 1775.5,-696 1775.5,-708 1775.5,-708 1775.5,-714 1769.5,-720 1763.5,-720"/>
<text text-anchor="middle" x="1657" y="-698.2" font-family="Noto Sans CJK KR" font-size="16.00">제휴사별 이벤트 권한 범위 설정</text>
</g>
<!-- partner_list&#45;&gt;partner_scope -->
<g id="edge16" class="edge">
<title>partner_list&#45;&gt;partner_scope</title>
<path fill="none" stroke="#6b7280" stroke-width="1.2" d="M1569,-798.78C1569,-798.78 1569,-728.14 1569,-728.14"/>
<polygon fill="#6b7280" stroke="#6b7280" stroke-width="1.2" points="1571.8,-728.14 1569,-720.14 1566.2,-728.14 1571.8,-728.14"/>
</g>
<!-- partner_done -->
<g id="node24" class="node">
<title>partner_done</title>
<path fill="#dcfce7" stroke="#22c55e" stroke-width="1.4" d="M1474,-592C1474,-592 1374,-592 1374,-592 1368,-592 1362,-586 1362,-580 1362,-580 1362,-568 1362,-568 1362,-562 1368,-556 1374,-556 1374,-556 1474,-556 1474,-556 1480,-556 1486,-562 1486,-568 1486,-568 1486,-580 1486,-580 1486,-586 1480,-592 1474,-592"/>
<text text-anchor="middle" x="1424" y="-570.2" font-family="Noto Sans CJK KR" font-size="16.00">권한 설정 완료</text>
</g>
<!-- partner_scope&#45;&gt;partner_done -->
<g id="edge17" class="edge">
<title>partner_scope&#45;&gt;partner_done</title>
<path fill="none" stroke="#6b7280" stroke-width="1.2" d="M1657,-684C1657,-650.06 1657,-580 1657,-580 1657,-580 1494.13,-580 1494.13,-580"/>
<polygon fill="#6b7280" stroke="#6b7280" stroke-width="1.2" points="1494.13,-577.2 1486.13,-580 1494.13,-582.8 1494.13,-577.2"/>
</g>
<!-- partner_done&#45;&gt;dashboard -->
<g id="edge18" class="edge">
<title>partner_done&#45;&gt;dashboard</title>
<path fill="none" stroke="#6b7280" stroke-width="1.2" d="M1486.1,-568C1641.32,-568 2033.75,-568 2033.75,-568 2033.75,-568 2033.75,-3619.92 2033.75,-3619.92"/>
<polygon fill="#6b7280" stroke="#6b7280" stroke-width="1.2" points="2030.95,-3619.92 2033.75,-3627.92 2036.55,-3619.92 2030.95,-3619.92"/>
</g>
<!-- review_base -->
<g id="node26" class="node">
<title>review_base</title>
<path fill="#ffffff" stroke="#6b7280" stroke-width="1.4" d="M3557.5,-1800C3557.5,-1800 3408.5,-1800 3408.5,-1800 3402.5,-1800 3396.5,-1794 3396.5,-1788 3396.5,-1788 3396.5,-1776 3396.5,-1776 3396.5,-1770 3402.5,-1764 3408.5,-1764 3408.5,-1764 3557.5,-1764 3557.5,-1764 3563.5,-1764 3569.5,-1770 3569.5,-1776 3569.5,-1776 3569.5,-1788 3569.5,-1788 3569.5,-1794 3563.5,-1800 3557.5,-1800"/>
<text text-anchor="middle" x="3483" y="-1778.2" font-family="Noto Sans CJK KR" font-size="16.00">이벤트 기본 정보 검토</text>
</g>
<!-- req_list&#45;&gt;review_base -->
<g id="edge20" class="edge">
<title>req_list&#45;&gt;review_base</title>
<path fill="none" stroke="#6b7280" stroke-width="1.2" d="M3483,-1862.84C3483,-1862.84 3483,-1808.04 3483,-1808.04"/>
<polygon fill="#6b7280" stroke="#6b7280" stroke-width="1.2" points="3485.8,-1808.04 3483,-1800.04 3480.2,-1808.04 3485.8,-1808.04"/>
</g>
<!-- review_status -->
<g id="node27" class="node">
<title>review_status</title>
<path fill="#ffffff" stroke="#6b7280" stroke-width="1.4" d="M3633.5,-1701C3633.5,-1701 3342.5,-1701 3342.5,-1701 3336.5,-1701 3330.5,-1695 3330.5,-1689 3330.5,-1689 3330.5,-1661 3330.5,-1661 3330.5,-1655 3336.5,-1649 3342.5,-1649 3342.5,-1649 3633.5,-1649 3633.5,-1649 3639.5,-1649 3645.5,-1655 3645.5,-1661 3645.5,-1661 3645.5,-1689 3645.5,-1689 3645.5,-1695 3639.5,-1701 3633.5,-1701"/>
<text text-anchor="middle" x="3488" y="-1680.2" font-family="Noto Sans CJK KR" font-size="16.00">이벤트 상태값 검토</text>
<text text-anchor="middle" x="3488" y="-1662.2" font-family="Noto Sans CJK KR" font-size="16.00">upcoming / active / completed / ended</text>
</g>
<!-- review_base&#45;&gt;review_status -->
<g id="edge21" class="edge">
<title>review_base&#45;&gt;review_status</title>
<path fill="none" stroke="#6b7280" stroke-width="1.2" d="M3483,-1763.85C3483,-1763.85 3483,-1709.28 3483,-1709.28"/>
<polygon fill="#6b7280" stroke="#6b7280" stroke-width="1.2" points="3485.8,-1709.28 3483,-1701.28 3480.2,-1709.28 3485.8,-1709.28"/>
</g>
<!-- review_featured -->
<g id="node28" class="node">
<title>review_featured</title>
<path fill="#ffffff" stroke="#6b7280" stroke-width="1.4" d="M3558.5,-1586C3558.5,-1586 3391.5,-1586 3391.5,-1586 3385.5,-1586 3379.5,-1580 3379.5,-1574 3379.5,-1574 3379.5,-1562 3379.5,-1562 3379.5,-1556 3385.5,-1550 3391.5,-1550 3391.5,-1550 3558.5,-1550 3558.5,-1550 3564.5,-1550 3570.5,-1556 3570.5,-1562 3570.5,-1562 3570.5,-1574 3570.5,-1574 3570.5,-1580 3564.5,-1586 3558.5,-1586"/>
<text text-anchor="middle" x="3475" y="-1564.2" font-family="Noto Sans CJK KR" font-size="16.00">featured 노출 여부 검토</text>
</g>
<!-- review_status&#45;&gt;review_featured -->
<g id="edge22" class="edge">
<title>review_status&#45;&gt;review_featured</title>
<path fill="none" stroke="#6b7280" stroke-width="1.2" d="M3475,-1648.82C3475,-1648.82 3475,-1594.2 3475,-1594.2"/>
<polygon fill="#6b7280" stroke="#6b7280" stroke-width="1.2" points="3477.8,-1594.2 3475,-1586.2 3472.2,-1594.2 3477.8,-1594.2"/>
</g>
<!-- review_steps -->
<g id="node29" class="node">
<title>review_steps</title>
<path fill="#ffffff" stroke="#6b7280" stroke-width="1.4" d="M3545,-1487C3545,-1487 3355,-1487 3355,-1487 3349,-1487 3343,-1481 3343,-1475 3343,-1475 3343,-1463 3343,-1463 3343,-1457 3349,-1451 3355,-1451 3355,-1451 3545,-1451 3545,-1451 3551,-1451 3557,-1457 3557,-1463 3557,-1463 3557,-1475 3557,-1475 3557,-1481 3551,-1487 3545,-1487"/>
<text text-anchor="middle" x="3450" y="-1465.2" font-family="Noto Sans CJK KR" font-size="16.00">스텝 / 순서 / finalStep 검토</text>
</g>
<!-- review_featured&#45;&gt;review_steps -->
<g id="edge23" class="edge">
<title>review_featured&#45;&gt;review_steps</title>
<path fill="none" stroke="#6b7280" stroke-width="1.2" d="M3468.25,-1549.84C3468.25,-1549.84 3468.25,-1495.04 3468.25,-1495.04"/>
<polygon fill="#6b7280" stroke="#6b7280" stroke-width="1.2" points="3471.05,-1495.04 3468.25,-1487.04 3465.45,-1495.04 3471.05,-1495.04"/>
</g>
<!-- review_tag -->
<g id="node30" class="node">
<title>review_tag</title>
<path fill="#ffffff" stroke="#6b7280" stroke-width="1.4" d="M3536,-1388C3536,-1388 3348,-1388 3348,-1388 3342,-1388 3336,-1382 3336,-1376 3336,-1376 3336,-1364 3336,-1364 3336,-1358 3342,-1352 3348,-1352 3348,-1352 3536,-1352 3536,-1352 3542,-1352 3548,-1358 3548,-1364 3548,-1364 3548,-1376 3548,-1376 3548,-1382 3542,-1388 3536,-1388"/>
<text text-anchor="middle" x="3442" y="-1366.2" font-family="Noto Sans CJK KR" font-size="16.00">NFC tagUid 중복 여부 검토</text>
</g>
<!-- review_steps&#45;&gt;review_tag -->
<g id="edge24" class="edge">
<title>review_steps&#45;&gt;review_tag</title>
<path fill="none" stroke="#6b7280" stroke-width="1.2" d="M3445.5,-1450.84C3445.5,-1450.84 3445.5,-1396.04 3445.5,-1396.04"/>
<polygon fill="#6b7280" stroke="#6b7280" stroke-width="1.2" points="3448.3,-1396.04 3445.5,-1388.04 3442.7,-1396.04 3448.3,-1396.04"/>
</g>
<!-- review_nft -->
<g id="node31" class="node">
<title>review_nft</title>
<path fill="#ffffff" stroke="#6b7280" stroke-width="1.4" d="M3493.5,-1289C3493.5,-1289 3378.5,-1289 3378.5,-1289 3372.5,-1289 3366.5,-1283 3366.5,-1277 3366.5,-1277 3366.5,-1265 3366.5,-1265 3366.5,-1259 3372.5,-1253 3378.5,-1253 3378.5,-1253 3493.5,-1253 3493.5,-1253 3499.5,-1253 3505.5,-1259 3505.5,-1265 3505.5,-1265 3505.5,-1277 3505.5,-1277 3505.5,-1283 3499.5,-1289 3493.5,-1289"/>
<text text-anchor="middle" x="3436" y="-1267.2" font-family="Noto Sans CJK KR" font-size="16.00">NFT 템플릿 검토</text>
</g>
<!-- review_tag&#45;&gt;review_nft -->
<g id="edge25" class="edge">
<title>review_tag&#45;&gt;review_nft</title>
<path fill="none" stroke="#6b7280" stroke-width="1.2" d="M3436,-1351.84C3436,-1351.84 3436,-1297.04 3436,-1297.04"/>
<polygon fill="#6b7280" stroke="#6b7280" stroke-width="1.2" points="3438.8,-1297.04 3436,-1289.04 3433.2,-1297.04 3438.8,-1297.04"/>
</g>
<!-- review_reward -->
<g id="node32" class="node">
<title>review_reward</title>
<path fill="#ffffff" stroke="#6b7280" stroke-width="1.4" d="M3505.5,-1190C3505.5,-1190 3342.5,-1190 3342.5,-1190 3336.5,-1190 3330.5,-1184 3330.5,-1178 3330.5,-1178 3330.5,-1166 3330.5,-1166 3330.5,-1160 3336.5,-1154 3342.5,-1154 3342.5,-1154 3505.5,-1154 3505.5,-1154 3511.5,-1154 3517.5,-1160 3517.5,-1166 3517.5,-1166 3517.5,-1178 3517.5,-1178 3517.5,-1184 3511.5,-1190 3505.5,-1190"/>
<text text-anchor="middle" x="3424" y="-1168.2" font-family="Noto Sans CJK KR" font-size="16.00">RewardTemplate 검토</text>
</g>
<!-- review_nft&#45;&gt;review_reward -->
<g id="edge26" class="edge">
<title>review_nft&#45;&gt;review_reward</title>
<path fill="none" stroke="#6b7280" stroke-width="1.2" d="M3436,-1252.84C3436,-1252.84 3436,-1198.04 3436,-1198.04"/>
<polygon fill="#6b7280" stroke="#6b7280" stroke-width="1.2" points="3438.8,-1198.04 3436,-1190.04 3433.2,-1198.04 3438.8,-1198.04"/>
</g>
<!-- review_reward&#45;&gt;review_ok -->
<g id="edge27" class="edge">
<title>review_reward&#45;&gt;review_ok</title>
<path fill="none" stroke="#6b7280" stroke-width="1.2" d="M3330.32,-1172C3278.21,-1172 3223.75,-1172 3223.75,-1172 3223.75,-1172 3223.75,-1088.27 3223.75,-1088.27"/>
<polygon fill="#6b7280" stroke="#6b7280" stroke-width="1.2" points="3226.55,-1088.27 3223.75,-1080.27 3220.95,-1088.27 3226.55,-1088.27"/>
</g>
<!-- reject_req&#45;&gt;partner_list -->
<g id="edge29" class="edge">
<title>reject_req&#45;&gt;partner_list</title>
<path fill="none" stroke="#6b7280" stroke-width="1.2" d="M3329.82,-923C2966.76,-923 1553.17,-923 1553.17,-923 1553.17,-923 1553.17,-843.46 1553.17,-843.46"/>
<polygon fill="#6b7280" stroke="#6b7280" stroke-width="1.2" points="1555.97,-843.46 1553.17,-835.46 1550.37,-843.46 1555.97,-843.46"/>
</g>
<!-- catalog_reflect -->
<g id="node35" class="node">
<title>catalog_reflect</title>
<path fill="#ffffff" stroke="#6b7280" stroke-width="1.4" d="M3682.5,-835C3682.5,-835 3503.5,-835 3503.5,-835 3497.5,-835 3491.5,-829 3491.5,-823 3491.5,-823 3491.5,-811 3491.5,-811 3491.5,-805 3497.5,-799 3503.5,-799 3503.5,-799 3682.5,-799 3682.5,-799 3688.5,-799 3694.5,-805 3694.5,-811 3694.5,-811 3694.5,-823 3694.5,-823 3694.5,-829 3688.5,-835 3682.5,-835"/>
<text text-anchor="middle" x="3593" y="-813.2" font-family="Noto Sans CJK KR" font-size="16.00">공개 이벤트 카탈로그 반영</text>
</g>
<!-- approve_publish&#45;&gt;catalog_reflect -->
<g id="edge31" class="edge">
<title>approve_publish&#45;&gt;catalog_reflect</title>
<path fill="none" stroke="#6b7280" stroke-width="1.2" d="M3593,-910.51C3593,-910.51 3593,-843.15 3593,-843.15"/>
<polygon fill="#6b7280" stroke="#6b7280" stroke-width="1.2" points="3595.8,-843.15 3593,-835.15 3590.2,-843.15 3595.8,-843.15"/>
</g>
<!-- catalog_reflect&#45;&gt;extra_setting -->
<g id="edge32" class="edge">
<title>catalog_reflect&#45;&gt;extra_setting</title>
<path fill="none" stroke="#6b7280" stroke-width="1.2" d="M3627,-798.97C3627,-774.02 3627,-732 3627,-732 3627,-732 3915.99,-732 3915.99,-732"/>
<polygon fill="#6b7280" stroke="#6b7280" stroke-width="1.2" points="3915.99,-734.8 3923.99,-732 3915.99,-729.2 3915.99,-734.8"/>
</g>
<!-- app_expose -->
<g id="node38" class="node">
<title>app_expose</title>
<path fill="#ffffff" stroke="#6b7280" stroke-width="1.4" d="M3293.5,-720C3293.5,-720 2870.5,-720 2870.5,-720 2864.5,-720 2858.5,-714 2858.5,-708 2858.5,-708 2858.5,-696 2858.5,-696 2858.5,-690 2864.5,-684 2870.5,-684 2870.5,-684 3293.5,-684 3293.5,-684 3299.5,-684 3305.5,-690 3305.5,-696 3305.5,-696 3305.5,-708 3305.5,-708 3305.5,-714 3299.5,-720 3293.5,-720"/>
<text text-anchor="middle" x="3082" y="-698.2" font-family="Noto Sans CJK KR" font-size="16.00">사용자 앱 Home / Event / Collection / Tag / Reward 에 노출</text>
</g>
<!-- catalog_reflect&#45;&gt;app_expose -->
<g id="edge38" class="edge">
<title>catalog_reflect&#45;&gt;app_expose</title>
<path fill="none" stroke="#6b7280" stroke-width="1.2" d="M3510.17,-798.78C3510.17,-766.35 3510.17,-702 3510.17,-702 3510.17,-702 3313.8,-702 3313.8,-702"/>
<polygon fill="#6b7280" stroke="#6b7280" stroke-width="1.2" points="3313.8,-699.2 3305.8,-702 3313.8,-704.8 3313.8,-699.2"/>
</g>
<!-- set_featured&#45;&gt;dashboard -->
<g id="edge36" class="edge">
<title>set_featured&#45;&gt;dashboard</title>
<path fill="none" stroke="#6b7280" stroke-width="1.2" d="M3708.5,-592.09C3708.5,-844.59 3708.5,-3655 3708.5,-3655 3708.5,-3655 2205.3,-3655 2205.3,-3655"/>
<polygon fill="#6b7280" stroke="#6b7280" stroke-width="1.2" points="2205.3,-3652.2 2197.3,-3655 2205.3,-3657.8 2205.3,-3652.2"/>
</g>
<!-- adjust_schedule&#45;&gt;dashboard -->
<g id="edge37" class="edge">
<title>adjust_schedule&#45;&gt;dashboard</title>
<path fill="none" stroke="#6b7280" stroke-width="1.2" d="M3411,-592.09C3411,-631.99 3411,-724 3411,-724 3411,-724 2036.69,-724 2036.69,-724 2036.69,-724 2036.69,-3619.72 2036.69,-3619.72"/>
<polygon fill="#6b7280" stroke="#6b7280" stroke-width="1.2" points="2033.89,-3619.72 2036.69,-3627.72 2039.49,-3619.72 2033.89,-3619.72"/>
</g>
<!-- user_join -->
<g id="node39" class="node">
<title>user_join</title>
<path fill="#ffffff" stroke="#6b7280" stroke-width="1.4" d="M3214,-592C3214,-592 3084,-592 3084,-592 3078,-592 3072,-586 3072,-580 3072,-580 3072,-568 3072,-568 3072,-562 3078,-556 3084,-556 3084,-556 3214,-556 3214,-556 3220,-556 3226,-562 3226,-568 3226,-568 3226,-580 3226,-580 3226,-586 3220,-592 3214,-592"/>
<text text-anchor="middle" x="3149" y="-570.2" font-family="Noto Sans CJK KR" font-size="16.00">사용자 이벤트 참여</text>
</g>
<!-- app_expose&#45;&gt;user_join -->
<g id="edge39" class="edge">
<title>app_expose&#45;&gt;user_join</title>
<path fill="none" stroke="#6b7280" stroke-width="1.2" d="M3149,-683.93C3149,-683.93 3149,-600.39 3149,-600.39"/>
<polygon fill="#6b7280" stroke="#6b7280" stroke-width="1.2" points="3151.8,-600.39 3149,-592.39 3146.2,-600.39 3151.8,-600.39"/>
</g>
<!-- user_nfc -->
<g id="node40" class="node">
<title>user_nfc</title>
<path fill="#ffffff" stroke="#6b7280" stroke-width="1.4" d="M3202.5,-493C3202.5,-493 3135.5,-493 3135.5,-493 3129.5,-493 3123.5,-487 3123.5,-481 3123.5,-481 3123.5,-469 3123.5,-469 3123.5,-463 3129.5,-457 3135.5,-457 3135.5,-457 3202.5,-457 3202.5,-457 3208.5,-457 3214.5,-463 3214.5,-469 3214.5,-469 3214.5,-481 3214.5,-481 3214.5,-487 3208.5,-493 3202.5,-493"/>
<text text-anchor="middle" x="3169" y="-471.2" font-family="Noto Sans CJK KR" font-size="16.00">NFC 인증</text>
</g>
<!-- user_join&#45;&gt;user_nfc -->
<g id="edge40" class="edge">
<title>user_join&#45;&gt;user_nfc</title>
<path fill="none" stroke="#6b7280" stroke-width="1.2" d="M3169,-555.84C3169,-555.84 3169,-501.04 3169,-501.04"/>
<polygon fill="#6b7280" stroke="#6b7280" stroke-width="1.2" points="3171.8,-501.04 3169,-493.04 3166.2,-501.04 3171.8,-501.04"/>
</g>
<!-- step_completion -->
<g id="node41" class="node">
<title>step_completion</title>
<path fill="#ffffff" stroke="#6b7280" stroke-width="1.4" d="M3287.5,-394C3287.5,-394 3128.5,-394 3128.5,-394 3122.5,-394 3116.5,-388 3116.5,-382 3116.5,-382 3116.5,-370 3116.5,-370 3116.5,-364 3122.5,-358 3128.5,-358 3128.5,-358 3287.5,-358 3287.5,-358 3293.5,-358 3299.5,-364 3299.5,-370 3299.5,-370 3299.5,-382 3299.5,-382 3299.5,-388 3293.5,-394 3287.5,-394"/>
<text text-anchor="middle" x="3208" y="-372.2" font-family="Noto Sans CJK KR" font-size="16.00">StepCompletion 기록</text>
</g>
<!-- user_nfc&#45;&gt;step_completion -->
<g id="edge41" class="edge">
<title>user_nfc&#45;&gt;step_completion</title>
<path fill="none" stroke="#6b7280" stroke-width="1.2" d="M3169,-456.84C3169,-456.84 3169,-402.04 3169,-402.04"/>
<polygon fill="#6b7280" stroke="#6b7280" stroke-width="1.2" points="3171.8,-402.04 3169,-394.04 3166.2,-402.04 3171.8,-402.04"/>
</g>
<!-- user_nft -->
<g id="node42" class="node">
<title>user_nft</title>
<path fill="#ffffff" stroke="#6b7280" stroke-width="1.4" d="M3291.5,-295C3291.5,-295 3198.5,-295 3198.5,-295 3192.5,-295 3186.5,-289 3186.5,-283 3186.5,-283 3186.5,-271 3186.5,-271 3186.5,-265 3192.5,-259 3198.5,-259 3198.5,-259 3291.5,-259 3291.5,-259 3297.5,-259 3303.5,-265 3303.5,-271 3303.5,-271 3303.5,-283 3303.5,-283 3303.5,-289 3297.5,-295 3291.5,-295"/>
<text text-anchor="middle" x="3245" y="-273.2" font-family="Noto Sans CJK KR" font-size="16.00">UserNft 발급</text>
</g>
<!-- step_completion&#45;&gt;user_nft -->
<g id="edge42" class="edge">
<title>step_completion&#45;&gt;user_nft</title>
<path fill="none" stroke="#6b7280" stroke-width="1.2" d="M3243,-357.84C3243,-357.84 3243,-303.04 3243,-303.04"/>
<polygon fill="#6b7280" stroke="#6b7280" stroke-width="1.2" points="3245.8,-303.04 3243,-295.04 3240.2,-303.04 3245.8,-303.04"/>
</g>
<!-- user_nft&#45;&gt;all_steps_done -->
<g id="edge43" class="edge">
<title>user_nft&#45;&gt;all_steps_done</title>
<path fill="none" stroke="#6b7280" stroke-width="1.2" d="M3303.87,-277C3316.43,-277 3326,-277 3326,-277 3326,-277 3326,-171.29 3326,-171.29"/>
<polygon fill="#6b7280" stroke="#6b7280" stroke-width="1.2" points="3328.8,-171.29 3326,-163.29 3323.2,-171.29 3328.8,-171.29"/>
</g>
<!-- event_participation -->
<g id="node46" class="node">
<title>event_participation</title>
<path fill="#ffffff" stroke="#6b7280" stroke-width="1.4" d="M3030.5,-3328C3030.5,-3328 2881.5,-3328 2881.5,-3328 2875.5,-3328 2869.5,-3322 2869.5,-3316 2869.5,-3316 2869.5,-3304 2869.5,-3304 2869.5,-3298 2875.5,-3292 2881.5,-3292 2881.5,-3292 3030.5,-3292 3030.5,-3292 3036.5,-3292 3042.5,-3298 3042.5,-3304 3042.5,-3304 3042.5,-3316 3042.5,-3316 3042.5,-3322 3036.5,-3328 3030.5,-3328"/>
<text text-anchor="middle" x="2956" y="-3306.2" font-family="Noto Sans CJK KR" font-size="16.00">이벤트별 참여 수 확인</text>
</g>
<!-- users_trend&#45;&gt;event_participation -->
<g id="edge47" class="edge">
<title>users_trend&#45;&gt;event_participation</title>
<path fill="none" stroke="#6b7280" stroke-width="1.2" d="M2956,-3403.51C2956,-3403.51 2956,-3336.15 2956,-3336.15"/>
<polygon fill="#6b7280" stroke="#6b7280" stroke-width="1.2" points="2958.8,-3336.15 2956,-3328.15 2953.2,-3336.15 2958.8,-3336.15"/>
</g>
<!-- geo_stats -->
<g id="node47" class="node">
<title>geo_stats</title>
<path fill="#ffffff" stroke="#6b7280" stroke-width="1.4" d="M3073,-3229C3073,-3229 2837,-3229 2837,-3229 2831,-3229 2825,-3223 2825,-3217 2825,-3217 2825,-3205 2825,-3205 2825,-3199 2831,-3193 2837,-3193 2837,-3193 3073,-3193 3073,-3193 3079,-3193 3085,-3199 3085,-3205 3085,-3205 3085,-3217 3085,-3217 3085,-3223 3079,-3229 3073,-3229"/>
<text text-anchor="middle" x="2955" y="-3207.2" font-family="Noto Sans CJK KR" font-size="16.00">도시 / 국가 / 컬렉션 완료 통계 확인</text>
</g>
<!-- event_participation&#45;&gt;geo_stats -->
<g id="edge48" class="edge">
<title>event_participation&#45;&gt;geo_stats</title>
<path fill="none" stroke="#6b7280" stroke-width="1.2" d="M2956,-3291.84C2956,-3291.84 2956,-3237.04 2956,-3237.04"/>
<polygon fill="#6b7280" stroke="#6b7280" stroke-width="1.2" points="2958.8,-3237.04 2956,-3229.04 2953.2,-3237.04 2958.8,-3237.04"/>
</g>
<!-- nft_volume -->
<g id="node48" class="node">
<title>nft_volume</title>
<path fill="#ffffff" stroke="#6b7280" stroke-width="1.4" d="M3015.5,-3114C3015.5,-3114 2900.5,-3114 2900.5,-3114 2894.5,-3114 2888.5,-3108 2888.5,-3102 2888.5,-3102 2888.5,-3090 2888.5,-3090 2888.5,-3084 2894.5,-3078 2900.5,-3078 2900.5,-3078 3015.5,-3078 3015.5,-3078 3021.5,-3078 3027.5,-3084 3027.5,-3090 3027.5,-3090 3027.5,-3102 3027.5,-3102 3027.5,-3108 3021.5,-3114 3015.5,-3114"/>
<text text-anchor="middle" x="2958" y="-3092.2" font-family="Noto Sans CJK KR" font-size="16.00">NFT 발급량 확인</text>
</g>
<!-- geo_stats&#45;&gt;nft_volume -->
<g id="edge49" class="edge">
<title>geo_stats&#45;&gt;nft_volume</title>
<path fill="none" stroke="#6b7280" stroke-width="1.2" d="M2958,-3192.78C2958,-3192.78 2958,-3122.14 2958,-3122.14"/>
<polygon fill="#6b7280" stroke="#6b7280" stroke-width="1.2" points="2960.8,-3122.14 2958,-3114.14 2955.2,-3122.14 2960.8,-3122.14"/>
</g>
<!-- reward_status -->
<g id="node49" class="node">
<title>reward_status</title>
<path fill="#ffffff" stroke="#6b7280" stroke-width="1.4" d="M3078,-2970C3078,-2970 2842,-2970 2842,-2970 2836,-2970 2830,-2964 2830,-2958 2830,-2958 2830,-2946 2830,-2946 2830,-2940 2836,-2934 2842,-2934 2842,-2934 3078,-2934 3078,-2934 3084,-2934 3090,-2940 3090,-2946 3090,-2946 3090,-2958 3090,-2958 3090,-2964 3084,-2970 3078,-2970"/>
<text text-anchor="middle" x="2960" y="-2948.2" font-family="Noto Sans CJK KR" font-size="16.00">리워드 발급 / 사용 / 만료 현황 확인</text>
</g>
<!-- nft_volume&#45;&gt;reward_status -->
<g id="edge50" class="edge">
<title>nft_volume&#45;&gt;reward_status</title>
<path fill="none" stroke="#6b7280" stroke-width="1.2" d="M2958,-3077.76C2958,-3077.76 2958,-2978.09 2958,-2978.09"/>
<polygon fill="#6b7280" stroke="#6b7280" stroke-width="1.2" points="2960.8,-2978.09 2958,-2970.09 2955.2,-2978.09 2960.8,-2978.09"/>
</g>
<!-- scan_log -->
<g id="node50" class="node">
<title>scan_log</title>
<path fill="#ffffff" stroke="#6b7280" stroke-width="1.4" d="M3027.5,-2842C3027.5,-2842 2892.5,-2842 2892.5,-2842 2886.5,-2842 2880.5,-2836 2880.5,-2830 2880.5,-2830 2880.5,-2818 2880.5,-2818 2880.5,-2812 2886.5,-2806 2892.5,-2806 2892.5,-2806 3027.5,-2806 3027.5,-2806 3033.5,-2806 3039.5,-2812 3039.5,-2818 3039.5,-2818 3039.5,-2830 3039.5,-2830 3039.5,-2836 3033.5,-2842 3027.5,-2842"/>
<text text-anchor="middle" x="2960" y="-2820.2" font-family="Noto Sans CJK KR" font-size="16.00">NFC 스캔 로그 확인</text>
</g>
<!-- reward_status&#45;&gt;scan_log -->
<g id="edge51" class="edge">
<title>reward_status&#45;&gt;scan_log</title>
<path fill="none" stroke="#6b7280" stroke-width="1.2" d="M2960,-2933.93C2960,-2933.93 2960,-2850.39 2960,-2850.39"/>
<polygon fill="#6b7280" stroke="#6b7280" stroke-width="1.2" points="2962.8,-2850.39 2960,-2842.39 2957.2,-2850.39 2962.8,-2850.39"/>
</g>
<!-- scan_log&#45;&gt;anomaly -->
<g id="edge52" class="edge">
<title>scan_log&#45;&gt;anomaly</title>
<path fill="none" stroke="#6b7280" stroke-width="1.2" d="M2960,-2805.91C2960,-2805.91 2960,-2716.11 2960,-2716.11"/>
<polygon fill="#6b7280" stroke="#6b7280" stroke-width="1.2" points="2962.8,-2716.11 2960,-2708.11 2957.2,-2716.12 2962.8,-2716.11"/>
</g>
<!-- issue_unknown -->
<g id="node52" class="node">
<title>issue_unknown</title>
<path fill="#ffffff" stroke="#6b7280" stroke-width="1.4" d="M3328.5,-2452C3328.5,-2452 3137.5,-2452 3137.5,-2452 3131.5,-2452 3125.5,-2446 3125.5,-2440 3125.5,-2440 3125.5,-2428 3125.5,-2428 3125.5,-2422 3131.5,-2416 3137.5,-2416 3137.5,-2416 3328.5,-2416 3328.5,-2416 3334.5,-2416 3340.5,-2422 3340.5,-2428 3340.5,-2428 3340.5,-2440 3340.5,-2440 3340.5,-2446 3334.5,-2452 3328.5,-2452"/>
<text text-anchor="middle" x="3233" y="-2430.2" font-family="Noto Sans CJK KR" font-size="16.00">UNKNOWN_TAG 급증 확인</text>
</g>
<!-- incident_detail&#45;&gt;issue_unknown -->
<g id="edge55" class="edge">
<title>incident_detail&#45;&gt;issue_unknown</title>
<path fill="none" stroke="#6b7280" stroke-width="1.2" d="M2846.05,-2533C2979,-2533 3233,-2533 3233,-2533 3233,-2533 3233,-2460.16 3233,-2460.16"/>
<polygon fill="#6b7280" stroke="#6b7280" stroke-width="1.2" points="3235.8,-2460.16 3233,-2452.16 3230.2,-2460.16 3235.8,-2460.16"/>
</g>
<!-- issue_wrong_order -->
<g id="node53" class="node">
<title>issue_wrong_order</title>
<path fill="#ffffff" stroke="#6b7280" stroke-width="1.4" d="M3073,-2452C3073,-2452 2881,-2452 2881,-2452 2875,-2452 2869,-2446 2869,-2440 2869,-2440 2869,-2428 2869,-2428 2869,-2422 2875,-2416 2881,-2416 2881,-2416 3073,-2416 3073,-2416 3079,-2416 3085,-2422 3085,-2428 3085,-2428 3085,-2440 3085,-2440 3085,-2446 3079,-2452 3073,-2452"/>
<text text-anchor="middle" x="2977" y="-2430.2" font-family="Noto Sans CJK KR" font-size="16.00">WRONG_ORDER 다발 확인</text>
</g>
<!-- incident_detail&#45;&gt;issue_wrong_order -->
<g id="edge56" class="edge">
<title>incident_detail&#45;&gt;issue_wrong_order</title>
<path fill="none" stroke="#6b7280" stroke-width="1.2" d="M2837.25,-2514.84C2837.25,-2486.26 2837.25,-2434 2837.25,-2434 2837.25,-2434 2860.96,-2434 2860.96,-2434"/>
<polygon fill="#6b7280" stroke="#6b7280" stroke-width="1.2" points="2860.96,-2436.8 2868.96,-2434 2860.96,-2431.2 2860.96,-2436.8"/>
</g>
<!-- issue_not_joined -->
<g id="node54" class="node">
<title>issue_not_joined</title>
<path fill="#ffffff" stroke="#6b7280" stroke-width="1.4" d="M2226,-2452C2226,-2452 2058,-2452 2058,-2452 2052,-2452 2046,-2446 2046,-2440 2046,-2440 2046,-2428 2046,-2428 2046,-2422 2052,-2416 2058,-2416 2058,-2416 2226,-2416 2226,-2416 2232,-2416 2238,-2422 2238,-2428 2238,-2428 2238,-2440 2238,-2440 2238,-2446 2232,-2452 2226,-2452"/>
<text text-anchor="middle" x="2142" y="-2430.2" font-family="Noto Sans CJK KR" font-size="16.00">NOT_JOINED 빈발 확인</text>
</g>
<!-- incident_detail&#45;&gt;issue_not_joined -->
<g id="edge57" class="edge">
<title>incident_detail&#45;&gt;issue_not_joined</title>
<path fill="none" stroke="#6b7280" stroke-width="1.2" d="M2687.93,-2539C2522.49,-2539 2155,-2539 2155,-2539 2155,-2539 2155,-2460.29 2155,-2460.29"/>
<polygon fill="#6b7280" stroke="#6b7280" stroke-width="1.2" points="2157.8,-2460.29 2155,-2452.29 2152.2,-2460.29 2157.8,-2460.29"/>
</g>
<!-- issue_already_done -->
<g id="node55" class="node">
<title>issue_already_done</title>
<path fill="#ffffff" stroke="#6b7280" stroke-width="1.4" d="M2515.5,-2452C2515.5,-2452 2290.5,-2452 2290.5,-2452 2284.5,-2452 2278.5,-2446 2278.5,-2440 2278.5,-2440 2278.5,-2428 2278.5,-2428 2278.5,-2422 2284.5,-2416 2290.5,-2416 2290.5,-2416 2515.5,-2416 2515.5,-2416 2521.5,-2416 2527.5,-2422 2527.5,-2428 2527.5,-2428 2527.5,-2440 2527.5,-2440 2527.5,-2446 2521.5,-2452 2515.5,-2452"/>
<text text-anchor="middle" x="2403" y="-2430.2" font-family="Noto Sans CJK KR" font-size="16.00">ALREADY_DONE 중복 스캔 확인</text>
</g>
<!-- incident_detail&#45;&gt;issue_already_done -->
<g id="edge58" class="edge">
<title>incident_detail&#45;&gt;issue_already_done</title>
<path fill="none" stroke="#6b7280" stroke-width="1.2" d="M2687.92,-2527C2593.67,-2527 2448.75,-2527 2448.75,-2527 2448.75,-2527 2448.75,-2460.37 2448.75,-2460.37"/>
<polygon fill="#6b7280" stroke="#6b7280" stroke-width="1.2" points="2451.55,-2460.37 2448.75,-2452.37 2445.95,-2460.37 2451.55,-2460.37"/>
</g>
<!-- issue_reward -->
<g id="node56" class="node">
<title>issue_reward</title>
<path fill="#ffffff" stroke="#6b7280" stroke-width="1.4" d="M2816.5,-2452C2816.5,-2452 2579.5,-2452 2579.5,-2452 2573.5,-2452 2567.5,-2446 2567.5,-2440 2567.5,-2440 2567.5,-2428 2567.5,-2428 2567.5,-2422 2573.5,-2416 2579.5,-2416 2579.5,-2416 2816.5,-2416 2816.5,-2416 2822.5,-2416 2828.5,-2422 2828.5,-2428 2828.5,-2428 2828.5,-2440 2828.5,-2440 2828.5,-2446 2822.5,-2452 2816.5,-2452"/>
<text text-anchor="middle" x="2698" y="-2430.2" font-family="Noto Sans CJK KR" font-size="16.00">Reward 사용 불가 / 만료 이슈 확인</text>
</g>
<!-- incident_detail&#45;&gt;issue_reward -->
<g id="edge59" class="edge">
<title>incident_detail&#45;&gt;issue_reward</title>
<path fill="none" stroke="#6b7280" stroke-width="1.2" d="M2758.25,-2514.84C2758.25,-2514.84 2758.25,-2460.04 2758.25,-2460.04"/>
<polygon fill="#6b7280" stroke="#6b7280" stroke-width="1.2" points="2761.05,-2460.04 2758.25,-2452.04 2755.45,-2460.04 2761.05,-2460.04"/>
</g>
<!-- inspect_event -->
<g id="node57" class="node">
<title>inspect_event</title>
<path fill="#ffffff" stroke="#6b7280" stroke-width="1.4" d="M3328.5,-2353C3328.5,-2353 3091.5,-2353 3091.5,-2353 3085.5,-2353 3079.5,-2347 3079.5,-2341 3079.5,-2341 3079.5,-2329 3079.5,-2329 3079.5,-2323 3085.5,-2317 3091.5,-2317 3091.5,-2317 3328.5,-2317 3328.5,-2317 3334.5,-2317 3340.5,-2323 3340.5,-2329 3340.5,-2329 3340.5,-2341 3340.5,-2341 3340.5,-2347 3334.5,-2353 3328.5,-2353"/>
<text text-anchor="middle" x="3210" y="-2331.2" font-family="Noto Sans CJK KR" font-size="16.00">해당 이벤트 / 스텝 / NFC 태그 점검</text>
</g>
<!-- issue_unknown&#45;&gt;inspect_event -->
<g id="edge60" class="edge">
<title>issue_unknown&#45;&gt;inspect_event</title>
<path fill="none" stroke="#6b7280" stroke-width="1.2" d="M3233,-2415.84C3233,-2415.84 3233,-2361.04 3233,-2361.04"/>
<polygon fill="#6b7280" stroke="#6b7280" stroke-width="1.2" points="3235.8,-2361.04 3233,-2353.04 3230.2,-2361.04 3235.8,-2361.04"/>
</g>
<!-- issue_wrong_order&#45;&gt;inspect_event -->
<g id="edge61" class="edge">
<title>issue_wrong_order&#45;&gt;inspect_event</title>
<path fill="none" stroke="#6b7280" stroke-width="1.2" d="M3064.75,-2415.84C3064.75,-2387.26 3064.75,-2335 3064.75,-2335 3064.75,-2335 3071.48,-2335 3071.48,-2335"/>
<polygon fill="#6b7280" stroke="#6b7280" stroke-width="1.2" points="3071.48,-2337.8 3079.48,-2335 3071.48,-2332.2 3071.48,-2337.8"/>
</g>
<!-- inspect_policy -->
<g id="node58" class="node">
<title>inspect_policy</title>
<path fill="#ffffff" stroke="#6b7280" stroke-width="1.4" d="M2249,-2353C2249,-2353 2115,-2353 2115,-2353 2109,-2353 2103,-2347 2103,-2341 2103,-2341 2103,-2329 2103,-2329 2103,-2323 2109,-2317 2115,-2317 2115,-2317 2249,-2317 2249,-2317 2255,-2317 2261,-2323 2261,-2329 2261,-2329 2261,-2341 2261,-2341 2261,-2347 2255,-2353 2249,-2353"/>
<text text-anchor="middle" x="2182" y="-2331.2" font-family="Noto Sans CJK KR" font-size="16.00">참여 정책 / UX 점검</text>
</g>
<!-- issue_not_joined&#45;&gt;inspect_policy -->
<g id="edge62" class="edge">
<title>issue_not_joined&#45;&gt;inspect_policy</title>
<path fill="none" stroke="#6b7280" stroke-width="1.2" d="M2170.5,-2415.84C2170.5,-2415.84 2170.5,-2361.04 2170.5,-2361.04"/>
<polygon fill="#6b7280" stroke="#6b7280" stroke-width="1.2" points="2173.3,-2361.04 2170.5,-2353.04 2167.7,-2361.04 2173.3,-2361.04"/>
</g>
<!-- inspect_field -->
<g id="node59" class="node">
<title>inspect_field</title>
<path fill="#ffffff" stroke="#6b7280" stroke-width="1.4" d="M2569,-2353C2569,-2353 2401,-2353 2401,-2353 2395,-2353 2389,-2347 2389,-2341 2389,-2341 2389,-2329 2389,-2329 2389,-2323 2395,-2317 2401,-2317 2401,-2317 2569,-2317 2569,-2317 2575,-2317 2581,-2323 2581,-2329 2581,-2329 2581,-2341 2581,-2341 2581,-2347 2575,-2353 2569,-2353"/>
<text text-anchor="middle" x="2485" y="-2331.2" font-family="Noto Sans CJK KR" font-size="16.00">현장 운영 이슈 여부 점검</text>
</g>
<!-- issue_already_done&#45;&gt;inspect_field -->
<g id="edge63" class="edge">
<title>issue_already_done&#45;&gt;inspect_field</title>
<path fill="none" stroke="#6b7280" stroke-width="1.2" d="M2458.25,-2415.84C2458.25,-2415.84 2458.25,-2361.04 2458.25,-2361.04"/>
<polygon fill="#6b7280" stroke="#6b7280" stroke-width="1.2" points="2461.05,-2361.04 2458.25,-2353.04 2455.45,-2361.04 2461.05,-2361.04"/>
</g>
<!-- inspect_reward -->
<g id="node60" class="node">
<title>inspect_reward</title>
<path fill="#ffffff" stroke="#6b7280" stroke-width="1.4" d="M3011.5,-2353C3011.5,-2353 2666.5,-2353 2666.5,-2353 2660.5,-2353 2654.5,-2347 2654.5,-2341 2654.5,-2341 2654.5,-2329 2654.5,-2329 2654.5,-2323 2660.5,-2317 2666.5,-2317 2666.5,-2317 3011.5,-2317 3011.5,-2317 3017.5,-2317 3023.5,-2323 3023.5,-2329 3023.5,-2329 3023.5,-2341 3023.5,-2341 3023.5,-2347 3017.5,-2353 3011.5,-2353"/>
<text text-anchor="middle" x="2839" y="-2331.2" font-family="Noto Sans CJK KR" font-size="16.00">RewardTemplate / validityDays / 쿠폰 처리 점검</text>
</g>
<!-- issue_reward&#45;&gt;inspect_reward -->
<g id="edge64" class="edge">
<title>issue_reward&#45;&gt;inspect_reward</title>
<path fill="none" stroke="#6b7280" stroke-width="1.2" d="M2741.5,-2415.84C2741.5,-2415.84 2741.5,-2361.04 2741.5,-2361.04"/>
<polygon fill="#6b7280" stroke="#6b7280" stroke-width="1.2" points="2744.3,-2361.04 2741.5,-2353.04 2738.7,-2361.04 2744.3,-2361.04"/>
</g>
<!-- inspect_event&#45;&gt;urgent_fix -->
<g id="edge65" class="edge">
<title>inspect_event&#45;&gt;urgent_fix</title>
<path fill="none" stroke="#6b7280" stroke-width="1.2" d="M3202.5,-2316.58C3202.5,-2289.99 3202.5,-2244 3202.5,-2244 3202.5,-2244 3442.06,-2244 3442.06,-2244"/>
<polygon fill="#6b7280" stroke="#6b7280" stroke-width="1.2" points="3442.06,-2246.8 3450.06,-2244 3442.06,-2241.2 3442.06,-2246.8"/>
</g>
<!-- inspect_policy&#45;&gt;urgent_fix -->
<g id="edge66" class="edge">
<title>inspect_policy&#45;&gt;urgent_fix</title>
<path fill="none" stroke="#6b7280" stroke-width="1.2" d="M2182,-2316.77C2182,-2283.2 2182,-2215 2182,-2215 2182,-2215 3368.15,-2215 3368.15,-2215"/>
<polygon fill="#6b7280" stroke="#6b7280" stroke-width="1.2" points="3368.15,-2217.8 3376.15,-2215 3368.15,-2212.2 3368.15,-2217.8"/>
</g>
<!-- inspect_field&#45;&gt;urgent_fix -->
<g id="edge67" class="edge">
<title>inspect_field&#45;&gt;urgent_fix</title>
<path fill="none" stroke="#6b7280" stroke-width="1.2" d="M2485,-2316.67C2485,-2285.14 2485,-2224 2485,-2224 2485,-2224 3364.36,-2224 3364.36,-2224"/>
<polygon fill="#6b7280" stroke="#6b7280" stroke-width="1.2" points="3364.36,-2226.8 3372.36,-2224 3364.36,-2221.2 3364.36,-2226.8"/>
</g>
<!-- inspect_reward&#45;&gt;urgent_fix -->
<g id="edge68" class="edge">
<title>inspect_reward&#45;&gt;urgent_fix</title>
<path fill="none" stroke="#6b7280" stroke-width="1.2" d="M2941.25,-2316.94C2941.25,-2287.89 2941.25,-2234 2941.25,-2234 2941.25,-2234 3403.1,-2234 3403.1,-2234"/>
<polygon fill="#6b7280" stroke="#6b7280" stroke-width="1.2" points="3403.1,-2236.8 3411.1,-2234 3403.1,-2231.2 3403.1,-2236.8"/>
</g>
<!-- hide_event&#45;&gt;event_ops -->
<g id="edge71" class="edge">
<title>hide_event&#45;&gt;event_ops</title>
<path fill="none" stroke="#6b7280" stroke-width="1.2" d="M2606.84,-2092C2389.84,-2092 1969,-2092 1969,-2092 1969,-2092 1969,-2019.16 1969,-2019.16"/>
<polygon fill="#6b7280" stroke="#6b7280" stroke-width="1.2" points="1971.8,-2019.16 1969,-2011.16 1966.2,-2019.16 1971.8,-2019.16"/>
</g>
<!-- keep_watch&#45;&gt;dashboard -->
<g id="edge72" class="edge">
<title>keep_watch&#45;&gt;dashboard</title>
<path fill="none" stroke="#6b7280" stroke-width="1.2" d="M3340.71,-2092C3345.74,-2092 3348.75,-2092 3348.75,-2092 3348.75,-2092 3348.75,-3646 3348.75,-3646 3348.75,-3646 2205.28,-3646 2205.28,-3646"/>
<polygon fill="#6b7280" stroke="#6b7280" stroke-width="1.2" points="2205.28,-3643.2 2197.28,-3646 2205.28,-3648.8 2205.28,-3643.2"/>
</g>
<!-- reward_issue_by_event -->
<g id="node64" class="node">
<title>reward_issue_by_event</title>
<path fill="#ffffff" stroke="#6b7280" stroke-width="1.4" d="M2296.5,-3328C2296.5,-3328 2083.5,-3328 2083.5,-3328 2077.5,-3328 2071.5,-3322 2071.5,-3316 2071.5,-3316 2071.5,-3304 2071.5,-3304 2071.5,-3298 2077.5,-3292 2083.5,-3292 2083.5,-3292 2296.5,-3292 2296.5,-3292 2302.5,-3292 2308.5,-3298 2308.5,-3304 2308.5,-3304 2308.5,-3316 2308.5,-3316 2308.5,-3322 2302.5,-3328 2296.5,-3328"/>
<text text-anchor="middle" x="2190" y="-3306.2" font-family="Noto Sans CJK KR" font-size="16.00">이벤트별 리워드 발급 현황 확인</text>
</g>
<!-- reward_policy&#45;&gt;reward_issue_by_event -->
<g id="edge74" class="edge">
<title>reward_policy&#45;&gt;reward_issue_by_event</title>
<path fill="none" stroke="#6b7280" stroke-width="1.2" d="M2181,-3403.51C2181,-3403.51 2181,-3336.15 2181,-3336.15"/>
<polygon fill="#6b7280" stroke="#6b7280" stroke-width="1.2" points="2183.8,-3336.15 2181,-3328.15 2178.2,-3336.15 2183.8,-3336.15"/>
</g>
<!-- reward_distribution -->
<g id="node65" class="node">
<title>reward_distribution</title>
<path fill="#ffffff" stroke="#6b7280" stroke-width="1.4" d="M2342.5,-3229C2342.5,-3229 2057.5,-3229 2057.5,-3229 2051.5,-3229 2045.5,-3223 2045.5,-3217 2045.5,-3217 2045.5,-3205 2045.5,-3205 2045.5,-3199 2051.5,-3193 2057.5,-3193 2057.5,-3193 2342.5,-3193 2342.5,-3193 2348.5,-3193 2354.5,-3199 2354.5,-3205 2354.5,-3205 2354.5,-3217 2354.5,-3217 2354.5,-3223 2348.5,-3229 2342.5,-3229"/>
<text text-anchor="middle" x="2200" y="-3207.2" font-family="Noto Sans CJK KR" font-size="16.00">AVAILABLE / USED / EXPIRED 분포 확인</text>
</g>
<!-- reward_issue_by_event&#45;&gt;reward_distribution -->
<g id="edge75" class="edge">
<title>reward_issue_by_event&#45;&gt;reward_distribution</title>
<path fill="none" stroke="#6b7280" stroke-width="1.2" d="M2190,-3291.84C2190,-3291.84 2190,-3237.04 2190,-3237.04"/>
<polygon fill="#6b7280" stroke="#6b7280" stroke-width="1.2" points="2192.8,-3237.04 2190,-3229.04 2187.2,-3237.04 2192.8,-3237.04"/>
</g>
<!-- reward_partner_cs -->
<g id="node66" class="node">
<title>reward_partner_cs</title>
<path fill="#ffffff" stroke="#6b7280" stroke-width="1.4" d="M2322,-3114C2322,-3114 2192,-3114 2192,-3114 2186,-3114 2180,-3108 2180,-3102 2180,-3102 2180,-3090 2180,-3090 2180,-3084 2186,-3078 2192,-3078 2192,-3078 2322,-3078 2322,-3078 2328,-3078 2334,-3084 2334,-3090 2334,-3090 2334,-3102 2334,-3102 2334,-3108 2328,-3114 2322,-3114"/>
<text text-anchor="middle" x="2257" y="-3092.2" font-family="Noto Sans CJK KR" font-size="16.00">파트너사 문의 대응</text>
</g>
<!-- reward_distribution&#45;&gt;reward_partner_cs -->
<g id="edge76" class="edge">
<title>reward_distribution&#45;&gt;reward_partner_cs</title>
<path fill="none" stroke="#6b7280" stroke-width="1.2" d="M2257,-3192.78C2257,-3192.78 2257,-3122.14 2257,-3122.14"/>
<polygon fill="#6b7280" stroke="#6b7280" stroke-width="1.2" points="2259.8,-3122.14 2257,-3114.14 2254.2,-3122.14 2259.8,-3122.14"/>
</g>
<!-- reward_partner_cs&#45;&gt;reward_fix_needed -->
<g id="edge77" class="edge">
<title>reward_partner_cs&#45;&gt;reward_fix_needed</title>
<path fill="none" stroke="#6b7280" stroke-width="1.2" d="M2278.67,-3077.88C2278.67,-3045.25 2278.67,-2980 2278.67,-2980 2278.67,-2980 2534.75,-2980 2534.75,-2980"/>
<polygon fill="#6b7280" stroke="#6b7280" stroke-width="1.2" points="2534.75,-2982.8 2542.75,-2980 2534.75,-2977.2 2534.75,-2982.8"/>
</g>
<!-- reward_change&#45;&gt;event_ops -->
<g id="edge79" class="edge">
<title>reward_change&#45;&gt;event_ops</title>
<path fill="none" stroke="#6b7280" stroke-width="1.2" d="M2071.94,-2757C1996.81,-2757 1916.5,-2757 1916.5,-2757 1916.5,-2757 1916.5,-2019.13 1916.5,-2019.13"/>
<polygon fill="#6b7280" stroke="#6b7280" stroke-width="1.2" points="1919.3,-2019.13 1916.5,-2011.13 1913.7,-2019.13 1919.3,-2019.13"/>
</g>
<!-- user_history -->
<g id="node69" class="node">
<title>user_history</title>
<path fill="#ffffff" stroke="#6b7280" stroke-width="1.4" d="M720.5,-3328C720.5,-3328 537.5,-3328 537.5,-3328 531.5,-3328 525.5,-3322 525.5,-3316 525.5,-3316 525.5,-3304 525.5,-3304 525.5,-3298 531.5,-3292 537.5,-3292 537.5,-3292 720.5,-3292 720.5,-3292 726.5,-3292 732.5,-3298 732.5,-3304 732.5,-3304 732.5,-3316 732.5,-3316 732.5,-3322 726.5,-3328 720.5,-3328"/>
<text text-anchor="middle" x="629" y="-3306.2" font-family="Noto Sans CJK KR" font-size="16.00">특정 사용자 참여 이력 확인</text>
</g>
<!-- user_profile&#45;&gt;user_history -->
<g id="edge82" class="edge">
<title>user_profile&#45;&gt;user_history</title>
<path fill="none" stroke="#6b7280" stroke-width="1.2" d="M644.75,-3403.51C644.75,-3403.51 644.75,-3336.15 644.75,-3336.15"/>
<polygon fill="#6b7280" stroke="#6b7280" stroke-width="1.2" points="647.55,-3336.15 644.75,-3328.15 641.95,-3336.15 647.55,-3336.15"/>
</g>
<!-- user_asset_state -->
<g id="node70" class="node">
<title>user_asset_state</title>
<path fill="#ffffff" stroke="#6b7280" stroke-width="1.4" d="M705.5,-3229C705.5,-3229 486.5,-3229 486.5,-3229 480.5,-3229 474.5,-3223 474.5,-3217 474.5,-3217 474.5,-3205 474.5,-3205 474.5,-3199 480.5,-3193 486.5,-3193 486.5,-3193 705.5,-3193 705.5,-3193 711.5,-3193 717.5,-3199 717.5,-3205 717.5,-3205 717.5,-3217 717.5,-3217 717.5,-3223 711.5,-3229 705.5,-3229"/>
<text text-anchor="middle" x="596" y="-3207.2" font-family="Noto Sans CJK KR" font-size="16.00">사용자 NFT / Reward 상태 확인</text>
</g>
<!-- user_history&#45;&gt;user_asset_state -->
<g id="edge83" class="edge">
<title>user_history&#45;&gt;user_asset_state</title>
<path fill="none" stroke="#6b7280" stroke-width="1.2" d="M621.5,-3291.84C621.5,-3291.84 621.5,-3237.04 621.5,-3237.04"/>
<polygon fill="#6b7280" stroke="#6b7280" stroke-width="1.2" points="624.3,-3237.04 621.5,-3229.04 618.7,-3237.04 624.3,-3237.04"/>
</g>
<!-- user_asset_state&#45;&gt;support_needed -->
<g id="edge84" class="edge">
<title>user_asset_state&#45;&gt;support_needed</title>
<path fill="none" stroke="#6b7280" stroke-width="1.2" d="M596,-3192.97C596,-3167.49 596,-3124 596,-3124 596,-3124 249.43,-3124 249.43,-3124"/>
<polygon fill="#6b7280" stroke="#6b7280" stroke-width="1.2" points="249.43,-3121.2 241.43,-3124 249.43,-3126.8 249.43,-3121.2"/>
</g>
<!-- partner_consult -->
<g id="node72" class="node">
<title>partner_consult</title>
<path fill="#ffffff" stroke="#6b7280" stroke-width="1.4" d="M711.5,-2842C711.5,-2842 566.5,-2842 566.5,-2842 560.5,-2842 554.5,-2836 554.5,-2830 554.5,-2830 554.5,-2818 554.5,-2818 554.5,-2812 560.5,-2806 566.5,-2806 566.5,-2806 711.5,-2806 711.5,-2806 717.5,-2806 723.5,-2812 723.5,-2818 723.5,-2818 723.5,-2830 723.5,-2830 723.5,-2836 717.5,-2842 711.5,-2842"/>
<text text-anchor="middle" x="639" y="-2820.2" font-family="Noto Sans CJK KR" font-size="16.00">제휴사 관리자와 협의</text>
</g>
<!-- ops_judgment&#45;&gt;partner_consult -->
<g id="edge87" class="edge">
<title>ops_judgment&#45;&gt;partner_consult</title>
<path fill="none" stroke="#6b7280" stroke-width="1.2" d="M639,-2933.93C639,-2933.93 639,-2850.39 639,-2850.39"/>
<polygon fill="#6b7280" stroke="#6b7280" stroke-width="1.2" points="641.8,-2850.39 639,-2842.39 636.2,-2850.39 641.8,-2850.39"/>
</g>
<!-- result_log -->
<g id="node73" class="node">
<title>result_log</title>
<path fill="#ffffff" stroke="#6b7280" stroke-width="1.4" d="M722,-2692C722,-2692 622,-2692 622,-2692 616,-2692 610,-2686 610,-2680 610,-2680 610,-2668 610,-2668 610,-2662 616,-2656 622,-2656 622,-2656 722,-2656 722,-2656 728,-2656 734,-2662 734,-2668 734,-2668 734,-2680 734,-2680 734,-2686 728,-2692 722,-2692"/>
<text text-anchor="middle" x="672" y="-2670.2" font-family="Noto Sans CJK KR" font-size="16.00">조치 결과 기록</text>
</g>
<!-- partner_consult&#45;&gt;result_log -->
<g id="edge88" class="edge">
<title>partner_consult&#45;&gt;result_log</title>
<path fill="none" stroke="#6b7280" stroke-width="1.2" d="M666.75,-2805.91C666.75,-2805.91 666.75,-2700.16 666.75,-2700.16"/>
<polygon fill="#6b7280" stroke="#6b7280" stroke-width="1.2" points="669.55,-2700.16 666.75,-2692.16 663.95,-2700.16 669.55,-2700.16"/>
</g>
<!-- result_log&#45;&gt;dashboard -->
<g id="edge89" class="edge">
<title>result_log&#45;&gt;dashboard</title>
<path fill="none" stroke="#6b7280" stroke-width="1.2" d="M734.23,-2674C1000.18,-2674 2027.88,-2674 2027.88,-2674 2027.88,-2674 2027.88,-3619.88 2027.88,-3619.88"/>
<polygon fill="#6b7280" stroke="#6b7280" stroke-width="1.2" points="2025.08,-3619.88 2027.88,-3627.88 2030.68,-3619.88 2025.08,-3619.88"/>
</g>
<!-- policy_event -->
<g id="node75" class="node">
<title>policy_event</title>
<path fill="#ffffff" stroke="#6b7280" stroke-width="1.4" d="M1110.5,-3328C1110.5,-3328 961.5,-3328 961.5,-3328 955.5,-3328 949.5,-3322 949.5,-3316 949.5,-3316 949.5,-3304 949.5,-3304 949.5,-3298 955.5,-3292 961.5,-3292 961.5,-3292 1110.5,-3292 1110.5,-3292 1116.5,-3292 1122.5,-3298 1122.5,-3304 1122.5,-3304 1122.5,-3316 1122.5,-3316 1122.5,-3322 1116.5,-3328 1110.5,-3328"/>
<text text-anchor="middle" x="1036" y="-3306.2" font-family="Noto Sans CJK KR" font-size="16.00">이벤트 승인 기준 정비</text>
</g>
<!-- policy_review&#45;&gt;policy_event -->
<g id="edge91" class="edge">
<title>policy_review&#45;&gt;policy_event</title>
<path fill="none" stroke="#6b7280" stroke-width="1.2" d="M1061.25,-3403.51C1061.25,-3403.51 1061.25,-3336.15 1061.25,-3336.15"/>
<polygon fill="#6b7280" stroke="#6b7280" stroke-width="1.2" points="1064.05,-3336.15 1061.25,-3328.15 1058.45,-3336.15 1064.05,-3336.15"/>
</g>
<!-- policy_nfc -->
<g id="node76" class="node">
<title>policy_nfc</title>
<path fill="#ffffff" stroke="#6b7280" stroke-width="1.4" d="M1112.5,-3229C1112.5,-3229 929.5,-3229 929.5,-3229 923.5,-3229 917.5,-3223 917.5,-3217 917.5,-3217 917.5,-3205 917.5,-3205 917.5,-3199 923.5,-3193 929.5,-3193 929.5,-3193 1112.5,-3193 1112.5,-3193 1118.5,-3193 1124.5,-3199 1124.5,-3205 1124.5,-3205 1124.5,-3217 1124.5,-3217 1124.5,-3223 1118.5,-3229 1112.5,-3229"/>
<text text-anchor="middle" x="1021" y="-3207.2" font-family="Noto Sans CJK KR" font-size="16.00">NFC 태그 운영 가이드 정비</text>
</g>
<!-- policy_event&#45;&gt;policy_nfc -->
<g id="edge92" class="edge">
<title>policy_event&#45;&gt;policy_nfc</title>
<path fill="none" stroke="#6b7280" stroke-width="1.2" d="M1036,-3291.84C1036,-3291.84 1036,-3237.04 1036,-3237.04"/>
<polygon fill="#6b7280" stroke="#6b7280" stroke-width="1.2" points="1038.8,-3237.04 1036,-3229.04 1033.2,-3237.04 1038.8,-3237.04"/>
</g>
<!-- policy_reward -->
<g id="node77" class="node">
<title>policy_reward</title>
<path fill="#ffffff" stroke="#6b7280" stroke-width="1.4" d="M1087.5,-3114C1087.5,-3114 938.5,-3114 938.5,-3114 932.5,-3114 926.5,-3108 926.5,-3102 926.5,-3102 926.5,-3090 926.5,-3090 926.5,-3084 932.5,-3078 938.5,-3078 938.5,-3078 1087.5,-3078 1087.5,-3078 1093.5,-3078 1099.5,-3084 1099.5,-3090 1099.5,-3090 1099.5,-3102 1099.5,-3102 1099.5,-3108 1093.5,-3114 1087.5,-3114"/>
<text text-anchor="middle" x="1013" y="-3092.2" font-family="Noto Sans CJK KR" font-size="16.00">리워드 사용 정책 정비</text>
</g>
<!-- policy_nfc&#45;&gt;policy_reward -->
<g id="edge93" class="edge">
<title>policy_nfc&#45;&gt;policy_reward</title>
<path fill="none" stroke="#6b7280" stroke-width="1.2" d="M1013,-3192.78C1013,-3192.78 1013,-3122.14 1013,-3122.14"/>
<polygon fill="#6b7280" stroke="#6b7280" stroke-width="1.2" points="1015.8,-3122.14 1013,-3114.14 1010.2,-3122.14 1015.8,-3122.14"/>
</g>
<!-- policy_guide -->
<g id="node78" class="node">
<title>policy_guide</title>
<path fill="#ffffff" stroke="#6b7280" stroke-width="1.4" d="M1113.5,-2970C1113.5,-2970 900.5,-2970 900.5,-2970 894.5,-2970 888.5,-2964 888.5,-2958 888.5,-2958 888.5,-2946 888.5,-2946 888.5,-2940 894.5,-2934 900.5,-2934 900.5,-2934 1113.5,-2934 1113.5,-2934 1119.5,-2934 1125.5,-2940 1125.5,-2946 1125.5,-2946 1125.5,-2958 1125.5,-2958 1125.5,-2964 1119.5,-2970 1113.5,-2970"/>
<text text-anchor="middle" x="1007" y="-2948.2" font-family="Noto Sans CJK KR" font-size="16.00">제휴사 관리자 운영 가이드 배포</text>
</g>
<!-- policy_reward&#45;&gt;policy_guide -->
<g id="edge94" class="edge">
<title>policy_reward&#45;&gt;policy_guide</title>
<path fill="none" stroke="#6b7280" stroke-width="1.2" d="M1013,-3077.76C1013,-3077.76 1013,-2978.09 1013,-2978.09"/>
<polygon fill="#6b7280" stroke="#6b7280" stroke-width="1.2" points="1015.8,-2978.09 1013,-2970.09 1010.2,-2978.09 1015.8,-2978.09"/>
</g>
<!-- policy_guide&#45;&gt;partner_mgmt -->
<g id="edge95" class="edge">
<title>policy_guide&#45;&gt;partner_mgmt</title>
<path fill="none" stroke="#6b7280" stroke-width="1.2" d="M1125.8,-2952C1278.68,-2952 1524.83,-2952 1524.83,-2952 1524.83,-2952 1524.83,-2850.07 1524.83,-2850.07"/>
<polygon fill="#6b7280" stroke="#6b7280" stroke-width="1.2" points="1527.63,-2850.07 1524.83,-2842.07 1522.03,-2850.07 1527.63,-2850.07"/>
</g>
</g>
</svg>
