<?xml version="1.0" encoding="UTF-8" standalone="no"?>
<!DOCTYPE svg PUBLIC "-//W3C//DTD SVG 1.1//EN"
 "http://www.w3.org/Graphics/SVG/1.1/DTD/svg11.dtd">
<!-- Generated by graphviz version 2.42.4 (0)
 -->
<!-- Title: G Pages: 1 -->
<svg width="2419pt" height="3686pt"
 viewBox="0.00 0.00 2419.40 3686.40" xmlns="http://www.w3.org/2000/svg" xmlns:xlink="http://www.w3.org/1999/xlink">
<g id="graph0" class="graph" transform="scale(1 1) rotate(0) translate(25.2 3661.2)">
<title>G</title>
<polygon fill="white" stroke="transparent" points="-25.2,25.2 -25.2,-3661.2 2394.2,-3661.2 2394.2,25.2 -25.2,25.2"/>
<text text-anchor="middle" x="1184.5" y="-3614.4" font-family="Noto Sans CJK KR" font-size="22.00">사용자 기준 플로우 차트</text>
<g id="clust1" class="cluster">
<title>cluster_mainnav</title>
<path fill="#f8fbff" stroke="#bfdbfe" d="M451,-1884C451,-1884 779,-1884 779,-1884 785,-1884 791,-1890 791,-1896 791,-1896 791,-2998 791,-2998 791,-3004 785,-3010 779,-3010 779,-3010 451,-3010 451,-3010 445,-3010 439,-3004 439,-2998 439,-2998 439,-1896 439,-1896 439,-1890 445,-1884 451,-1884"/>
<text text-anchor="middle" x="615" y="-2991.6" font-family="Noto Sans CJK KR" font-size="18.00">주요 진입 화면</text>
</g>
<g id="clust2" class="cluster">
<title>cluster_tagflow</title>
<path fill="#fafbff" stroke="#c7d2fe" d="M20,-639C20,-639 296,-639 296,-639 302,-639 308,-645 308,-651 308,-651 308,-1702 308,-1702 308,-1708 302,-1714 296,-1714 296,-1714 20,-1714 20,-1714 14,-1714 8,-1708 8,-1702 8,-1702 8,-651 8,-651 8,-645 14,-639 20,-639"/>
<text text-anchor="middle" x="158" y="-1695.6" font-family="Noto Sans CJK KR" font-size="18.00">태그 인증 및 NFT 획득</text>
</g>
<g id="clust3" class="cluster">
<title>cluster_collection</title>
<path fill="#f7fffb" stroke="#a7f3d0" d="M483,-103C483,-103 831,-103 831,-103 837,-103 843,-109 843,-115 843,-115 843,-707 843,-707 843,-713 837,-719 831,-719 831,-719 483,-719 483,-719 477,-719 471,-713 471,-707 471,-707 471,-115 471,-115 471,-109 477,-103 483,-103"/>
<text text-anchor="middle" x="657" y="-700.6" font-family="Noto Sans CJK KR" font-size="18.00">컬렉션 및 NFT 보기</text>
</g>
<g id="clust4" class="cluster">
<title>cluster_reward</title>
<path fill="#fff8fc" stroke="#fbcfe8" d="M1339,-8C1339,-8 1654,-8 1654,-8 1660,-8 1666,-14 1666,-20 1666,-20 1666,-707 1666,-707 1666,-713 1660,-719 1654,-719 1654,-719 1339,-719 1339,-719 1333,-719 1327,-713 1327,-707 1327,-707 1327,-20 1327,-20 1327,-14 1333,-8 1339,-8"/>
<text text-anchor="middle" x="1496.5" y="-700.6" font-family="Noto Sans CJK KR" font-size="18.00">리워드 확인</text>
</g>
<g id="clust5" class="cluster">
<title>cluster_mypage</title>
<path fill="#fbfaff" stroke="#ddd6fe" d="M1527,-2623C1527,-2623 2349,-2623 2349,-2623 2355,-2623 2361,-2629 2361,-2635 2361,-2635 2361,-2837 2361,-2837 2361,-2843 2355,-2849 2349,-2849 2349,-2849 1527,-2849 1527,-2849 1521,-2849 1515,-2843 1515,-2837 1515,-2837 1515,-2635 1515,-2635 1515,-2629 1521,-2623 1527,-2623"/>
<text text-anchor="middle" x="1938" y="-2830.6" font-family="Noto Sans CJK KR" font-size="18.00">마이페이지</text>
</g>
<!-- login_decision -->
<g id="node1" class="node">
<title>login_decision</title>
<path fill="#fff7ed" stroke="#f59e0b" stroke-width="1.4" d="M1078.33,-3506.22C1078.33,-3506.22 958.67,-3477.78 958.67,-3477.78 952.84,-3476.39 952.84,-3473.61 958.67,-3472.22 958.67,-3472.22 1078.33,-3443.78 1078.33,-3443.78 1084.16,-3442.39 1095.84,-3442.39 1101.67,-3443.78 1101.67,-3443.78 1221.33,-3472.22 1221.33,-3472.22 1227.16,-3473.61 1227.16,-3476.39 1221.33,-3477.78 1221.33,-3477.78 1101.67,-3506.22 1101.67,-3506.22 1095.84,-3507.61 1084.16,-3507.61 1078.33,-3506.22"/>
<text text-anchor="middle" x="1090" y="-3471.2" font-family="Noto Sans CJK KR" font-size="16.00">로그인 상태인가?</text>
</g>
<!-- login_page -->
<g id="node10" class="node">
<title>login_page</title>
<path fill="#f3f4f6" stroke="#6b7280" stroke-width="1.4" d="M1220,-3369C1220,-3369 1168,-3369 1168,-3369 1162,-3369 1156,-3363 1156,-3357 1156,-3357 1156,-3345 1156,-3345 1156,-3339 1162,-3333 1168,-3333 1168,-3333 1220,-3333 1220,-3333 1226,-3333 1232,-3339 1232,-3345 1232,-3345 1232,-3357 1232,-3357 1232,-3363 1226,-3369 1220,-3369"/>
<text text-anchor="middle" x="1194" y="-3347.2" font-family="Noto Sans CJK KR" font-size="16.00">/login/</text>
</g>
<!-- login_decision&#45;&gt;login_page -->
<g id="edge2" class="edge">
<title>login_decision&#45;&gt;login_page</title>
<path fill="none" stroke="#6b7280" stroke-width="1.2" d="M1194,-3465.68C1194,-3465.68 1194,-3377.07 1194,-3377.07"/>
<polygon fill="#6b7280" stroke="#6b7280" stroke-width="1.2" points="1196.8,-3377.07 1194,-3369.07 1191.2,-3377.07 1196.8,-3377.07"/>
<text text-anchor="middle" x="1175.5" y="-3401.6" font-family="Noto Sans CJK KR" font-size="13.00">아니오</text>
</g>
<!-- home -->
<g id="node13" class="node">
<title>home</title>
<path fill="#eff6ff" stroke="#3b82f6" stroke-width="1.4" d="M1075,-3084C1075,-3084 1045,-3084 1045,-3084 1039,-3084 1033,-3078 1033,-3072 1033,-3072 1033,-3060 1033,-3060 1033,-3054 1039,-3048 1045,-3048 1045,-3048 1075,-3048 1075,-3048 1081,-3048 1087,-3054 1087,-3060 1087,-3060 1087,-3072 1087,-3072 1087,-3078 1081,-3084 1075,-3084"/>
<text text-anchor="middle" x="1060" y="-3062.2" font-family="Noto Sans CJK KR" font-size="16.00">/ 홈</text>
</g>
<!-- login_decision&#45;&gt;home -->
<g id="edge6" class="edge">
<title>login_decision&#45;&gt;home</title>
<path fill="none" stroke="#6b7280" stroke-width="1.2" d="M1051,-3450.03C1051,-3450.03 1051,-3092.33 1051,-3092.33"/>
<polygon fill="#6b7280" stroke="#6b7280" stroke-width="1.2" points="1053.8,-3092.33 1051,-3084.33 1048.2,-3092.33 1053.8,-3092.33"/>
<text text-anchor="middle" x="1066.5" y="-3252.6" font-family="Noto Sans CJK KR" font-size="13.00">예</text>
</g>
<!-- progress_decision -->
<g id="node2" class="node">
<title>progress_decision</title>
<path fill="#fff7ed" stroke="#f59e0b" stroke-width="1.4" d="M1058.18,-2680.94C1058.18,-2680.94 886.82,-2651.06 886.82,-2651.06 880.91,-2650.03 880.91,-2647.97 886.82,-2646.94 886.82,-2646.94 1058.18,-2617.06 1058.18,-2617.06 1064.09,-2616.03 1075.91,-2616.03 1081.82,-2617.06 1081.82,-2617.06 1253.18,-2646.94 1253.18,-2646.94 1259.09,-2647.97 1259.09,-2650.03 1253.18,-2651.06 1253.18,-2651.06 1081.82,-2680.94 1081.82,-2680.94 1075.91,-2681.97 1064.09,-2681.97 1058.18,-2680.94"/>
<text text-anchor="middle" x="1070" y="-2645.2" font-family="Noto Sans CJK KR" font-size="16.00">진행 중 컬렉션이 있는가?</text>
</g>
<!-- progress_stats -->
<g id="node21" class="node">
<title>progress_stats</title>
<path fill="#ffffff" stroke="#6b7280" stroke-width="1.4" d="M1107,-2543C1107,-2543 1007,-2543 1007,-2543 1001,-2543 995,-2537 995,-2531 995,-2531 995,-2519 995,-2519 995,-2513 1001,-2507 1007,-2507 1007,-2507 1107,-2507 1107,-2507 1113,-2507 1119,-2513 1119,-2519 1119,-2519 1119,-2531 1119,-2531 1119,-2537 1113,-2543 1107,-2543"/>
<text text-anchor="middle" x="1057" y="-2521.2" font-family="Noto Sans CJK KR" font-size="16.00">진행 통계 확인</text>
</g>
<!-- progress_decision&#45;&gt;progress_stats -->
<g id="edge15" class="edge">
<title>progress_decision&#45;&gt;progress_stats</title>
<path fill="none" stroke="#6b7280" stroke-width="1.2" d="M1057,-2617.07C1057,-2617.07 1057,-2551.01 1057,-2551.01"/>
<polygon fill="#6b7280" stroke="#6b7280" stroke-width="1.2" points="1059.8,-2551.01 1057,-2543.01 1054.2,-2551.01 1059.8,-2551.01"/>
<text text-anchor="middle" x="1075.5" y="-2575.6" font-family="Noto Sans CJK KR" font-size="13.00">있음</text>
</g>
<!-- progress_empty -->
<g id="node23" class="node">
<title>progress_empty</title>
<path fill="#ffffff" stroke="#6b7280" stroke-width="1.4" d="M1326.5,-2543C1326.5,-2543 1241.5,-2543 1241.5,-2543 1235.5,-2543 1229.5,-2537 1229.5,-2531 1229.5,-2531 1229.5,-2519 1229.5,-2519 1229.5,-2513 1235.5,-2507 1241.5,-2507 1241.5,-2507 1326.5,-2507 1326.5,-2507 1332.5,-2507 1338.5,-2513 1338.5,-2519 1338.5,-2519 1338.5,-2531 1338.5,-2531 1338.5,-2537 1332.5,-2543 1326.5,-2543"/>
<text text-anchor="middle" x="1284" y="-2521.2" font-family="Noto Sans CJK KR" font-size="16.00">빈 상태 화면</text>
</g>
<!-- progress_decision&#45;&gt;progress_empty -->
<g id="edge18" class="edge">
<title>progress_decision&#45;&gt;progress_empty</title>
<path fill="none" stroke="#6b7280" stroke-width="1.2" d="M1247.25,-2645.68C1247.25,-2645.68 1247.25,-2551.44 1247.25,-2551.44"/>
<polygon fill="#6b7280" stroke="#6b7280" stroke-width="1.2" points="1250.05,-2551.44 1247.25,-2543.44 1244.45,-2551.44 1250.05,-2551.44"/>
<text text-anchor="middle" x="1215.5" y="-2575.6" font-family="Noto Sans CJK KR" font-size="13.00">없음</text>
</g>
<!-- status_decision -->
<g id="node3" class="node">
<title>status_decision</title>
<path fill="#fff7ed" stroke="#f59e0b" stroke-width="1.4" d="M900.51,-2159.54C900.51,-2159.54 810.49,-2132.46 810.49,-2132.46 804.75,-2130.73 804.75,-2127.27 810.49,-2125.54 810.49,-2125.54 900.51,-2098.46 900.51,-2098.46 906.25,-2096.73 917.75,-2096.73 923.49,-2098.46 923.49,-2098.46 1013.51,-2125.54 1013.51,-2125.54 1019.25,-2127.27 1019.25,-2130.73 1013.51,-2132.46 1013.51,-2132.46 923.49,-2159.54 923.49,-2159.54 917.75,-2161.27 906.25,-2161.27 900.51,-2159.54"/>
<text text-anchor="middle" x="912" y="-2125.2" font-family="Noto Sans CJK KR" font-size="16.00">현재 상태는?</text>
</g>
<!-- status_decision&#45;&gt;home -->
<g id="edge27" class="edge">
<title>status_decision&#45;&gt;home</title>
<path fill="none" stroke="#6b7280" stroke-width="1.2" d="M837,-2140.6C837,-2221.42 837,-2697 837,-2697 837,-2697 1076.2,-2697 1076.2,-2697 1076.2,-2697 1076.2,-3039.95 1076.2,-3039.95"/>
<polygon fill="#6b7280" stroke="#6b7280" stroke-width="1.2" points="1073.4,-3039.95 1076.2,-3047.95 1079,-3039.95 1073.4,-3039.95"/>
<text text-anchor="middle" x="849" y="-2521.6" font-family="Noto Sans CJK KR" font-size="13.00">그 외</text>
</g>
<!-- tab_collection -->
<g id="node16" class="node">
<title>tab_collection</title>
<path fill="#ffffff" stroke="#6b7280" stroke-width="1.4" d="M771,-2023C771,-2023 635,-2023 635,-2023 629,-2023 623,-2017 623,-2011 623,-2011 623,-1999 623,-1999 623,-1993 629,-1987 635,-1987 635,-1987 771,-1987 771,-1987 777,-1987 783,-1993 783,-1999 783,-1999 783,-2011 783,-2011 783,-2017 777,-2023 771,-2023"/>
<text text-anchor="middle" x="703" y="-2001.2" font-family="Noto Sans CJK KR" font-size="16.00">하단 탭: Collection</text>
</g>
<!-- status_decision&#45;&gt;tab_collection -->
<g id="edge26" class="edge">
<title>status_decision&#45;&gt;tab_collection</title>
<path fill="none" stroke="#6b7280" stroke-width="1.2" d="M798.95,-2129C777.88,-2129 762.33,-2129 762.33,-2129 762.33,-2129 762.33,-2031.03 762.33,-2031.03"/>
<polygon fill="#6b7280" stroke="#6b7280" stroke-width="1.2" points="765.13,-2031.03 762.33,-2023.03 759.53,-2031.03 765.13,-2031.03"/>
<text text-anchor="middle" x="806.5" y="-2055.6" font-family="Noto Sans CJK KR" font-size="13.00">완료 또는 종료</text>
</g>
<!-- tab_tag -->
<g id="node17" class="node">
<title>tab_tag</title>
<path fill="#ffffff" stroke="#6b7280" stroke-width="1.4" d="M771,-1928C771,-1928 685,-1928 685,-1928 679,-1928 673,-1922 673,-1916 673,-1916 673,-1904 673,-1904 673,-1898 679,-1892 685,-1892 685,-1892 771,-1892 771,-1892 777,-1892 783,-1898 783,-1904 783,-1904 783,-1916 783,-1916 783,-1922 777,-1928 771,-1928"/>
<text text-anchor="middle" x="728" y="-1906.2" font-family="Noto Sans CJK KR" font-size="16.00">하단 탭: Tag</text>
</g>
<!-- status_decision&#45;&gt;tab_tag -->
<g id="edge25" class="edge">
<title>status_decision&#45;&gt;tab_tag</title>
<path fill="none" stroke="#6b7280" stroke-width="1.2" d="M889.5,-2101.71C889.5,-2043 889.5,-1910 889.5,-1910 889.5,-1910 791.13,-1910 791.13,-1910"/>
<polygon fill="#6b7280" stroke="#6b7280" stroke-width="1.2" points="791.13,-1907.2 783.13,-1910 791.13,-1912.8 791.13,-1907.2"/>
<text text-anchor="middle" x="932" y="-2001.6" font-family="Noto Sans CJK KR" font-size="13.00">참여 중 / current step 존재</text>
</g>
<!-- event_join -->
<g id="node26" class="node">
<title>event_join</title>
<path fill="#dcfce7" stroke="#22c55e" stroke-width="1.4" d="M1138.5,-2023C1138.5,-2023 1057.5,-2023 1057.5,-2023 1051.5,-2023 1045.5,-2017 1045.5,-2011 1045.5,-2011 1045.5,-1999 1045.5,-1999 1045.5,-1993 1051.5,-1987 1057.5,-1987 1057.5,-1987 1138.5,-1987 1138.5,-1987 1144.5,-1987 1150.5,-1993 1150.5,-1999 1150.5,-1999 1150.5,-2011 1150.5,-2011 1150.5,-2017 1144.5,-2023 1138.5,-2023"/>
<text text-anchor="middle" x="1098" y="-2001.2" font-family="Noto Sans CJK KR" font-size="16.00">이벤트 참여</text>
</g>
<!-- status_decision&#45;&gt;event_join -->
<g id="edge23" class="edge">
<title>status_decision&#45;&gt;event_join</title>
<path fill="none" stroke="#6b7280" stroke-width="1.2" d="M1002.5,-2122.01C1002.5,-2095.01 1002.5,-1999 1002.5,-1999 1002.5,-1999 1037.22,-1999 1037.22,-1999"/>
<polygon fill="#6b7280" stroke="#6b7280" stroke-width="1.2" points="1037.22,-2001.8 1045.22,-1999 1037.22,-1996.2 1037.22,-2001.8"/>
<text text-anchor="middle" x="1054.5" y="-2055.6" font-family="Noto Sans CJK KR" font-size="13.00">참여 가능 / 미참여</text>
</g>
<!-- ongoing_decision -->
<g id="node4" class="node">
<title>ongoing_decision</title>
<path fill="#fff7ed" stroke="#f59e0b" stroke-width="1.4" d="M239.16,-1831.06C239.16,-1831.06 54.84,-1800.94 54.84,-1800.94 48.92,-1799.97 48.92,-1798.03 54.84,-1797.06 54.84,-1797.06 239.16,-1766.94 239.16,-1766.94 245.08,-1765.97 256.92,-1765.97 262.84,-1766.94 262.84,-1766.94 447.16,-1797.06 447.16,-1797.06 453.08,-1798.03 453.08,-1799.97 447.16,-1800.94 447.16,-1800.94 262.84,-1831.06 262.84,-1831.06 256.92,-1832.03 245.08,-1832.03 239.16,-1831.06"/>
<text text-anchor="middle" x="251" y="-1795.2" font-family="Noto Sans CJK KR" font-size="16.00">ongoing 컬렉션이 있는가?</text>
</g>
<!-- no_target -->
<g id="node27" class="node">
<title>no_target</title>
<path fill="#ffffff" stroke="#6b7280" stroke-width="1.4" d="M288,-1613C288,-1613 154,-1613 154,-1613 148,-1613 142,-1607 142,-1601 142,-1601 142,-1589 142,-1589 142,-1583 148,-1577 154,-1577 154,-1577 288,-1577 288,-1577 294,-1577 300,-1583 300,-1589 300,-1589 300,-1601 300,-1601 300,-1607 294,-1613 288,-1613"/>
<text text-anchor="middle" x="221" y="-1591.2" font-family="Noto Sans CJK KR" font-size="16.00">인증 대상 없음 화면</text>
</g>
<!-- ongoing_decision&#45;&gt;no_target -->
<g id="edge29" class="edge">
<title>ongoing_decision&#45;&gt;no_target</title>
<path fill="none" stroke="#6b7280" stroke-width="1.2" d="M248,-1765.31C248,-1765.31 248,-1621.2 248,-1621.2"/>
<polygon fill="#6b7280" stroke="#6b7280" stroke-width="1.2" points="250.8,-1621.2 248,-1613.2 245.2,-1621.2 250.8,-1621.2"/>
<text text-anchor="middle" x="263.5" y="-1725.6" font-family="Noto Sans CJK KR" font-size="13.00">없음</text>
</g>
<!-- current_step -->
<g id="node28" class="node">
<title>current_step</title>
<path fill="#ffffff" stroke="#6b7280" stroke-width="1.4" d="M184,-1678C184,-1678 82,-1678 82,-1678 76,-1678 70,-1672 70,-1666 70,-1666 70,-1654 70,-1654 70,-1648 76,-1642 82,-1642 82,-1642 184,-1642 184,-1642 190,-1642 196,-1648 196,-1654 196,-1654 196,-1666 196,-1666 196,-1672 190,-1678 184,-1678"/>
<text text-anchor="middle" x="133" y="-1656.2" font-family="Noto Sans CJK KR" font-size="16.00">현재 step 확인</text>
</g>
<!-- ongoing_decision&#45;&gt;current_step -->
<g id="edge31" class="edge">
<title>ongoing_decision&#45;&gt;current_step</title>
<path fill="none" stroke="#6b7280" stroke-width="1.2" d="M133,-1784.12C133,-1784.12 133,-1686.27 133,-1686.27"/>
<polygon fill="#6b7280" stroke="#6b7280" stroke-width="1.2" points="135.8,-1686.27 133,-1678.27 130.2,-1686.27 135.8,-1686.27"/>
<text text-anchor="middle" x="171.5" y="-1725.6" font-family="Noto Sans CJK KR" font-size="13.00">있음</text>
</g>
<!-- verify_decision -->
<g id="node5" class="node">
<title>verify_decision</title>
<path fill="#fff7ed" stroke="#f59e0b" stroke-width="1.4" d="M402.66,-1069.07C402.66,-1069.07 327.34,-1042.93 327.34,-1042.93 321.67,-1040.97 321.67,-1037.03 327.34,-1035.07 327.34,-1035.07 402.66,-1008.93 402.66,-1008.93 408.33,-1006.97 419.67,-1006.97 425.34,-1008.93 425.34,-1008.93 500.66,-1035.07 500.66,-1035.07 506.33,-1037.03 506.33,-1040.97 500.66,-1042.93 500.66,-1042.93 425.34,-1069.07 425.34,-1069.07 419.67,-1071.03 408.33,-1071.03 402.66,-1069.07"/>
<text text-anchor="middle" x="414" y="-1035.2" font-family="Noto Sans CJK KR" font-size="16.00">검증 성공?</text>
</g>
<!-- error_screen -->
<g id="node34" class="node">
<title>error_screen</title>
<path fill="#fee2e2" stroke="#ef4444" stroke-width="1.4" d="M94,-933C94,-933 28,-933 28,-933 22,-933 16,-927 16,-921 16,-921 16,-909 16,-909 16,-903 22,-897 28,-897 28,-897 94,-897 94,-897 100,-897 106,-903 106,-909 106,-909 106,-921 106,-921 106,-927 100,-933 94,-933"/>
<text text-anchor="middle" x="61" y="-911.2" font-family="Noto Sans CJK KR" font-size="16.00">에러 화면</text>
</g>
<!-- verify_decision&#45;&gt;error_screen -->
<g id="edge38" class="edge">
<title>verify_decision&#45;&gt;error_screen</title>
<path fill="none" stroke="#6b7280" stroke-width="1.2" d="M347.58,-1050C252.7,-1050 89.67,-1050 89.67,-1050 89.67,-1050 89.67,-941.21 89.67,-941.21"/>
<polygon fill="#6b7280" stroke="#6b7280" stroke-width="1.2" points="92.47,-941.21 89.67,-933.21 86.87,-941.21 92.47,-941.21"/>
<text text-anchor="middle" x="192.5" y="-965.6" font-family="Noto Sans CJK KR" font-size="13.00">아니오</text>
</g>
<!-- mint_success -->
<g id="node35" class="node">
<title>mint_success</title>
<path fill="#dcfce7" stroke="#22c55e" stroke-width="1.4" d="M288,-933C288,-933 154,-933 154,-933 148,-933 142,-927 142,-921 142,-921 142,-909 142,-909 142,-903 148,-897 154,-897 154,-897 288,-897 288,-897 294,-897 300,-903 300,-909 300,-909 300,-921 300,-921 300,-927 294,-933 288,-933"/>
<text text-anchor="middle" x="221" y="-911.2" font-family="Noto Sans CJK KR" font-size="16.00">NFT 민팅 성공 화면</text>
</g>
<!-- verify_decision&#45;&gt;mint_success -->
<g id="edge40" class="edge">
<title>verify_decision&#45;&gt;mint_success</title>
<path fill="none" stroke="#6b7280" stroke-width="1.2" d="M350.39,-1027C317.64,-1027 284.5,-1027 284.5,-1027 284.5,-1027 284.5,-941.49 284.5,-941.49"/>
<polygon fill="#6b7280" stroke="#6b7280" stroke-width="1.2" points="287.3,-941.49 284.5,-933.49 281.7,-941.49 287.3,-941.49"/>
<text text-anchor="middle" x="366.5" y="-965.6" font-family="Noto Sans CJK KR" font-size="13.00">예</text>
</g>
<!-- last_step_decision -->
<g id="node6" class="node">
<title>last_step_decision</title>
<path fill="#fff7ed" stroke="#f59e0b" stroke-width="1.4" d="M789.21,-835.76C789.21,-835.76 633.79,-806.24 633.79,-806.24 627.89,-805.12 627.89,-802.88 633.79,-801.76 633.79,-801.76 789.21,-772.24 789.21,-772.24 795.11,-771.12 806.89,-771.12 812.79,-772.24 812.79,-772.24 968.21,-801.76 968.21,-801.76 974.11,-802.88 974.11,-805.12 968.21,-806.24 968.21,-806.24 812.79,-835.76 812.79,-835.76 806.89,-836.88 795.11,-836.88 789.21,-835.76"/>
<text text-anchor="middle" x="801" y="-800.2" font-family="Noto Sans CJK KR" font-size="16.00">마지막 step 완료인가?</text>
</g>
<!-- collection_page -->
<g id="node39" class="node">
<title>collection_page</title>
<path fill="#f3f4f6" stroke="#6b7280" stroke-width="1.4" d="M720,-683C720,-683 632,-683 632,-683 626,-683 620,-677 620,-671 620,-671 620,-659 620,-659 620,-653 626,-647 632,-647 632,-647 720,-647 720,-647 726,-647 732,-653 732,-659 732,-659 732,-671 732,-671 732,-677 726,-683 720,-683"/>
<text text-anchor="middle" x="676" y="-661.2" font-family="Noto Sans CJK KR" font-size="16.00">/collection/</text>
</g>
<!-- last_step_decision&#45;&gt;collection_page -->
<g id="edge46" class="edge">
<title>last_step_decision&#45;&gt;collection_page</title>
<path fill="none" stroke="#6b7280" stroke-width="1.2" d="M677,-793.55C677,-793.55 677,-691.31 677,-691.31"/>
<polygon fill="#6b7280" stroke="#6b7280" stroke-width="1.2" points="679.8,-691.31 677,-683.31 674.2,-691.31 679.8,-691.31"/>
<text text-anchor="middle" x="756.5" y="-730.6" font-family="Noto Sans CJK KR" font-size="13.00">아니오</text>
</g>
<!-- reward_page -->
<g id="node44" class="node">
<title>reward_page</title>
<path fill="#f3f4f6" stroke="#6b7280" stroke-width="1.4" d="M1414.5,-683C1414.5,-683 1347.5,-683 1347.5,-683 1341.5,-683 1335.5,-677 1335.5,-671 1335.5,-671 1335.5,-659 1335.5,-659 1335.5,-653 1341.5,-647 1347.5,-647 1347.5,-647 1414.5,-647 1414.5,-647 1420.5,-647 1426.5,-653 1426.5,-659 1426.5,-659 1426.5,-671 1426.5,-671 1426.5,-677 1420.5,-683 1414.5,-683"/>
<text text-anchor="middle" x="1381" y="-661.2" font-family="Noto Sans CJK KR" font-size="16.00">/reward/</text>
</g>
<!-- last_step_decision&#45;&gt;reward_page -->
<g id="edge45" class="edge">
<title>last_step_decision&#45;&gt;reward_page</title>
<path fill="none" stroke="#6b7280" stroke-width="1.2" d="M980.35,-804C1146.41,-804 1367.83,-804 1367.83,-804 1367.83,-804 1367.83,-691.17 1367.83,-691.17"/>
<polygon fill="#6b7280" stroke="#6b7280" stroke-width="1.2" points="1370.63,-691.17 1367.83,-683.17 1365.03,-691.17 1370.63,-691.17"/>
<text text-anchor="middle" x="1175.5" y="-730.6" font-family="Noto Sans CJK KR" font-size="13.00">예</text>
</g>
<!-- nft_tab_decision -->
<g id="node7" class="node">
<title>nft_tab_decision</title>
<path fill="#fff7ed" stroke="#f59e0b" stroke-width="1.4" d="M952.51,-473.54C952.51,-473.54 862.49,-446.46 862.49,-446.46 856.75,-444.73 856.75,-441.27 862.49,-439.54 862.49,-439.54 952.51,-412.46 952.51,-412.46 958.25,-410.73 969.75,-410.73 975.49,-412.46 975.49,-412.46 1065.51,-439.54 1065.51,-439.54 1071.25,-441.27 1071.25,-444.73 1065.51,-446.46 1065.51,-446.46 975.49,-473.54 975.49,-473.54 969.75,-475.27 958.25,-475.27 952.51,-473.54"/>
<text text-anchor="middle" x="964" y="-439.2" font-family="Noto Sans CJK KR" font-size="16.00">NFT 탭인가?</text>
</g>
<!-- collection_cards -->
<g id="node41" class="node">
<title>collection_cards</title>
<path fill="#ffffff" stroke="#6b7280" stroke-width="1.4" d="M822.5,-337C822.5,-337 707.5,-337 707.5,-337 701.5,-337 695.5,-331 695.5,-325 695.5,-325 695.5,-313 695.5,-313 695.5,-307 701.5,-301 707.5,-301 707.5,-301 822.5,-301 822.5,-301 828.5,-301 834.5,-307 834.5,-313 834.5,-313 834.5,-325 834.5,-325 834.5,-331 828.5,-337 822.5,-337"/>
<text text-anchor="middle" x="765" y="-315.2" font-family="Noto Sans CJK KR" font-size="16.00">컬렉션 카드 목록</text>
</g>
<!-- nft_tab_decision&#45;&gt;collection_cards -->
<g id="edge50" class="edge">
<title>nft_tab_decision&#45;&gt;collection_cards</title>
<path fill="none" stroke="#6b7280" stroke-width="1.2" d="M890.75,-431C834.01,-431 765,-431 765,-431 765,-431 765,-345.49 765,-345.49"/>
<polygon fill="#6b7280" stroke="#6b7280" stroke-width="1.2" points="767.8,-345.49 765,-337.49 762.2,-345.49 767.8,-345.49"/>
<text text-anchor="middle" x="882.5" y="-369.6" font-family="Noto Sans CJK KR" font-size="13.00">아니오</text>
</g>
<!-- nft_cards -->
<g id="node42" class="node">
<title>nft_cards</title>
<path fill="#ffffff" stroke="#6b7280" stroke-width="1.4" d="M647,-337C647,-337 547,-337 547,-337 541,-337 535,-331 535,-325 535,-325 535,-313 535,-313 535,-307 541,-301 547,-301 547,-301 647,-301 647,-301 653,-301 659,-307 659,-313 659,-313 659,-325 659,-325 659,-331 653,-337 647,-337"/>
<text text-anchor="middle" x="597" y="-315.2" font-family="Noto Sans CJK KR" font-size="16.00">NFT 카드 목록</text>
</g>
<!-- nft_tab_decision&#45;&gt;nft_cards -->
<g id="edge53" class="edge">
<title>nft_tab_decision&#45;&gt;nft_cards</title>
<path fill="none" stroke="#6b7280" stroke-width="1.2" d="M887.51,-454C779.95,-454 597,-454 597,-454 597,-454 597,-345.21 597,-345.21"/>
<polygon fill="#6b7280" stroke="#6b7280" stroke-width="1.2" points="599.8,-345.21 597,-337.21 594.2,-345.21 599.8,-345.21"/>
<text text-anchor="middle" x="709.5" y="-369.6" font-family="Noto Sans CJK KR" font-size="13.00">예</text>
</g>
<!-- reward_decision -->
<g id="node8" class="node">
<title>reward_decision</title>
<path fill="#fff7ed" stroke="#f59e0b" stroke-width="1.4" d="M1805.33,-474.22C1805.33,-474.22 1685.67,-445.78 1685.67,-445.78 1679.84,-444.39 1679.84,-441.61 1685.67,-440.22 1685.67,-440.22 1805.33,-411.78 1805.33,-411.78 1811.16,-410.39 1822.84,-410.39 1828.67,-411.78 1828.67,-411.78 1948.33,-440.22 1948.33,-440.22 1954.16,-441.61 1954.16,-444.39 1948.33,-445.78 1948.33,-445.78 1828.67,-474.22 1828.67,-474.22 1822.84,-475.61 1811.16,-475.61 1805.33,-474.22"/>
<text text-anchor="middle" x="1817" y="-439.2" font-family="Noto Sans CJK KR" font-size="16.00">리워드가 있는가?</text>
</g>
<!-- reward_empty -->
<g id="node46" class="node">
<title>reward_empty</title>
<path fill="#ffffff" stroke="#6b7280" stroke-width="1.4" d="M1645.5,-337C1645.5,-337 1560.5,-337 1560.5,-337 1554.5,-337 1548.5,-331 1548.5,-325 1548.5,-325 1548.5,-313 1548.5,-313 1548.5,-307 1554.5,-301 1560.5,-301 1560.5,-301 1645.5,-301 1645.5,-301 1651.5,-301 1657.5,-307 1657.5,-313 1657.5,-313 1657.5,-325 1657.5,-325 1657.5,-331 1651.5,-337 1645.5,-337"/>
<text text-anchor="middle" x="1603" y="-315.2" font-family="Noto Sans CJK KR" font-size="16.00">빈 상태 화면</text>
</g>
<!-- reward_decision&#45;&gt;reward_empty -->
<g id="edge61" class="edge">
<title>reward_decision&#45;&gt;reward_empty</title>
<path fill="none" stroke="#6b7280" stroke-width="1.2" d="M1724.03,-431C1686.66,-431 1652.25,-431 1652.25,-431 1652.25,-431 1652.25,-345.49 1652.25,-345.49"/>
<polygon fill="#6b7280" stroke="#6b7280" stroke-width="1.2" points="1655.05,-345.49 1652.25,-337.49 1649.45,-345.49 1655.05,-345.49"/>
<text text-anchor="middle" x="1722.5" y="-369.6" font-family="Noto Sans CJK KR" font-size="13.00">없음</text>
</g>
<!-- reward_cards -->
<g id="node47" class="node">
<title>reward_cards</title>
<path fill="#ffffff" stroke="#6b7280" stroke-width="1.4" d="M1500.5,-337C1500.5,-337 1385.5,-337 1385.5,-337 1379.5,-337 1373.5,-331 1373.5,-325 1373.5,-325 1373.5,-313 1373.5,-313 1373.5,-307 1379.5,-301 1385.5,-301 1385.5,-301 1500.5,-301 1500.5,-301 1506.5,-301 1512.5,-307 1512.5,-313 1512.5,-313 1512.5,-325 1512.5,-325 1512.5,-331 1506.5,-337 1500.5,-337"/>
<text text-anchor="middle" x="1443" y="-315.2" font-family="Noto Sans CJK KR" font-size="16.00">리워드 카드 목록</text>
</g>
<!-- reward_decision&#45;&gt;reward_cards -->
<g id="edge62" class="edge">
<title>reward_decision&#45;&gt;reward_cards</title>
<path fill="none" stroke="#6b7280" stroke-width="1.2" d="M1720.02,-454C1617.51,-454 1470.5,-454 1470.5,-454 1470.5,-454 1470.5,-345.21 1470.5,-345.21"/>
<polygon fill="#6b7280" stroke="#6b7280" stroke-width="1.2" points="1473.3,-345.21 1470.5,-337.21 1467.7,-345.21 1473.3,-345.21"/>
<text text-anchor="middle" x="1555.5" y="-369.6" font-family="Noto Sans CJK KR" font-size="13.00">있음</text>
</g>
<!-- app_entry -->
<g id="node9" class="node">
<title>app_entry</title>
<path fill="#eff6ff" stroke="#3b82f6" stroke-width="1.4" d="M1115.5,-3604C1115.5,-3604 1064.5,-3604 1064.5,-3604 1058.5,-3604 1052.5,-3598 1052.5,-3592 1052.5,-3592 1052.5,-3580 1052.5,-3580 1052.5,-3574 1058.5,-3568 1064.5,-3568 1064.5,-3568 1115.5,-3568 1115.5,-3568 1121.5,-3568 1127.5,-3574 1127.5,-3580 1127.5,-3580 1127.5,-3592 1127.5,-3592 1127.5,-3598 1121.5,-3604 1115.5,-3604"/>
<text text-anchor="middle" x="1090" y="-3582.2" font-family="Noto Sans CJK KR" font-size="16.00">앱 진입</text>
</g>
<!-- app_entry&#45;&gt;login_decision -->
<g id="edge1" class="edge">
<title>app_entry&#45;&gt;login_decision</title>
<path fill="none" stroke="#6b7280" stroke-width="1.2" d="M1090,-3567.67C1090,-3567.67 1090,-3517.06 1090,-3517.06"/>
<polygon fill="#6b7280" stroke="#6b7280" stroke-width="1.2" points="1092.8,-3517.06 1090,-3509.06 1087.2,-3517.06 1092.8,-3517.06"/>
</g>
<!-- login_action -->
<g id="node11" class="node">
<title>login_action</title>
<path fill="#f3f4f6" stroke="#6b7280" stroke-width="1.4" d="M1266.5,-3274C1266.5,-3274 1121.5,-3274 1121.5,-3274 1115.5,-3274 1109.5,-3268 1109.5,-3262 1109.5,-3262 1109.5,-3250 1109.5,-3250 1109.5,-3244 1115.5,-3238 1121.5,-3238 1121.5,-3238 1266.5,-3238 1266.5,-3238 1272.5,-3238 1278.5,-3244 1278.5,-3250 1278.5,-3250 1278.5,-3262 1278.5,-3262 1278.5,-3268 1272.5,-3274 1266.5,-3274"/>
<text text-anchor="middle" x="1194" y="-3252.2" font-family="Noto Sans CJK KR" font-size="16.00">로그인 또는 회원가입</text>
</g>
<!-- login_page&#45;&gt;login_action -->
<g id="edge3" class="edge">
<title>login_page&#45;&gt;login_action</title>
<path fill="none" stroke="#6b7280" stroke-width="1.2" d="M1194,-3332.68C1194,-3332.68 1194,-3282.26 1194,-3282.26"/>
<polygon fill="#6b7280" stroke="#6b7280" stroke-width="1.2" points="1196.8,-3282.26 1194,-3274.26 1191.2,-3282.26 1196.8,-3282.26"/>
</g>
<!-- auth_success -->
<g id="node12" class="node">
<title>auth_success</title>
<path fill="#dcfce7" stroke="#22c55e" stroke-width="1.4" d="M1202,-3179C1202,-3179 1136,-3179 1136,-3179 1130,-3179 1124,-3173 1124,-3167 1124,-3167 1124,-3155 1124,-3155 1124,-3149 1130,-3143 1136,-3143 1136,-3143 1202,-3143 1202,-3143 1208,-3143 1214,-3149 1214,-3155 1214,-3155 1214,-3167 1214,-3167 1214,-3173 1208,-3179 1202,-3179"/>
<text text-anchor="middle" x="1169" y="-3157.2" font-family="Noto Sans CJK KR" font-size="16.00">인증 성공</text>
</g>
<!-- login_action&#45;&gt;auth_success -->
<g id="edge4" class="edge">
<title>login_action&#45;&gt;auth_success</title>
<path fill="none" stroke="#6b7280" stroke-width="1.2" d="M1169,-3237.68C1169,-3237.68 1169,-3187.26 1169,-3187.26"/>
<polygon fill="#6b7280" stroke="#6b7280" stroke-width="1.2" points="1171.8,-3187.26 1169,-3179.26 1166.2,-3187.26 1171.8,-3187.26"/>
</g>
<!-- auth_success&#45;&gt;home -->
<g id="edge5" class="edge">
<title>auth_success&#45;&gt;home</title>
<path fill="none" stroke="#6b7280" stroke-width="1.2" d="M1123.97,-3161C1097.43,-3161 1069,-3161 1069,-3161 1069,-3161 1069,-3092.32 1069,-3092.32"/>
<polygon fill="#6b7280" stroke="#6b7280" stroke-width="1.2" points="1071.8,-3092.32 1069,-3084.32 1066.2,-3092.32 1071.8,-3092.32"/>
</g>
<!-- explore -->
<g id="node14" class="node">
<title>explore</title>
<path fill="#ffffff" stroke="#6b7280" stroke-width="1.4" d="M770.5,-2909C770.5,-2909 605.5,-2909 605.5,-2909 599.5,-2909 593.5,-2903 593.5,-2897 593.5,-2897 593.5,-2869 593.5,-2869 593.5,-2863 599.5,-2857 605.5,-2857 605.5,-2857 770.5,-2857 770.5,-2857 776.5,-2857 782.5,-2863 782.5,-2869 782.5,-2869 782.5,-2897 782.5,-2897 782.5,-2903 776.5,-2909 770.5,-2909"/>
<text text-anchor="middle" x="688" y="-2888.2" font-family="Noto Sans CJK KR" font-size="16.00">추천 / 진행중 / 오픈예정</text>
<text text-anchor="middle" x="688" y="-2870.2" font-family="Noto Sans CJK KR" font-size="16.00">이벤트 탐색</text>
</g>
<!-- home&#45;&gt;explore -->
<g id="edge7" class="edge">
<title>home&#45;&gt;explore</title>
<path fill="none" stroke="#6b7280" stroke-width="1.2" d="M1054.6,-3047.78C1054.6,-3001.5 1054.6,-2883 1054.6,-2883 1054.6,-2883 790.89,-2883 790.89,-2883"/>
<polygon fill="#6b7280" stroke="#6b7280" stroke-width="1.2" points="790.89,-2880.2 782.89,-2883 790.89,-2885.8 790.89,-2880.2"/>
</g>
<!-- progress_banner -->
<g id="node15" class="node">
<title>progress_banner</title>
<path fill="#ffffff" stroke="#6b7280" stroke-width="1.4" d="M593,-2974C593,-2974 459,-2974 459,-2974 453,-2974 447,-2968 447,-2962 447,-2962 447,-2950 447,-2950 447,-2944 453,-2938 459,-2938 459,-2938 593,-2938 593,-2938 599,-2938 605,-2944 605,-2950 605,-2950 605,-2962 605,-2962 605,-2968 599,-2974 593,-2974"/>
<text text-anchor="middle" x="526" y="-2952.2" font-family="Noto Sans CJK KR" font-size="16.00">진행 현황 배너 클릭</text>
</g>
<!-- home&#45;&gt;progress_banner -->
<g id="edge8" class="edge">
<title>home&#45;&gt;progress_banner</title>
<path fill="none" stroke="#6b7280" stroke-width="1.2" d="M1032.78,-3075C923.97,-3075 526,-3075 526,-3075 526,-3075 526,-2982.07 526,-2982.07"/>
<polygon fill="#6b7280" stroke="#6b7280" stroke-width="1.2" points="528.8,-2982.07 526,-2974.07 523.2,-2982.07 528.8,-2982.07"/>
</g>
<!-- home&#45;&gt;tab_collection -->
<g id="edge9" class="edge">
<title>home&#45;&gt;tab_collection</title>
<path fill="none" stroke="#6b7280" stroke-width="1.2" d="M1032.96,-3066C964.24,-3066 788.33,-3066 788.33,-3066 788.33,-3066 788.33,-2011 788.33,-2011 788.33,-2011 787.83,-2011 787.83,-2011"/>
<polygon fill="#6b7280" stroke="#6b7280" stroke-width="1.2" points="791.25,-2008.2 783.25,-2011 791.25,-2013.8 791.25,-2008.2"/>
</g>
<!-- home&#45;&gt;tab_tag -->
<g id="edge10" class="edge">
<title>home&#45;&gt;tab_tag</title>
<path fill="none" stroke="#6b7280" stroke-width="1.2" d="M1033,-3057C965.29,-3057 793.67,-3057 793.67,-3057 793.67,-3057 793.67,-1919 793.67,-1919 793.67,-1919 791.12,-1919 791.12,-1919"/>
<polygon fill="#6b7280" stroke="#6b7280" stroke-width="1.2" points="791.12,-1916.2 783.12,-1919 791.12,-1921.8 791.12,-1916.2"/>
</g>
<!-- tab_reward -->
<g id="node18" class="node">
<title>tab_reward</title>
<path fill="#ffffff" stroke="#6b7280" stroke-width="1.4" d="M710,-2748C710,-2748 594,-2748 594,-2748 588,-2748 582,-2742 582,-2736 582,-2736 582,-2724 582,-2724 582,-2718 588,-2712 594,-2712 594,-2712 710,-2712 710,-2712 716,-2712 722,-2718 722,-2724 722,-2724 722,-2736 722,-2736 722,-2742 716,-2748 710,-2748"/>
<text text-anchor="middle" x="652" y="-2726.2" font-family="Noto Sans CJK KR" font-size="16.00">하단 탭: Reward</text>
</g>
<!-- home&#45;&gt;tab_reward -->
<g id="edge11" class="edge">
<title>home&#45;&gt;tab_reward</title>
<path fill="none" stroke="#6b7280" stroke-width="1.2" d="M1065.4,-3047.79C1065.4,-2978.61 1065.4,-2736 1065.4,-2736 1065.4,-2736 730.13,-2736 730.13,-2736"/>
<polygon fill="#6b7280" stroke="#6b7280" stroke-width="1.2" points="730.13,-2733.2 722.13,-2736 730.13,-2738.8 730.13,-2733.2"/>
</g>
<!-- tab_mypage -->
<g id="node19" class="node">
<title>tab_mypage</title>
<path fill="#ffffff" stroke="#6b7280" stroke-width="1.4" d="M770.5,-2974C770.5,-2974 653.5,-2974 653.5,-2974 647.5,-2974 641.5,-2968 641.5,-2962 641.5,-2962 641.5,-2950 641.5,-2950 641.5,-2944 647.5,-2938 653.5,-2938 653.5,-2938 770.5,-2938 770.5,-2938 776.5,-2938 782.5,-2944 782.5,-2950 782.5,-2950 782.5,-2962 782.5,-2962 782.5,-2968 776.5,-2974 770.5,-2974"/>
<text text-anchor="middle" x="712" y="-2952.2" font-family="Noto Sans CJK KR" font-size="16.00">하단 탭: MyPage</text>
</g>
<!-- home&#45;&gt;tab_mypage -->
<g id="edge12" class="edge">
<title>home&#45;&gt;tab_mypage</title>
<path fill="none" stroke="#6b7280" stroke-width="1.2" d="M1043.8,-3047.88C1043.8,-3018.09 1043.8,-2962 1043.8,-2962 1043.8,-2962 790.77,-2962 790.77,-2962"/>
<polygon fill="#6b7280" stroke="#6b7280" stroke-width="1.2" points="790.77,-2959.2 782.77,-2962 790.77,-2964.8 790.77,-2959.2"/>
</g>
<!-- event_detail -->
<g id="node24" class="node">
<title>event_detail</title>
<path fill="#f3f4f6" stroke="#6b7280" stroke-width="1.4" d="M1130.5,-2353C1130.5,-2353 1007.5,-2353 1007.5,-2353 1001.5,-2353 995.5,-2347 995.5,-2341 995.5,-2341 995.5,-2329 995.5,-2329 995.5,-2323 1001.5,-2317 1007.5,-2317 1007.5,-2317 1130.5,-2317 1130.5,-2317 1136.5,-2317 1142.5,-2323 1142.5,-2329 1142.5,-2329 1142.5,-2341 1142.5,-2341 1142.5,-2347 1136.5,-2353 1130.5,-2353"/>
<text text-anchor="middle" x="1069" y="-2331.2" font-family="Noto Sans CJK KR" font-size="16.00">/event/:eventId/</text>
</g>
<!-- explore&#45;&gt;event_detail -->
<g id="edge20" class="edge">
<title>explore&#45;&gt;event_detail</title>
<path fill="none" stroke="#6b7280" stroke-width="1.2" d="M742.17,-2856.94C742.17,-2748.03 742.17,-2335 742.17,-2335 742.17,-2335 987.24,-2335 987.24,-2335"/>
<polygon fill="#6b7280" stroke="#6b7280" stroke-width="1.2" points="987.24,-2337.8 995.24,-2335 987.24,-2332.2 987.24,-2337.8"/>
</g>
<!-- progress_page -->
<g id="node20" class="node">
<title>progress_page</title>
<path fill="#f3f4f6" stroke="#6b7280" stroke-width="1.4" d="M919,-2813C919,-2813 811,-2813 811,-2813 805,-2813 799,-2807 799,-2801 799,-2801 799,-2789 799,-2789 799,-2783 805,-2777 811,-2777 811,-2777 919,-2777 919,-2777 925,-2777 931,-2783 931,-2789 931,-2789 931,-2801 931,-2801 931,-2807 925,-2813 919,-2813"/>
<text text-anchor="middle" x="865" y="-2791.2" font-family="Noto Sans CJK KR" font-size="16.00">/my&#45;progress/</text>
</g>
<!-- progress_banner&#45;&gt;progress_page -->
<g id="edge13" class="edge">
<title>progress_banner&#45;&gt;progress_page</title>
<path fill="none" stroke="#6b7280" stroke-width="1.2" d="M587.75,-2937.84C587.75,-2895.74 587.75,-2795 587.75,-2795 587.75,-2795 790.94,-2795 790.94,-2795"/>
<polygon fill="#6b7280" stroke="#6b7280" stroke-width="1.2" points="790.94,-2797.8 798.94,-2795 790.94,-2792.2 790.94,-2797.8"/>
</g>
<!-- tab_collection&#45;&gt;collection_page -->
<g id="edge47" class="edge">
<title>tab_collection&#45;&gt;collection_page</title>
<path fill="none" stroke="#6b7280" stroke-width="1.2" d="M622.88,-2005C610.11,-2005 601,-2005 601,-2005 601,-2005 601,-671 601,-671 601,-671 611.93,-671 611.93,-671"/>
<polygon fill="#6b7280" stroke="#6b7280" stroke-width="1.2" points="611.93,-673.8 619.93,-671 611.93,-668.2 611.93,-673.8"/>
</g>
<!-- tab_tag&#45;&gt;ongoing_decision -->
<g id="edge28" class="edge">
<title>tab_tag&#45;&gt;ongoing_decision</title>
<path fill="none" stroke="#6b7280" stroke-width="1.2" d="M672.68,-1910C592.38,-1910 453,-1910 453,-1910 453,-1910 453,-1808.25 453,-1808.25"/>
<polygon fill="#6b7280" stroke="#6b7280" stroke-width="1.2" points="455.8,-1808.25 453,-1800.25 450.2,-1808.25 455.8,-1808.25"/>
</g>
<!-- tab_reward&#45;&gt;reward_page -->
<g id="edge58" class="edge">
<title>tab_reward&#45;&gt;reward_page</title>
<path fill="none" stroke="#6b7280" stroke-width="1.2" d="M722.1,-2724C907.6,-2724 1397.17,-2724 1397.17,-2724 1397.17,-2724 1397.17,-691.11 1397.17,-691.11"/>
<polygon fill="#6b7280" stroke="#6b7280" stroke-width="1.2" points="1399.97,-691.11 1397.17,-683.11 1394.37,-691.11 1399.97,-691.11"/>
</g>
<!-- mypage -->
<g id="node51" class="node">
<title>mypage</title>
<path fill="#f3f4f6" stroke="#6b7280" stroke-width="1.4" d="M1857.5,-2813C1857.5,-2813 1782.5,-2813 1782.5,-2813 1776.5,-2813 1770.5,-2807 1770.5,-2801 1770.5,-2801 1770.5,-2789 1770.5,-2789 1770.5,-2783 1776.5,-2777 1782.5,-2777 1782.5,-2777 1857.5,-2777 1857.5,-2777 1863.5,-2777 1869.5,-2783 1869.5,-2789 1869.5,-2789 1869.5,-2801 1869.5,-2801 1869.5,-2807 1863.5,-2813 1857.5,-2813"/>
<text text-anchor="middle" x="1820" y="-2791.2" font-family="Noto Sans CJK KR" font-size="16.00">/mypage/</text>
</g>
<!-- tab_mypage&#45;&gt;mypage -->
<g id="edge67" class="edge">
<title>tab_mypage&#45;&gt;mypage</title>
<path fill="none" stroke="#6b7280" stroke-width="1.2" d="M782.57,-2950C1026.63,-2950 1820,-2950 1820,-2950 1820,-2950 1820,-2821.08 1820,-2821.08"/>
<polygon fill="#6b7280" stroke="#6b7280" stroke-width="1.2" points="1822.8,-2821.08 1820,-2813.08 1817.2,-2821.08 1822.8,-2821.08"/>
</g>
<!-- progress_page&#45;&gt;progress_decision -->
<g id="edge14" class="edge">
<title>progress_page&#45;&gt;progress_decision</title>
<path fill="none" stroke="#6b7280" stroke-width="1.2" d="M903,-2776.8C903,-2776.8 903,-2662.14 903,-2662.14"/>
<polygon fill="#6b7280" stroke="#6b7280" stroke-width="1.2" points="905.8,-2662.14 903,-2654.14 900.2,-2662.14 905.8,-2662.14"/>
</g>
<!-- progress_cards -->
<g id="node22" class="node">
<title>progress_cards</title>
<path fill="#ffffff" stroke="#6b7280" stroke-width="1.4" d="M1153,-2448C1153,-2448 985,-2448 985,-2448 979,-2448 973,-2442 973,-2436 973,-2436 973,-2424 973,-2424 973,-2418 979,-2412 985,-2412 985,-2412 1153,-2412 1153,-2412 1159,-2412 1165,-2418 1165,-2424 1165,-2424 1165,-2436 1165,-2436 1165,-2442 1159,-2448 1153,-2448"/>
<text text-anchor="middle" x="1069" y="-2426.2" font-family="Noto Sans CJK KR" font-size="16.00">진행 중 컬렉션 카드 확인</text>
</g>
<!-- progress_stats&#45;&gt;progress_cards -->
<g id="edge16" class="edge">
<title>progress_stats&#45;&gt;progress_cards</title>
<path fill="none" stroke="#6b7280" stroke-width="1.2" d="M1057,-2506.68C1057,-2506.68 1057,-2456.26 1057,-2456.26"/>
<polygon fill="#6b7280" stroke="#6b7280" stroke-width="1.2" points="1059.8,-2456.26 1057,-2448.26 1054.2,-2456.26 1059.8,-2456.26"/>
</g>
<!-- progress_cards&#45;&gt;event_detail -->
<g id="edge17" class="edge">
<title>progress_cards&#45;&gt;event_detail</title>
<path fill="none" stroke="#6b7280" stroke-width="1.2" d="M1069,-2411.68C1069,-2411.68 1069,-2361.26 1069,-2361.26"/>
<polygon fill="#6b7280" stroke="#6b7280" stroke-width="1.2" points="1071.8,-2361.26 1069,-2353.26 1066.2,-2361.26 1071.8,-2361.26"/>
</g>
<!-- progress_empty&#45;&gt;home -->
<g id="edge19" class="edge">
<title>progress_empty&#45;&gt;home</title>
<path fill="none" stroke="#6b7280" stroke-width="1.2" d="M1271.75,-2543C1271.75,-2636.87 1271.75,-3066 1271.75,-3066 1271.75,-3066 1095.25,-3066 1095.25,-3066"/>
<polygon fill="#6b7280" stroke="#6b7280" stroke-width="1.2" points="1095.25,-3063.2 1087.25,-3066 1095.25,-3068.8 1095.25,-3063.2"/>
</g>
<!-- event_info -->
<g id="node25" class="node">
<title>event_info</title>
<path fill="#ffffff" stroke="#6b7280" stroke-width="1.4" d="M1122,-2258C1122,-2258 920,-2258 920,-2258 914,-2258 908,-2252 908,-2246 908,-2246 908,-2234 908,-2234 908,-2228 914,-2222 920,-2222 920,-2222 1122,-2222 1122,-2222 1128,-2222 1134,-2228 1134,-2234 1134,-2234 1134,-2246 1134,-2246 1134,-2252 1128,-2258 1122,-2258"/>
<text text-anchor="middle" x="1021" y="-2236.2" font-family="Noto Sans CJK KR" font-size="16.00">이벤트 정보 / 루트 / 보상 확인</text>
</g>
<!-- event_detail&#45;&gt;event_info -->
<g id="edge21" class="edge">
<title>event_detail&#45;&gt;event_info</title>
<path fill="none" stroke="#6b7280" stroke-width="1.2" d="M1064.75,-2316.68C1064.75,-2316.68 1064.75,-2266.26 1064.75,-2266.26"/>
<polygon fill="#6b7280" stroke="#6b7280" stroke-width="1.2" points="1067.55,-2266.26 1064.75,-2258.26 1061.95,-2266.26 1067.55,-2266.26"/>
</g>
<!-- event_info&#45;&gt;status_decision -->
<g id="edge22" class="edge">
<title>event_info&#45;&gt;status_decision</title>
<path fill="none" stroke="#6b7280" stroke-width="1.2" d="M966.5,-2221.67C966.5,-2221.67 966.5,-2154.62 966.5,-2154.62"/>
<polygon fill="#6b7280" stroke="#6b7280" stroke-width="1.2" points="969.3,-2154.62 966.5,-2146.62 963.7,-2154.62 969.3,-2154.62"/>
</g>
<!-- event_join&#45;&gt;tab_tag -->
<g id="edge24" class="edge">
<title>event_join&#45;&gt;tab_tag</title>
<path fill="none" stroke="#6b7280" stroke-width="1.2" d="M1061.25,-1986.88C1061.25,-1957.09 1061.25,-1901 1061.25,-1901 1061.25,-1901 791.03,-1901 791.03,-1901"/>
<polygon fill="#6b7280" stroke="#6b7280" stroke-width="1.2" points="791.03,-1898.2 783.03,-1901 791.03,-1903.8 791.03,-1898.2"/>
</g>
<!-- no_target&#45;&gt;collection_page -->
<g id="edge30" class="edge">
<title>no_target&#45;&gt;collection_page</title>
<path fill="none" stroke="#6b7280" stroke-width="1.2" d="M300.03,-1595C306.53,-1595 310.67,-1595 310.67,-1595 310.67,-1595 310.67,-659 310.67,-659 310.67,-659 611.72,-659 611.72,-659"/>
<polygon fill="#6b7280" stroke="#6b7280" stroke-width="1.2" points="611.72,-661.8 619.72,-659 611.72,-656.2 611.72,-661.8"/>
</g>
<!-- uid_input -->
<g id="node29" class="node">
<title>uid_input</title>
<path fill="#ffffff" stroke="#6b7280" stroke-width="1.4" d="M197,-1548C197,-1548 69,-1548 69,-1548 63,-1548 57,-1542 57,-1536 57,-1536 57,-1524 57,-1524 57,-1518 63,-1512 69,-1512 69,-1512 197,-1512 197,-1512 203,-1512 209,-1518 209,-1524 209,-1524 209,-1536 209,-1536 209,-1542 203,-1548 197,-1548"/>
<text text-anchor="middle" x="133" y="-1526.2" font-family="Noto Sans CJK KR" font-size="16.00">NFC Tag UID 입력</text>
</g>
<!-- current_step&#45;&gt;uid_input -->
<g id="edge32" class="edge">
<title>current_step&#45;&gt;uid_input</title>
<path fill="none" stroke="#6b7280" stroke-width="1.2" d="M106,-1641.92C106,-1641.92 106,-1556.34 106,-1556.34"/>
<polygon fill="#6b7280" stroke="#6b7280" stroke-width="1.2" points="108.8,-1556.34 106,-1548.34 103.2,-1556.34 108.8,-1556.34"/>
</g>
<!-- auth_start -->
<g id="node30" class="node">
<title>auth_start</title>
<path fill="#ffffff" stroke="#6b7280" stroke-width="1.4" d="M197,-1453C197,-1453 131,-1453 131,-1453 125,-1453 119,-1447 119,-1441 119,-1441 119,-1429 119,-1429 119,-1423 125,-1417 131,-1417 131,-1417 197,-1417 197,-1417 203,-1417 209,-1423 209,-1429 209,-1429 209,-1441 209,-1441 209,-1447 203,-1453 197,-1453"/>
<text text-anchor="middle" x="164" y="-1431.2" font-family="Noto Sans CJK KR" font-size="16.00">인증 시작</text>
</g>
<!-- uid_input&#45;&gt;auth_start -->
<g id="edge33" class="edge">
<title>uid_input&#45;&gt;auth_start</title>
<path fill="none" stroke="#6b7280" stroke-width="1.2" d="M164,-1511.68C164,-1511.68 164,-1461.26 164,-1461.26"/>
<polygon fill="#6b7280" stroke="#6b7280" stroke-width="1.2" points="166.8,-1461.26 164,-1453.26 161.2,-1461.26 166.8,-1461.26"/>
</g>
<!-- scanning -->
<g id="node31" class="node">
<title>scanning</title>
<path fill="#e0f2fe" stroke="#0ea5e9" stroke-width="1.4" d="M215,-1358C215,-1358 145,-1358 145,-1358 139,-1358 133,-1352 133,-1346 133,-1346 133,-1334 133,-1334 133,-1328 139,-1322 145,-1322 145,-1322 215,-1322 215,-1322 221,-1322 227,-1328 227,-1334 227,-1334 227,-1346 227,-1346 227,-1352 221,-1358 215,-1358"/>
<text text-anchor="middle" x="180" y="-1336.2" font-family="Noto Sans CJK KR" font-size="16.00">scanning</text>
</g>
<!-- auth_start&#45;&gt;scanning -->
<g id="edge34" class="edge">
<title>auth_start&#45;&gt;scanning</title>
<path fill="none" stroke="#6b7280" stroke-width="1.2" d="M171,-1416.68C171,-1416.68 171,-1366.26 171,-1366.26"/>
<polygon fill="#6b7280" stroke="#6b7280" stroke-width="1.2" points="173.8,-1366.26 171,-1358.26 168.2,-1366.26 173.8,-1366.26"/>
</g>
<!-- verified -->
<g id="node32" class="node">
<title>verified</title>
<path fill="#dcfce7" stroke="#22c55e" stroke-width="1.4" d="M214.5,-1263C214.5,-1263 155.5,-1263 155.5,-1263 149.5,-1263 143.5,-1257 143.5,-1251 143.5,-1251 143.5,-1239 143.5,-1239 143.5,-1233 149.5,-1227 155.5,-1227 155.5,-1227 214.5,-1227 214.5,-1227 220.5,-1227 226.5,-1233 226.5,-1239 226.5,-1239 226.5,-1251 226.5,-1251 226.5,-1257 220.5,-1263 214.5,-1263"/>
<text text-anchor="middle" x="185" y="-1241.2" font-family="Noto Sans CJK KR" font-size="16.00">verified</text>
</g>
<!-- scanning&#45;&gt;verified -->
<g id="edge35" class="edge">
<title>scanning&#45;&gt;verified</title>
<path fill="none" stroke="#6b7280" stroke-width="1.2" d="M185,-1321.68C185,-1321.68 185,-1271.26 185,-1271.26"/>
<polygon fill="#6b7280" stroke="#6b7280" stroke-width="1.2" points="187.8,-1271.26 185,-1263.26 182.2,-1271.26 187.8,-1271.26"/>
</g>
<!-- backend_verify -->
<g id="node33" class="node">
<title>backend_verify</title>
<path fill="#ffffff" stroke="#6b7280" stroke-width="1.4" d="M257,-1168C257,-1168 141,-1168 141,-1168 135,-1168 129,-1162 129,-1156 129,-1156 129,-1144 129,-1144 129,-1138 135,-1132 141,-1132 141,-1132 257,-1132 257,-1132 263,-1132 269,-1138 269,-1144 269,-1144 269,-1156 269,-1156 269,-1162 263,-1168 257,-1168"/>
<text text-anchor="middle" x="199" y="-1146.2" font-family="Noto Sans CJK KR" font-size="16.00">백엔드 NFC 검증</text>
</g>
<!-- verified&#45;&gt;backend_verify -->
<g id="edge36" class="edge">
<title>verified&#45;&gt;backend_verify</title>
<path fill="none" stroke="#6b7280" stroke-width="1.2" d="M185,-1226.68C185,-1226.68 185,-1176.26 185,-1176.26"/>
<polygon fill="#6b7280" stroke="#6b7280" stroke-width="1.2" points="187.8,-1176.26 185,-1168.26 182.2,-1176.26 187.8,-1176.26"/>
</g>
<!-- backend_verify&#45;&gt;verify_decision -->
<g id="edge37" class="edge">
<title>backend_verify&#45;&gt;verify_decision</title>
<path fill="none" stroke="#6b7280" stroke-width="1.2" d="M269.19,-1150C322.78,-1150 387.5,-1150 387.5,-1150 387.5,-1150 387.5,-1071.91 387.5,-1071.91"/>
<polygon fill="#6b7280" stroke="#6b7280" stroke-width="1.2" points="390.3,-1071.91 387.5,-1063.91 384.7,-1071.91 390.3,-1071.91"/>
</g>
<!-- error_screen&#45;&gt;uid_input -->
<g id="edge39" class="edge">
<title>error_screen&#45;&gt;uid_input</title>
<path fill="none" stroke="#6b7280" stroke-width="1.2" d="M73.33,-933.07C73.33,-933.07 73.33,-1503.93 73.33,-1503.93"/>
<polygon fill="#6b7280" stroke="#6b7280" stroke-width="1.2" points="70.53,-1503.93 73.33,-1511.93 76.13,-1503.93 70.53,-1503.93"/>
</g>
<!-- mint_success&#45;&gt;last_step_decision -->
<g id="edge44" class="edge">
<title>mint_success&#45;&gt;last_step_decision</title>
<path fill="none" stroke="#6b7280" stroke-width="1.2" d="M277.75,-896.97C277.75,-872.02 277.75,-830 277.75,-830 277.75,-830 750.62,-830 750.62,-830"/>
<polygon fill="#6b7280" stroke="#6b7280" stroke-width="1.2" points="750.62,-832.8 758.62,-830 750.62,-827.2 750.62,-832.8"/>
</g>
<!-- share_button -->
<g id="node36" class="node">
<title>share_button</title>
<path fill="#ffffff" stroke="#6b7280" stroke-width="1.4" d="M244,-822C244,-822 178,-822 178,-822 172,-822 166,-816 166,-810 166,-810 166,-798 166,-798 166,-792 172,-786 178,-786 178,-786 244,-786 244,-786 250,-786 256,-792 256,-798 256,-798 256,-810 256,-810 256,-816 250,-822 244,-822"/>
<text text-anchor="middle" x="211" y="-800.2" font-family="Noto Sans CJK KR" font-size="16.00">공유 버튼</text>
</g>
<!-- mint_success&#45;&gt;share_button -->
<g id="edge42" class="edge">
<title>mint_success&#45;&gt;share_button</title>
<path fill="none" stroke="#6b7280" stroke-width="1.2" d="M211,-896.67C211,-896.67 211,-830.36 211,-830.36"/>
<polygon fill="#6b7280" stroke="#6b7280" stroke-width="1.2" points="213.8,-830.36 211,-822.36 208.2,-830.36 213.8,-830.36"/>
</g>
<!-- gallery -->
<g id="node38" class="node">
<title>gallery</title>
<path fill="#f3f4f6" stroke="#6b7280" stroke-width="1.4" d="M1021,-242C1021,-242 863,-242 863,-242 857,-242 851,-236 851,-230 851,-230 851,-218 851,-218 851,-212 857,-206 863,-206 863,-206 1021,-206 1021,-206 1027,-206 1033,-212 1033,-218 1033,-218 1033,-230 1033,-230 1033,-236 1027,-242 1021,-242"/>
<text text-anchor="middle" x="942" y="-220.2" font-family="Noto Sans CJK KR" font-size="16.00">/nft&#45;gallery/:eventId/</text>
</g>
<!-- mint_success&#45;&gt;gallery -->
<g id="edge41" class="edge">
<title>mint_success&#45;&gt;gallery</title>
<path fill="none" stroke="#6b7280" stroke-width="1.2" d="M300.31,-915C303.48,-915 305.33,-915 305.33,-915 305.33,-915 305.33,-220 305.33,-220 305.33,-220 842.78,-220 842.78,-220"/>
<polygon fill="#6b7280" stroke="#6b7280" stroke-width="1.2" points="842.78,-222.8 850.78,-220 842.78,-217.2 842.78,-222.8"/>
</g>
<!-- no_action -->
<g id="node37" class="node">
<title>no_action</title>
<path fill="#ffffff" stroke="#6b7280" stroke-width="1.4" d="M287.5,-683C287.5,-683 104.5,-683 104.5,-683 98.5,-683 92.5,-677 92.5,-671 92.5,-671 92.5,-659 92.5,-659 92.5,-653 98.5,-647 104.5,-647 104.5,-647 287.5,-647 287.5,-647 293.5,-647 299.5,-653 299.5,-659 299.5,-659 299.5,-671 299.5,-671 299.5,-677 293.5,-683 287.5,-683"/>
<text text-anchor="middle" x="196" y="-661.2" font-family="Noto Sans CJK KR" font-size="16.00">현재 구현상 추가 동작 없음</text>
</g>
<!-- share_button&#45;&gt;no_action -->
<g id="edge43" class="edge">
<title>share_button&#45;&gt;no_action</title>
<path fill="none" stroke="#6b7280" stroke-width="1.2" d="M211,-785.83C211,-785.83 211,-691.18 211,-691.18"/>
<polygon fill="#6b7280" stroke="#6b7280" stroke-width="1.2" points="213.8,-691.18 211,-683.18 208.2,-691.18 213.8,-691.18"/>
</g>
<!-- gallery_info -->
<g id="node43" class="node">
<title>gallery_info</title>
<path fill="#ffffff" stroke="#6b7280" stroke-width="1.4" d="M823.5,-147C823.5,-147 616.5,-147 616.5,-147 610.5,-147 604.5,-141 604.5,-135 604.5,-135 604.5,-123 604.5,-123 604.5,-117 610.5,-111 616.5,-111 616.5,-111 823.5,-111 823.5,-111 829.5,-111 835.5,-117 835.5,-123 835.5,-123 835.5,-135 835.5,-135 835.5,-141 829.5,-147 823.5,-147"/>
<text text-anchor="middle" x="720" y="-125.2" font-family="Noto Sans CJK KR" font-size="16.00">컬렉션 진행률 / 획득 NFT 확인</text>
</g>
<!-- gallery&#45;&gt;gallery_info -->
<g id="edge55" class="edge">
<title>gallery&#45;&gt;gallery_info</title>
<path fill="none" stroke="#6b7280" stroke-width="1.2" d="M851,-213C798.12,-213 741.83,-213 741.83,-213 741.83,-213 741.83,-155.23 741.83,-155.23"/>
<polygon fill="#6b7280" stroke="#6b7280" stroke-width="1.2" points="744.63,-155.23 741.83,-147.23 739.03,-155.23 744.63,-155.23"/>
</g>
<!-- collection_filter -->
<g id="node40" class="node">
<title>collection_filter</title>
<path fill="#ffffff" stroke="#6b7280" stroke-width="1.4" d="M823,-588C823,-588 529,-588 529,-588 523,-588 517,-582 517,-576 517,-576 517,-548 517,-548 517,-542 523,-536 529,-536 529,-536 823,-536 823,-536 829,-536 835,-542 835,-548 835,-548 835,-576 835,-576 835,-582 829,-588 823,-588"/>
<text text-anchor="middle" x="676" y="-567.2" font-family="Noto Sans CJK KR" font-size="16.00">필터 선택:</text>
<text text-anchor="middle" x="676" y="-549.2" font-family="Noto Sans CJK KR" font-size="16.00">all / ongoing / completed / ended / NFT</text>
</g>
<!-- collection_page&#45;&gt;collection_filter -->
<g id="edge48" class="edge">
<title>collection_page&#45;&gt;collection_filter</title>
<path fill="none" stroke="#6b7280" stroke-width="1.2" d="M676,-646.59C676,-646.59 676,-596.38 676,-596.38"/>
<polygon fill="#6b7280" stroke="#6b7280" stroke-width="1.2" points="678.8,-596.38 676,-588.38 673.2,-596.38 678.8,-596.38"/>
</g>
<!-- collection_filter&#45;&gt;nft_tab_decision -->
<g id="edge49" class="edge">
<title>collection_filter&#45;&gt;nft_tab_decision</title>
<path fill="none" stroke="#6b7280" stroke-width="1.2" d="M835.08,-570C879.32,-570 915.5,-570 915.5,-570 915.5,-570 915.5,-470.57 915.5,-470.57"/>
<polygon fill="#6b7280" stroke="#6b7280" stroke-width="1.2" points="918.3,-470.57 915.5,-462.57 912.7,-470.57 918.3,-470.57"/>
</g>
<!-- collection_cards&#45;&gt;event_detail -->
<g id="edge51" class="edge">
<title>collection_cards&#45;&gt;event_detail</title>
<path fill="none" stroke="#6b7280" stroke-width="1.2" d="M834.78,-319C947.06,-319 1155.33,-319 1155.33,-319 1155.33,-319 1155.33,-2329 1155.33,-2329 1155.33,-2329 1150.59,-2329 1150.59,-2329"/>
<polygon fill="#6b7280" stroke="#6b7280" stroke-width="1.2" points="1150.59,-2326.2 1142.59,-2329 1150.59,-2331.8 1150.59,-2326.2"/>
</g>
<!-- collection_cards&#45;&gt;gallery -->
<g id="edge52" class="edge">
<title>collection_cards&#45;&gt;gallery</title>
<path fill="none" stroke="#6b7280" stroke-width="1.2" d="M788.17,-300.97C788.17,-276.02 788.17,-234 788.17,-234 788.17,-234 842.74,-234 842.74,-234"/>
<polygon fill="#6b7280" stroke="#6b7280" stroke-width="1.2" points="842.74,-236.8 850.74,-234 842.74,-231.2 842.74,-236.8"/>
</g>
<!-- nft_cards&#45;&gt;gallery -->
<g id="edge54" class="edge">
<title>nft_cards&#45;&gt;gallery</title>
<path fill="none" stroke="#6b7280" stroke-width="1.2" d="M631.75,-300.82C631.75,-274.01 631.75,-227 631.75,-227 631.75,-227 842.59,-227 842.59,-227"/>
<polygon fill="#6b7280" stroke="#6b7280" stroke-width="1.2" points="842.59,-229.8 850.59,-227 842.59,-224.2 842.59,-229.8"/>
</g>
<!-- gallery_info&#45;&gt;event_detail -->
<g id="edge56" class="edge">
<title>gallery_info&#45;&gt;event_detail</title>
<path fill="none" stroke="#6b7280" stroke-width="1.2" d="M835.65,-123C966.06,-123 1160.17,-123 1160.17,-123 1160.17,-123 1160.17,-2341 1160.17,-2341 1160.17,-2341 1150.59,-2341 1150.59,-2341"/>
<polygon fill="#6b7280" stroke="#6b7280" stroke-width="1.2" points="1150.59,-2338.2 1142.59,-2341 1150.59,-2343.8 1150.59,-2338.2"/>
</g>
<!-- gallery_info&#45;&gt;collection_page -->
<g id="edge57" class="edge">
<title>gallery_info&#45;&gt;collection_page</title>
<path fill="none" stroke="#6b7280" stroke-width="1.2" d="M835.54,-135C840.39,-135 843.25,-135 843.25,-135 843.25,-135 843.25,-665 843.25,-665 843.25,-665 740.16,-665 740.16,-665"/>
<polygon fill="#6b7280" stroke="#6b7280" stroke-width="1.2" points="740.16,-662.2 732.16,-665 740.16,-667.8 740.16,-662.2"/>
</g>
<!-- reward_filter -->
<g id="node45" class="node">
<title>reward_filter</title>
<path fill="#ffffff" stroke="#6b7280" stroke-width="1.4" d="M1629.5,-588C1629.5,-588 1440.5,-588 1440.5,-588 1434.5,-588 1428.5,-582 1428.5,-576 1428.5,-576 1428.5,-548 1428.5,-548 1428.5,-542 1434.5,-536 1440.5,-536 1440.5,-536 1629.5,-536 1629.5,-536 1635.5,-536 1641.5,-542 1641.5,-548 1641.5,-548 1641.5,-576 1641.5,-576 1641.5,-582 1635.5,-588 1629.5,-588"/>
<text text-anchor="middle" x="1535" y="-567.2" font-family="Noto Sans CJK KR" font-size="16.00">필터 선택:</text>
<text text-anchor="middle" x="1535" y="-549.2" font-family="Noto Sans CJK KR" font-size="16.00">available / used / expired</text>
</g>
<!-- reward_page&#45;&gt;reward_filter -->
<g id="edge59" class="edge">
<title>reward_page&#45;&gt;reward_filter</title>
<path fill="none" stroke="#6b7280" stroke-width="1.2" d="M1400,-646.51C1400,-614.69 1400,-553 1400,-553 1400,-553 1420.3,-553 1420.3,-553"/>
<polygon fill="#6b7280" stroke="#6b7280" stroke-width="1.2" points="1420.3,-555.8 1428.3,-553 1420.3,-550.2 1420.3,-555.8"/>
</g>
<!-- reward_filter&#45;&gt;reward_decision -->
<g id="edge60" class="edge">
<title>reward_filter&#45;&gt;reward_decision</title>
<path fill="none" stroke="#6b7280" stroke-width="1.2" d="M1641.55,-562C1662.68,-562 1678.5,-562 1678.5,-562 1678.5,-562 1678.5,-452.34 1678.5,-452.34"/>
<polygon fill="#6b7280" stroke="#6b7280" stroke-width="1.2" points="1681.3,-452.34 1678.5,-444.34 1675.7,-452.34 1681.3,-452.34"/>
</g>
<!-- qr_view -->
<g id="node48" class="node">
<title>qr_view</title>
<path fill="#ffffff" stroke="#6b7280" stroke-width="1.4" d="M1472.5,-242C1472.5,-242 1413.5,-242 1413.5,-242 1407.5,-242 1401.5,-236 1401.5,-230 1401.5,-230 1401.5,-218 1401.5,-218 1401.5,-212 1407.5,-206 1413.5,-206 1413.5,-206 1472.5,-206 1472.5,-206 1478.5,-206 1484.5,-212 1484.5,-218 1484.5,-218 1484.5,-230 1484.5,-230 1484.5,-236 1478.5,-242 1472.5,-242"/>
<text text-anchor="middle" x="1443" y="-220.2" font-family="Noto Sans CJK KR" font-size="16.00">QR 보기</text>
</g>
<!-- reward_cards&#45;&gt;qr_view -->
<g id="edge63" class="edge">
<title>reward_cards&#45;&gt;qr_view</title>
<path fill="none" stroke="#6b7280" stroke-width="1.2" d="M1443,-300.68C1443,-300.68 1443,-250.26 1443,-250.26"/>
<polygon fill="#6b7280" stroke="#6b7280" stroke-width="1.2" points="1445.8,-250.26 1443,-242.26 1440.2,-250.26 1445.8,-250.26"/>
</g>
<!-- reward_modal -->
<g id="node49" class="node">
<title>reward_modal</title>
<path fill="#ffffff" stroke="#6b7280" stroke-width="1.4" d="M1500.5,-147C1500.5,-147 1385.5,-147 1385.5,-147 1379.5,-147 1373.5,-141 1373.5,-135 1373.5,-135 1373.5,-123 1373.5,-123 1373.5,-117 1379.5,-111 1385.5,-111 1385.5,-111 1500.5,-111 1500.5,-111 1506.5,-111 1512.5,-117 1512.5,-123 1512.5,-123 1512.5,-135 1512.5,-135 1512.5,-141 1506.5,-147 1500.5,-147"/>
<text text-anchor="middle" x="1443" y="-125.2" font-family="Noto Sans CJK KR" font-size="16.00">리워드 코드 모달</text>
</g>
<!-- qr_view&#45;&gt;reward_modal -->
<g id="edge64" class="edge">
<title>qr_view&#45;&gt;reward_modal</title>
<path fill="none" stroke="#6b7280" stroke-width="1.2" d="M1443,-205.68C1443,-205.68 1443,-155.26 1443,-155.26"/>
<polygon fill="#6b7280" stroke="#6b7280" stroke-width="1.2" points="1445.8,-155.26 1443,-147.26 1440.2,-155.26 1445.8,-155.26"/>
</g>
<!-- reward_usage -->
<g id="node50" class="node">
<title>reward_usage</title>
<path fill="#ffffff" stroke="#6b7280" stroke-width="1.4" d="M1527.5,-52C1527.5,-52 1350.5,-52 1350.5,-52 1344.5,-52 1338.5,-46 1338.5,-40 1338.5,-40 1338.5,-28 1338.5,-28 1338.5,-22 1344.5,-16 1350.5,-16 1350.5,-16 1527.5,-16 1527.5,-16 1533.5,-16 1539.5,-22 1539.5,-28 1539.5,-28 1539.5,-40 1539.5,-40 1539.5,-46 1533.5,-52 1527.5,-52"/>
<text text-anchor="middle" x="1439" y="-30.2" font-family="Noto Sans CJK KR" font-size="16.00">쿠폰 코드 / 사용 방법 확인</text>
</g>
<!-- reward_modal&#45;&gt;reward_usage -->
<g id="edge65" class="edge">
<title>reward_modal&#45;&gt;reward_usage</title>
<path fill="none" stroke="#6b7280" stroke-width="1.2" d="M1443,-110.68C1443,-110.68 1443,-60.26 1443,-60.26"/>
<polygon fill="#6b7280" stroke="#6b7280" stroke-width="1.2" points="1445.8,-60.26 1443,-52.26 1440.2,-60.26 1445.8,-60.26"/>
</g>
<!-- reward_usage&#45;&gt;reward_page -->
<g id="edge66" class="edge">
<title>reward_usage&#45;&gt;reward_page</title>
<path fill="none" stroke="#6b7280" stroke-width="1.2" d="M1356,-52.2C1356,-52.2 1356,-638.72 1356,-638.72"/>
<polygon fill="#6b7280" stroke="#6b7280" stroke-width="1.2" points="1353.2,-638.72 1356,-646.72 1358.8,-638.72 1353.2,-638.72"/>
</g>
<!-- profile -->
<g id="node52" class="node">
<title>profile</title>
<path fill="#ffffff" stroke="#6b7280" stroke-width="1.4" d="M2217,-2667C2217,-2667 1981,-2667 1981,-2667 1975,-2667 1969,-2661 1969,-2655 1969,-2655 1969,-2643 1969,-2643 1969,-2637 1975,-2631 1981,-2631 1981,-2631 2217,-2631 2217,-2631 2223,-2631 2229,-2637 2229,-2643 2229,-2643 2229,-2655 2229,-2655 2229,-2661 2223,-2667 2217,-2667"/>
<text text-anchor="middle" x="2099" y="-2645.2" font-family="Noto Sans CJK KR" font-size="16.00">프로필 / 보유 NFT / 참여 도시 확인</text>
</g>
<!-- mypage&#45;&gt;profile -->
<g id="edge68" class="edge">
<title>mypage&#45;&gt;profile</title>
<path fill="none" stroke="#6b7280" stroke-width="1.2" d="M1869.56,-2789C1949.73,-2789 2099,-2789 2099,-2789 2099,-2789 2099,-2675.02 2099,-2675.02"/>
<polygon fill="#6b7280" stroke="#6b7280" stroke-width="1.2" points="2101.8,-2675.02 2099,-2667.02 2096.2,-2675.02 2101.8,-2675.02"/>
</g>
<!-- travel_stats -->
<g id="node53" class="node">
<title>travel_stats</title>
<path fill="#ffffff" stroke="#6b7280" stroke-width="1.4" d="M1635,-2667C1635,-2667 1535,-2667 1535,-2667 1529,-2667 1523,-2661 1523,-2655 1523,-2655 1523,-2643 1523,-2643 1523,-2637 1529,-2631 1535,-2631 1535,-2631 1635,-2631 1635,-2631 1641,-2631 1647,-2637 1647,-2643 1647,-2643 1647,-2655 1647,-2655 1647,-2661 1641,-2667 1635,-2667"/>
<text text-anchor="middle" x="1585" y="-2645.2" font-family="Noto Sans CJK KR" font-size="16.00">여행 통계 확인</text>
</g>
<!-- mypage&#45;&gt;travel_stats -->
<g id="edge69" class="edge">
<title>mypage&#45;&gt;travel_stats</title>
<path fill="none" stroke="#6b7280" stroke-width="1.2" d="M1770.45,-2795C1701.5,-2795 1585,-2795 1585,-2795 1585,-2795 1585,-2675.2 1585,-2675.2"/>
<polygon fill="#6b7280" stroke="#6b7280" stroke-width="1.2" points="1587.8,-2675.2 1585,-2667.2 1582.2,-2675.2 1587.8,-2675.2"/>
</g>
<!-- achievements -->
<g id="node54" class="node">
<title>achievements</title>
<path fill="#ffffff" stroke="#6b7280" stroke-width="1.4" d="M1761,-2667C1761,-2667 1695,-2667 1695,-2667 1689,-2667 1683,-2661 1683,-2655 1683,-2655 1683,-2643 1683,-2643 1683,-2637 1689,-2631 1695,-2631 1695,-2631 1761,-2631 1761,-2631 1767,-2631 1773,-2637 1773,-2643 1773,-2643 1773,-2655 1773,-2655 1773,-2661 1767,-2667 1761,-2667"/>
<text text-anchor="middle" x="1728" y="-2645.2" font-family="Noto Sans CJK KR" font-size="16.00">업적 확인</text>
</g>
<!-- mypage&#45;&gt;achievements -->
<g id="edge70" class="edge">
<title>mypage&#45;&gt;achievements</title>
<path fill="none" stroke="#6b7280" stroke-width="1.2" d="M1791,-2776.8C1791,-2737.67 1791,-2649 1791,-2649 1791,-2649 1781.12,-2649 1781.12,-2649"/>
<polygon fill="#6b7280" stroke="#6b7280" stroke-width="1.2" points="1781.12,-2646.2 1773.12,-2649 1781.12,-2651.8 1781.12,-2646.2"/>
</g>
<!-- settings -->
<g id="node55" class="node">
<title>settings</title>
<path fill="#ffffff" stroke="#6b7280" stroke-width="1.4" d="M1921,-2667C1921,-2667 1821,-2667 1821,-2667 1815,-2667 1809,-2661 1809,-2655 1809,-2655 1809,-2643 1809,-2643 1809,-2637 1815,-2631 1821,-2631 1821,-2631 1921,-2631 1921,-2631 1927,-2631 1933,-2637 1933,-2643 1933,-2643 1933,-2655 1933,-2655 1933,-2661 1927,-2667 1921,-2667"/>
<text text-anchor="middle" x="1871" y="-2645.2" font-family="Noto Sans CJK KR" font-size="16.00">설정 목록 확인</text>
</g>
<!-- mypage&#45;&gt;settings -->
<g id="edge71" class="edge">
<title>mypage&#45;&gt;settings</title>
<path fill="none" stroke="#6b7280" stroke-width="1.2" d="M1839.25,-2776.8C1839.25,-2776.8 1839.25,-2675.43 1839.25,-2675.43"/>
<polygon fill="#6b7280" stroke="#6b7280" stroke-width="1.2" points="1842.05,-2675.43 1839.25,-2667.43 1836.45,-2675.43 1842.05,-2675.43"/>
</g>
<!-- logout -->
<g id="node56" class="node">
<title>logout</title>
<path fill="#fee2e2" stroke="#ef4444" stroke-width="1.4" d="M2340.5,-2667C2340.5,-2667 2277.5,-2667 2277.5,-2667 2271.5,-2667 2265.5,-2661 2265.5,-2655 2265.5,-2655 2265.5,-2643 2265.5,-2643 2265.5,-2637 2271.5,-2631 2277.5,-2631 2277.5,-2631 2340.5,-2631 2340.5,-2631 2346.5,-2631 2352.5,-2637 2352.5,-2643 2352.5,-2643 2352.5,-2655 2352.5,-2655 2352.5,-2661 2346.5,-2667 2340.5,-2667"/>
<text text-anchor="middle" x="2309" y="-2645.2" font-family="Noto Sans CJK KR" font-size="16.00">로그아웃</text>
</g>
<!-- mypage&#45;&gt;logout -->
<g id="edge72" class="edge">
<title>mypage&#45;&gt;logout</title>
<path fill="none" stroke="#6b7280" stroke-width="1.2" d="M1869.88,-2801C1991.71,-2801 2294.5,-2801 2294.5,-2801 2294.5,-2801 2294.5,-2675.03 2294.5,-2675.03"/>
<polygon fill="#6b7280" stroke="#6b7280" stroke-width="1.2" points="2297.3,-2675.03 2294.5,-2667.03 2291.7,-2675.03 2297.3,-2675.03"/>
</g>
<!-- logout&#45;&gt;login_page -->
<g id="edge73" class="edge">
<title>logout&#45;&gt;login_page</title>
<path fill="none" stroke="#6b7280" stroke-width="1.2" d="M2323.5,-2667.06C2323.5,-2776.94 2323.5,-3351 2323.5,-3351 2323.5,-3351 1240.23,-3351 1240.23,-3351"/>
<polygon fill="#6b7280" stroke="#6b7280" stroke-width="1.2" points="1240.23,-3348.2 1232.23,-3351 1240.23,-3353.8 1240.23,-3348.2"/>
</g>
</g>
</svg>
